<?xml version="1.0" encoding="utf-8"?>
<!-- Generator: Adobe Illustrator 16.0.4, SVG Export Plug-In . SVG Version: 6.00 Build 0)  -->
<!DOCTYPE svg PUBLIC "-//W3C//DTD SVG 1.0//EN" "http://www.w3.org/TR/2001/REC-SVG-20010904/DTD/svg10.dtd">
<svg version="1.0" id="Layer_1" xmlns="http://www.w3.org/2000/svg" xmlns:xlink="http://www.w3.org/1999/xlink" x="0px" y="0px"
	 width="792px" height="857px" viewBox="0 0 792 857" enable-background="new 0 0 792 857" xml:space="preserve">
<path id="sadface" d="M592.824,39.551c-0.469,3.583-0.066,6.95,2.526,9.632c2.472,2.556,7.024,4.264,6.641,8.471
	c-0.924,10.105,0.132,20.782,9.738,27.236c5.189,3.482,11.326,3.955,13.487,10.514c2.482,7.516,3.498,15.421,3.552,23.372
	c0.083,11.576-8.71,21.102-15.76,29.341c-3.531,4.126-6.939,7.934-6.126,13.763c1.081,7.751,4.339,15.278,5.717,23.034
	c1.173,6.604,1.547,12.869,4.604,18.98c2.768,5.532,7.482,10.475,8.894,16.588c1.423,6.162,0.168,12.56-0.139,18.769
	c-0.37,7.506,1.929,14.733,2.17,22.23c0.439,13.684-1.333,27.551-2.44,41.173c-1.273,15.668-0.368,31.154-1.052,46.792
	c-0.303,6.926-2.75,13.479-3.044,20.337c-0.284,6.617,1.324,13.152,2.918,19.519c3.413,13.641,6.894,27.937,7.6,42.021
	c1.555,30.98,0.661,63.586-3.281,94.343c-3.989,31.13-5.864,62.217-9.151,93.375c-0.76,7.205-1.53,14.555-3.11,21.636
	c-1.358,6.085-4.274,11.284-5.03,17.527c-1.896,15.652-2.669,31.445-2.539,47.208c0.121,14.778,1.628,24.985-8.115,37.115
	c-9.118,11.353-19.042,16.062-32.795,19.545c-11.053,2.798-13.864,9.526-19.639,18.099c-2.437,3.615-6.538,2.922-10.161,1.797
	c-6.278-1.95-12.374-1.155-18.189,1.949c-8.737,4.668-20.383,2.128-29.88,4.36c-11.323,2.661-22.903,5.011-34.47,2.609
	c-4.802-0.997-10.852-2.901-15.573-0.735c-4.363,2.002-7.863,4.671-12.639,5.897c-12.072,3.1-25.728,4.095-38.158,3.94
	c-5.565-0.068-11.34,0.609-16.812-0.697c-7.034-1.679-12.471-1.308-19.549-1.605c-5.155-0.217-9.832-3.311-14.461-5.249
	c-6.142-2.572-12.457-2.705-19.003-2.164c-5.498,0.453-11.041,1.205-16.557,0.55c-5.335-0.635-10.456-2.473-15.898-1.862
	c-4.576,0.513-8.936,1.915-13.489,0.324c-6.44-2.251-12.214-6.021-18.668-8.32c-8.672-3.088-17.7-8.616-23.336-16.075
	c-6.808-9.008-6.748-24.817-7.899-35.651c-2.744-25.825-2.796-51.847-4.621-77.737c-0.449-6.37-8.135-66.943-14.965-64.949
	c-6.14,1.787-20.728,34.313-27.456,14.778c-4.117-11.974-0.545-25.164,0.153-37.388c0.932-16.304,1.462-32.617,0.584-48.936
	c-1.646-30.603-7.926-60.716-10.115-91.21c-0.959-13.365,4.445-22.6,10.068-34.135c6.55-13.436,3.992-28.343,2.942-42.705
	c-1.025-14.026-4.904-27.076-6.604-40.936c-1.881-15.342-2.771-31.49-2.555-46.944c0.206-14.634,3.249-28.994,6.722-43.151
	c3.833-15.626,6.196-30.687,8.645-46.494c1.049-6.775,3.308-13.301,4.219-20.102c0.881-6.583-1.341-12.974-1.844-19.486
	c-1.178-15.254-1.806-30.47,1.567-45.431c4.722-20.944,10.976-44.167,30.536-56.293c8.322-5.159,22.081-10.711,31.862-8.605
	c5.995,1.291,11.407,2.513,17.605,1.851c6.383-0.682,13.104-5.036,19.338-4.77c7.973,0.34,12.656,8.872,20.191,10.608
	c12.536,2.889,25.997,2.325,38.788,3.068c12.662,0.735,22.805-1.211,34.265-6.453c11.506-5.264,20.612-1.713,31.808,2.74
	c10.409,4.141,21.209,8.544,32.627,8.12c4.999-0.186,9.911-2.417,14.885-2.039c5.502,0.419,10.428,3.22,16.016,3.458
	c12.065,0.514,23.972-5.747,35.793-7.659c5.366-0.869,10.997-1.867,16.373-0.607c5.245,1.229,9.578,2.376,14.509-0.622
	c9.559-5.826,14.59,4.609,23.613,4.995c4.379,0.188,8.589-1.628,12.419-3.534C584.988,32.302,588.906,35.927,592.824,39.551
	C592.036,45.57,588.907,35.928,592.824,39.551C591.797,47.4,588.907,35.928,592.824,39.551z M352.835,743.935
	c3.221,5.122,8.675,11.899,14.979,12.386c6.762,0.521,13.722,4.052,20.187,0.43c7.422-4.158,9.885-4.11,18.276-2.19
	c9.049,2.07,16.63,1.464,25.416-1.148c8.341-2.479,17.043-3.006,25.643-3.974c8.163-0.92,16.183-4.291,24.501-3.571
	c8.291,0.718,15.9,3.692,24.394,3.419c3.988-0.128,8.004-1.433,11.958-1.354c3.539,0.071,4.643,2.698,7.172,4.547
	c3.267,2.39,4.838,2.017,7.414-1.545c4.554-6.3,10.955-10.863,16.157-16.567c5.688-6.237,8.378-15.872,10.296-23.895
	c0.533-2.229,1.167-19.34,6.751-13.832c1.555,1.533,3.026,5.787,5.891,5.295c3.024-0.521,5.841-3.702,8.734-4.89
	c14.116-5.793,14.276-19.082,14.775-32.891c0.3-8.28,0.945-16.513,1.633-24.771c0.354-4.252,4.199-24.25,0.913-25.844
	c-6.061,9.694-6.503,20.319-7.716,31.538c-0.961,8.89-0.125,23.239-5.231,31.029c-0.972,1.483-2.546,2.97-3.976,3.219
	c-5.732,1.004-9.63-5.62-7.48-12.401c2.007-6.317,4.286-12.458,4.048-19.201c-0.231-6.519-1.368-13.019-0.857-19.554
	c0.55-7.036,1.376-26.175-10.543-25.235c-5.221,0.41-10.555-4.119-15.672-1.533c-6.314,3.192-12.838,5.965-19.502,8.342
	c-14.385,5.132-29.382,8.406-44.513,10.372c-29.306,3.806-59.421,5.703-87.845-3.005c-12.686-3.887-24.477-8.587-36.621-13.863
	c-11.777-5.116-24.617-4.31-34.896,3.511c-4.383,3.335-7.084,7.573-9.688,12.333c-3.844,7.027-4.881,0.656-9.627,0.799
	c-5.78,0.175-5.998,17.896-6.205,21.599c-0.376,6.711,1.512,13.5,0.643,20.132c-0.742,5.663-2.087,12.282-3.808,17.716
	c-4.334,13.689-18.505,3.855-18.932-6.567c-0.264-6.419,2.776-12.38,3.087-18.741c0.324-6.636-1.412-13.325-2.406-19.841
	c-2.456-16.104-4.305-32.066-3.425-48.389c0.244-4.52-0.725-12.689,3.532-15.741c3.06-2.192,7.196-2.229,10.673-3.358
	c4.35-1.413,6.399-5.578,9.787-8.38c4.451-3.682,9.835-5.721,15.428-6.929c11.791-2.547,25.315,0.593,36.833,3.532
	c13.364,3.41,22.502,13.351,37.044,13.091c17.267-0.308,34.744,5.332,51.839,7.641c18.027,2.435,36.719,3.24,54.801,0.843
	c18.731-2.483,33.21-10.521,48.655-20.862c11.753-7.868,25.721-19.536,40.083-13.175c6.383,2.827,12.223,8.085,14.54,14.828
	c0.776,2.259,2.232,20.927,5.977,19.512c6.044-2.283,2.459-12.166,1.951-15.988c-1.327-9.985,1.944-18.339,4.447-27.77
	c4.059-15.296,6.971-39.619,0.197-54.561c-4.922-10.858-19.945-9.842-29.115-5.911c-13.958,5.982-27.812,12.638-40.326,21.316
	c-10.316,7.155-12.762,21.972-23.292,28.199c-6.811,4.028-15.436,5.871-22.747,8.92c-7.127,2.972-13.47,7.447-20.582,10.405
	c-13.875,5.771-32.718,1.873-45.512-5.053c-12.176-6.591-23.722-14.929-35.46-22.297c-5.957-3.739-12.444-6.542-17.844-11.092
	c-4.515-3.805-8.236-8.403-12.709-12.133c-9.384-7.826-26.886-4.413-38.411-6.118c-5.517-0.816-9.016-4.713-14.909-4.802
	c-5.973-0.09-11.456,0.034-15.28,5.303c-2.356,3.249-3.353,7.228-5.679,10.489c-2.122,2.976-4.315,4.643-5.428,8.293
	c-2.036,6.676-2.33,14.062-3.237,20.952c-1.199,9.107-5.418,16.081-8.453,24.562c-1.306,3.649-2.61,20.124-8.029,19.735
	c-0.573-0.041-1.499-1.817-1.529-2.844c-0.39-13.598,1.458-25.716,3.106-39.103c1.774-14.414,0.824-29.01,2.786-43.449
	c1.54-11.335-1.112-21.957,4.404-32.471c4.919-9.377,12.201-16.841,22.305-20.229c13.666-4.581,27.869-7.364,42.178-8.951
	c7.206-0.799,14.441-1.303,21.684-1.608c6.165-0.26,11.912-3.833,17.752-5.532c22.868-6.65,47.81-14.23,57.052-38.437
	c1.284-3.368,1.628-6.917-0.996-9.846c-2.598-2.897-5.452-3.961-8.753-2.2c-7.618,4.062-20.836,28.396-31.918,17.39
	c-3.557-3.533-3.418-9.825-4.623-14.373c-1.059-3.997-10.398-11.445-5.788-14.503c5.266-3.49,13.096-14.613,13.605-20.84
	c0.2-2.444-3.274-23.586,3.7-18.706c0.818,0.573,1.312,1.846,2.055,2.653c1.264,1.373,2.64,1.71,4.057,0.275
	c2.247-2.276,5.72-14.511,5.102-18c-2.862-16.05-13.159-26.834-26.227-35.515c-11.604-7.702-24.08-0.651-35.982,1.221
	c-7.115,1.119-13.275-2.065-20.54,0.26c-4.86,1.555-15.572,3.379-16.814,9.235c-0.525,2.477-0.24,3.995,2.064,4.509
	c10.921,2.426,21.97-0.295,32.899-1.121c9.032-0.683,16.718-1.061,25.759-0.597c19.521,1,19.702,24.061,16.94,38.843
	c-1.706,9.129-5.575,16.678-10.249,24.602c-4.564,7.737-2.928,17.732-8.24,25.154c-8.174,11.422-32.934,7.921-37.716-4.995
	c-5.357-14.471,6.847-29.688,7.723-44.061c0.473-7.76,2.099-31.207-12.279-26.667c-5.653,1.785-12.439,10.811-14.986,15.78
	c-4.264,8.319-9.538,11.783-6.926,22.003c2.069,8.096,9.293,12.634,12.475,20.151c1.213,2.866,15.647,18.985,4.963,19.122
	c-7.73,0.099-11.337-10.36-14.821-15.713c-1.496-2.298-11.299-17.61-14.841-12.659c-0.786,1.101-0.247,3.824-0.141,5.801
	c0.406,7.162,8.133,13.764,12.446,18.856c7.796,9.207,10.817,14.304,23.423,16.056c9.87,1.372,19.657,2.695,29.571,3.579
	c2.765,0.246,20.214,5.076,10.307,9.396c-9.213,4-21.224,3.311-31.07,3.172c-10.396-0.146-21.56-0.614-30.71-6.071
	c-13.158-7.847-29.208-36.637-44.131-15.81c-5.817,8.119-10.625,17.044-13.597,26.604c-3.137,10.091-2.603,19.674-3.221,30.032
	c-0.63,10.578-2.347,20.934-2.386,31.566c-0.019,5.187,2.632,24.239-3.729,26.526c-3.927,1.413-12.242-14.04-13.577-17.026
	c-1.151-2.575,2.241-17.519-5.66-13.201c-0.912,0.502-1.81,2.648-1.78,4.031c0.308,14.209,4.404,28.034,4.723,42.228
	c0.364,16.181-2.015,29.738,4.816,44.953c2.396,5.337,3.42,11.327,6.67,16.266c2.829,4.298,7.44,6.513,11.127,9.906
	c3.961,3.647,3.951,7.629,4.569,12.638c0.866,7.021,3.987,13.483,5.327,20.398c2.683,13.841,5.74,27.56,8.584,41.381
	c2.873,13.963,3.398,23.723-4.752,35.433c-5.188,7.451-1.791,18.188,2.827,25.235c3.561,5.436,5.999,31.338,18.984,21.084
	c3.509-2.768,7.272-5.049,11.016-7.297c4.299-2.582,10.141,3.363,12.382,6.442c3.484,4.786,6.932,8.194,13.271,6.732
	C329.781,734.716,346.78,734.305,352.835,743.935C354.896,747.212,348.72,737.39,352.835,743.935z M346.168,700.601
	c-12.882,2.147-22.351,2.123-27.031-11.714c-2.55-7.538-4.824-15.492-3.606-23.524c1.187-7.822,6.36-9.613,11.712-14.349
	c8.476-7.501,21.211-16.948,33.152-10.695c6.518,3.413,12.061,8.417,18.672,11.671c6.418,3.158,11.885,1.134,18.475-0.227
	c15.321-3.165,31.748,3.752,47.447,1.618c12.972-1.764,31.274-7.524,44.021-3.249c13.213,4.431,21,13.173,36.035,9.929
	c6.027-1.301,12.312-3.361,18.496-1.879c3.002,0.72,12.654,3.351,11.293,8.088c-2.007,6.979,0.322,14.773-2.824,21.508
	c-3.258,6.973-12.223,15.607-20.312,13.338c-9.973-2.799-18.598-8.028-29.021-9.963c-10.905-2.023-22.013-2.579-33.062-3.243
	c-10.364-0.622-20.65-1.49-31.042-1.594c-12.552-0.126-23.362,1.371-35.664,3.611c-5.021,0.913-9.908-1.994-15.146-1.207
	c-5.052,0.76-9.792,2.792-14.806,3.724c-5.022,0.934-10.823,0.013-15.585,2.041C353.409,696.173,350.581,699.864,346.168,700.601
	C335.772,702.334,351.679,699.682,346.168,700.601z M445.069,204.156c0.281-0.359,0.563-0.717,0.848-1.076
	c-4.952-10.975-16.585-16.562-27.085-20.985c-4.633-1.951-9.45-3.933-13.212-7.372c-3.053-2.791-6.806-13.983-11.365-6.756
	c-4.204,6.663-8.145,6.073-8.098,14.719c0.008,1.965-0.945,3.289-2.727,3.165c-3.471-0.24-6.971-0.506-10.374-1.239
	c-3.053-0.659-3.718-2.247-3.15-5.597c0.777-4.607,5.82-11.393,4.99-15.576c-1.215-6.116-5.002-10.882-9.812-14.657
	c-2.719-2.136-5.467-2.855-8.445-1.793c-3.815,1.362-7.299,3.42-9.822,7.157c-3.812,5.641-2.582,11.743,3.296,14.304
	c4.878,2.127,11.442,0.669,14.095,6.312c0.612,1.303,1.386,2.517,1.993,3.823c1.344,2.882,1.06,4.259-1.73,4.799
	c-7.382,1.429-13.591,7.126-20.208,10.412c-4.05,2.011-18.361,4.864-18.799,9.954c-0.489,5.687,0.903,7.611-2.962,12.462
	c-1.889,2.371-3.503,5.441-6.203,7.021c-2.562,1.499-5.049,0.799-6.847,3.697c-2.644,4.262-1.919,9.438-7.075,12.051
	c-6.347,3.218-9.818,7.928-15.59,11.918c-5.316,3.676-11.334,6.333-16.231,10.61c-6.886,6.014-7.048,10.194-5.442,18.34
	c0.403,2.055-0.38,3.735-2,4.619c-3.115,1.703-6.278,3.342-9.542,4.644c-1.057,0.422-2.916,0.178-3.624-0.616
	c-0.727-0.815-0.893-2.798-0.584-4.053c0.471-1.91,1.57-3.629,2.388-5.437c1.732-3.829,1.389-4.706-2.252-5.708
	c-0.807-0.221-1.627-0.426-2.453-0.517c-2.333-0.252-4.422-1.079-4.652-3.989c-0.216-2.746,1.457-4.629,3.645-5.292
	c1.667-0.505,7.428,0.537,8.207-1.719c0.242-0.703-0.138-1.762-0.455-2.567c-0.965-2.439-4.269-2.172-5.387-5.306
	c-1.373-3.845-3.765-5.65-6.313-8.676c-2.757-3.274-6.587-15.997-11.712-13.711c-1.324,0.591-2.716,1.594-3.545,2.844
	c-8.127,12.25-8.743,26.092-9.132,40.319c-0.479,17.515,0.535,35.062,0.51,52.582c-0.011,8.021-0.927,16.086-0.83,24.074
	c0.093,7.644-1.947,14.045-3.22,21.48c-1.222,7.137-3.457,15.053-1.006,22.148c1.381,4,2.426,7.177,1.919,11.492
	c-0.33,2.804-0.513,7.63,2.986,8.884c2.159,0.773,4.093,0.139,5.225-2.845c2.483-6.55,0.512-13.397,1.386-20.13
	c0.945-7.276,4.259-14.293,8.171-20.423c3.035-4.756,8.51-8.189,7.024-14.474c-1.57-6.64,5.14-8.567,8.91-13.106
	c8.985-10.819,15.444-23.024,24.924-33.629c4.896-5.479,10.708-8.781,14.501-15.337c3.577-6.182,7.51-11.034,12.618-16.023
	c9.597-9.373,18.538-23.189,33.507-23.582c7.743-0.203,15.693-3.061,23.361-2.491c4.076,0.303,7.973,2.274,11.977,3.039
	c2.47,0.471,8.215,1.392,8.218-2.64c0.003-4.528-7.266-1.552-10.284-3.179c-4.708-2.538-12.968-4.657-16.348-8.696
	c-4.867-5.817-2.764-8.685-11.431-9.446c-2.564-0.227-3.685-1.402-3.407-4.258c0.278-2.912,0.84-5.838,1.672-8.615
	c0.369-1.234,1.541-2.452,2.631-3.096c5.002-2.961,8.923-2.672,14.441-2.717c4.556-0.037,7.312-5.701,11.05-0.697
	c2.726,3.654,4.552,9.628,10.396,6.899c1.61-0.752,1.429-2.711,1.034-4.395c-0.166-0.711-0.519-1.38-0.617-2.097
	c-0.396-2.848,0.667-4.196,3.305-3.972c1.812,0.156,3.596,0.716,5.406,0.939c7.442,0.919,9.643,13.882,12.039,19.435
	c1.429,3.305,5.643,5.274,9.48,4.589c4.127-0.737,2.326-5.973,4.489-8.268c2.992-3.176,8.158,9.287,8.986,10.798
	c3.19,5.822,6.368,13.187,11.352,17.721c4.055,3.688,8.121,6.15,11.661,10.462c2.953,3.598,7.718,4.736,10.13,8.721
	c2.418,3.997,3.039,8.771,4.391,13.167c4.088,13.291,8.141,24.734,5.828,38.917c-1.933,11.855-13.383,24.033-11.424,36.085
	c0.864,5.316,5.215,8.215,8.232,12.247c3.448,4.608,4.717,10.273,6.188,15.718c3.028,11.208,12.87,17.634,16.199,28.601
	c1.941,6.4,7.44,23.875-4.189,23.38c-5.82-0.252-9.661,0.229-14.781,3.201c-5.712,3.316-8.543-1.324-13.303-4.062
	c-5.16-2.969-11.011-4.293-16.861-5.04c-4.935-0.631-15.533-3.611-20.128-1.792c-3.891,1.541-3.626,6.106-8.754,7.3
	c-6.369,1.483-10.335,6.065-17.287,6.085c-5.753,0.016-7.43,1.542-9.883,6.465c-1.334,2.677-7.708,9.844-2.929,12.167
	c3.636,1.767,4.011,8.825,7.674,10.522c4.654,2.156,40.821,20.112,43.343,13.07c0.345-0.958-0.297-2.91-1.092-3.678
	c-4.476-4.343-20.01-7.099-17.815-15.634c0.513-1.988,2.771-3.27,5.42-2.857c6.717,1.047,12.307,5.433,18.472,7.967
	c8.911,3.664,18.908,3.938,28.084,6.763c5.93,1.827,5.832,9.35,9.108,13.674c4.771,6.298,11.211,10.739,19.354,9.957
	c5.785-0.555,13.652-4.574,19.451-4.451c12.033,0.251,13.413-28.338,23.554-33.398c3.358-1.677,4.019-5.705,6.124-8.455
	c2.339-3.058,7.056-3.084,9.912-5.957c3.056-3.075,5.497-6.622,10.213-6.871c6.479-0.343,10.154-1.206,16.172-3.819
	c10.376-4.506,18.236-8.364,26.748-15.994c3.326-2.981,6.799-5.856,6.587-10.769c-0.19-4.409-3.693-7.386-4.209-11.638
	c-1.187-9.8,6.767-9.834,11.63-15.342c4.351-4.927,0.318-25.065-6.973-26.09c-6.231-0.876-7.655,9.642-10.093,13.489
	c-5.117,8.078-12.736,15.736-21.013,20.52c-7.711,4.458-16.691,9.114-25.855,7.388c-10.508-1.977-20.961-4.541-30.812-8.772
	c-6.319-2.714-9.555-8.272-12.259-14.457c-1.646-3.763,0.096-7.206,0.973-10.868c1.075-4.491-1.312-8.015-3.047-11.984
	c-3.762-8.608-10.718-13.653-12.573-22.952c-2.031-10.176-2.705-18.236-0.109-28.526c1.732-6.87,3.712-21.358,11.586-23.496
	c1.272-0.346,2.646-0.321,3.974-0.33c6.02-0.04,9.115-4.559,13.034-8.343c3.867-3.734,9.112-5.599,13.899-7.809
	c5.435-2.51,10.553-6.43,16.154-8.455c5.177-1.872,11.157-0.411,16.4,0.42c11.496,1.821,22.166,6.127,29.048,15.977
	c6.421,9.191,7.34,27.135,16.839,33.14c0.531-1.041,1.548-2.099,1.519-3.121c-0.525-17.694-6.854-34.523-7.441-52.382
	c-0.657-19.965-4.266-39.591-8.051-59.153c-3.43-17.729-6.547-36.59-15.299-52.604c-3.313-6.062-6.893-12.574-11.422-17.821
	c-6.578-7.622-16.069-7.378-25.37-8.47c-8.211-0.973-15.609,6.953-22.742,9.787c-5.028,1.998-10.308,3.266-15.331,5.273
	c-5.966,2.383-10.829,6.59-16.713,9.15c-9.028,3.928-17.727,9.645-27.891,8.456c-11.714-1.371-18.993-6.752-28.764,2.598
	c-2.655,2.538-2.236,5.042,0.666,7.208c8.842,6.598,22.515,7.12,33.02,9.146c15.226,2.937,29.545,2.363,44.268-2.472
	c25.05-8.226,50.894-15.548,66.565,11.763c1.939,3.376,0.463,24.962-6.062,18.688c-2.14-2.051-4.346-4.013-6.501-6.039
	c-4.769-4.477-17.292-1.169-23.296-1.011c-10.67,0.28-21.844,4.624-31.481,8.903c-19.069,8.467-40.791,2.569-56.071-10.644
	c-1.947-1.685-1.985-3.173-0.217-5.078c3.633-3.914,9.965-2.312,14.645-3.732c-7.991-3.974-16.429-7.036-25.056-9.305
	c-7.186-1.89-19.631-6.336-26.914-3.638c-2.672,0.995-4.925,3.896-4.245,5.402c1.803,3.996,8.501,2.13,11.83,2.608
	c6.385,0.916,13.974,3.667,18.89,7.956c4.338,3.784,20.041,22.367,16.484,28.202c-3.134,5.148-9.09-1.856-13.248-0.058
	c1.085,3.851,5.083,11.755,1.448,15.23c-1.446,1.382-4.102,0.97-6.49-0.822c-6.346-4.766-9.955-12.189-16.072-17.169
	c-3.14-2.556-19.689-4.277-13.489-12.613c1.503-2.019,3.459-1.704,5.468-0.734C428.188,195.809,436.693,199.852,445.069,204.156
	c0.214-0.273-1.772-0.979-1.788-0.989C443.878,203.497,444.474,203.827,445.069,204.156
	C445.351,203.797,440.738,201.931,445.069,204.156z M245.693,129.981c1.664,2.073,6.074,5.831,5.182,8.958
	c-0.996,3.465-16.44,1.338-19.049,1.213c-7.51-0.359-16.689,1.384-19.68-7.666c-0.104-0.312-0.232-0.791-0.452-0.858
	c-0.845-0.26-1.99-0.802-2.542-0.461c-0.902,0.559-1.752,1.63-2.056,2.653c-1.7,5.73,1.702,12.621,7.334,14.772
	c4.881,1.864,9.965,1.731,14.733,4.051c4.698,2.286,7.695,1.894,12.007-0.843c4.367-2.771,21.091-10.086,21.59-0.764
	c0.149,2.789-0.279,5.621-0.576,8.42c-0.431,4.048-0.797,4.292-4.795,5.031c-5.81,1.074-13.624,5.292-17.02,10.37
	c-1.727,2.581-5.218,1.422-5.977-1.644c-0.317-1.285-0.356-2.637-0.534-3.958c-0.643-4.761-5.69-9.885-10.452-10.614
	c-2.858-0.439-4.858,1.073-5.221,3.977c-0.268,2.145,0.458,3.943,2.073,5.344c1.259,1.09,2.624,2.057,3.888,3.14
	c6.459,5.538,4.974,13.718,5.789,21.316c0.555,5.169,2.981,27.42,11.668,23.72c2.992-1.275,5.072-4.016,8.671-2.359
	c3.336,1.533,6.301,3.756,9.719,5.136c7.973,3.218,16.093-4.14,23.048-7.354c8.316-3.843,12.977-3.022,21.429-1.57
	c6.425,1.104,5.398-11.25-2.032-11.981c-6.846-0.67-12.916,1.258-18.201,5.148c-3.667,2.7-18.664,8.207-22.163,3.868
	c-2.444-3.03-2.588-7.305-5.113-10.282c-2.493-2.94-5.766-1.198-8.587-3.059c-3.407-2.248,0.39-5.52,2.695-6.12
	c5.274-1.374,7.162-2.78,9.294-7.938c2.664-6.444,4.296-1.908,9.236-2.675c1.773-6.314-1.693-11.437,6.11-14.506
	c10.241-4.032,23.53,2.232,34.177,1.272c6.031-0.544,17.211-5.813,19.616-11.822c0.423-1.055,0.289-2.739-0.312-3.661
	c-0.423-0.642-2.204-0.888-3.153-0.591c-7.54,2.374-17.097,9.906-25.272,8.831c-2.974-0.391-4.358-3.26-6.294-5.145
	c-2.576-2.507-5.432-0.6-7.908-2.116c-1.006-0.615-2.04-1.711-2.312-2.79c-0.145-0.575,1.159-1.793,2.049-2.274
	c5.269-2.841,11.647-0.538,17.26-1.588c2.283-0.427,14.49-5.176,15.161-7.167c0.31-0.879,1.085-2.186,0.77-2.565
	c-0.638-0.76-1.9-1.431-2.859-1.373c-8.368,0.507-14.487,4.666-23.366,3.991c-3.659-0.278-19.784,0.442-19.47-5.291
	c0.121-2.182,1.604-3.695,3.821-4.003c5.513-0.765,11.075-1.172,16.553-2.186c-0.237-1.458-5.151-8-3.61-9.12
	c3.506-2.549,7.621-0.464,9.634-5.683c0.763-1.978,0.03-2.969-2.021-2.679c-1.972,0.278-3.893,0.98-5.867,1.166
	c-7.8,0.736-9.024-5.412-10.695-11.083c-1.196-4.059-11.254-13.878-5.621-17.836c5.236-3.675,11.273-5.429,17.69-5.756
	c3.269,1.596,6.876,2.356,10.109,4.034c4.634,2.405,5.022,5.861,7.075,10.139c1.306,2.72,3.665,3.775,6.479,3.89
	c3.796,0.155,5.063-1.32,4.592-5.114c-0.062-0.494-0.229-0.978-0.271-1.473c-0.295-3.453,0.83-4.463,4.397-3.859
	c5.825,0.98,11.938,1.535,17.027,4.834c3.767,2.443,6.612-0.881,9.925-2.306c4.526-1.945,11.566,0.282,16.433,0.221
	c6.675-0.083,13.336-0.792,19.93-1.806c12.677-1.949,24.613-4.945,36.269-10.371c3.637-1.693,8.714,0.262,11.598-2.988
	c2.739-3.088,3.387-7.805-1.786-7.967c-18.456-0.585-36.131,4.445-53.489,10.158c-5.53,1.828-16.706-0.501-22.258-1.774
	c-4.112-0.943-8.396-1.384-12.462-2.414c-5.131-1.3-9.347-5.585-13.837-8.193c-9.12-5.303-12.399,2.822-20.407,4.225
	c-3.817,0.669-5.564-2.936-7.984-5.051c-2.814-2.46-6.109-2.76-9.667-3.117c-9.241-0.926-11.842,0.957-16.316,8.536
	c-2.724,4.614-18.104,8.626-22.376,4.682c-1.22-1.125-2.509-2.179-3.679-3.354c-2.974-2.985-4.857-3.006-8.784,0.386
	c6.344,3.875,1.583,12.556,3.33,18.381c1.014,3.384,2.881,6.431,3.894,9.817c0.819,2.738,0.434,6.11,1.978,8.604
	c2.44,3.941,11.979,1.647,12.414,7.295c0.259,3.366-2.783,6.417-3.124,9.822c-0.388,3.868-1.551,6.245-5.638,6.868
	C252.95,125.71,249.613,127.675,245.693,129.981C247.349,132.043,249.613,127.675,245.693,129.981
	C247.349,132.043,249.613,127.675,245.693,129.981z M434.66,112.949c-0.653,1.895-1.636,3.694-1.847,5.581
	c-0.387,3.445,2.419,5.301,5.521,3.792c2.445-1.19,9.338-8.402,12.015-3.85c0.649,1.104,0.704,2.768,0.509,4.105
	c-0.214,1.43-1.118,2.743-1.562,4.157c-0.457,1.459-0.662,2.949,0.839,4.071c1.446,1.079,3.087,1.679,4.6,0.557
	c6.097-4.539,5.587-13.046,10.607-18.284c4.133-4.312,13.922-5.644,15.973-11.475c0.957-2.72,0.433-5.895,2.259-8.313
	c2.302-3.047,7.429-5.066,10.709-6.839c8.256-4.462,16.744-6.615,26.143-5.992c6.125,0.407,17.636-0.308,22.553,4.059
	c5.347,4.75,10.799-2.435,17.214-1.116c8.184,1.682,15.851-1.281,22.673,5.069c3.472,3.232,8.531,15.945,14.575,13.42
	c1.995-0.833,2.366-2.737,1.489-6.655c-1.433-6.396-0.985-13.025-6.461-17.685c-3.094-2.633-5.467-1.142-8.89-0.925
	c-3.006,0.19-4.039-3.092-5.477-5.022c-4.218-5.658-9.977-8.751-16.86-7.316c-7.403,1.542-14.854,1.464-22.349,2.049
	c-7.593,0.591-13.598,4.202-20.621,6.679c-6.999,2.469-14.326,3.842-21.567,5.38c-5.886,1.25-11.174,4.881-14.391-0.951
	c-5.931-10.752-24.608-2.152-31.804,1.336c-3.82,1.852-36.95,21.497-24.275,24.358c8.793,1.977,14.102-11.506,23.241-6.199
	c1.213,0.704,1.827,1.715,1.064,2.861c-2.857,4.292-11.16,12.714-15.764,13.714C435.191,113.425,437.001,111.555,434.66,112.949
	C434.007,114.844,437.441,111.292,434.66,112.949z M528.938,302.114c-3.815,4.8-7.397,8.646-6.265,15.223
	c1.553,8.994,7.891,14.757,13.623,21.288c2.952,3.363,6.782,7.634,6.263,12.467c-0.513,4.771-4.016,8.044,2.528,9.57
	c12.115,2.82,20.677-3.591,30.622-9.071c5.302-2.921,10.965-5.225,15.916-8.754c4.127-2.938-0.381-10.325,0.452-14.848
	c0.724-3.93-0.429-4.675-4.269-3.751c-7.561,1.819-8.391,12.268-12.371,17.607c-6.17,8.279-17.273,10.034-22.944,0.248
	c-5.523-9.531-2.734-20.797-2.102-31.108c0.472-7.698,0.261-23.391-11.497-17.993C534.488,295.017,531.533,298.539,528.938,302.114
	C527.641,303.747,531.533,298.539,528.938,302.114C527.641,303.747,531.533,298.539,528.938,302.114z M394.178,111.939
	c-5.005-4.415-12.132-4.169-18.371-4.571c-3.605-0.232-14.186-5.091-15.949-0.592c-1.305,3.319-3.766,5.219-6.622,7.042
	c-2.476,1.579-2.581,3.231-1.215,5.983c0.738,1.487,1.516,2.962,2.149,4.494c1.604,3.866,4.023,5.783,8.3,5.503
	c6.371-0.418,13.857,1.437,19.264,4.881c5.565,3.546,19.712,20.177,27.459,13.582c1.46-1.246,0.816-3.104-0.062-4.582
	c-3.906-6.564-4.979-8.802-4.498-16.315C405.009,121.489,397.681,115.973,394.178,111.939
	C391.019,109.152,397.205,115.426,394.178,111.939C386.47,105.14,397.205,115.426,394.178,111.939z M524.816,289.551
	c6.367,0.607,12.398-7.346,17.464-10.324c8.464-4.976,15.922-7.896,25.7-5.296c7.816,2.078,16.728,3.833,20.936,11.548
	c0.973,1.783,13.173,21.753,14.065,12.074c1.179-12.788-12.515-26.462-23.105-31.24c-7.406-3.339-15.36-4.373-23.364-2.42
	C546.037,266.447,525.128,276.349,524.816,289.551c1.101,0.105,1.709-1.197,0.812-1.857
	C524.771,287.801,524.5,288.42,524.816,289.551C529.954,290.041,524.922,285.082,524.816,289.551z M312.13,176.4
	c-2.672,3.187-2.975,5.021-1.619,6.968c1.685,2.417,4.076,3.067,7.027,1.784c3.212-1.395,24.223-16.001,16.428-18.513
	c-7.346-2.365-18.61,5.411-22.915,11.07C311.36,177.304,311.732,176.696,312.13,176.4C309.458,179.587,312.471,176.147,312.13,176.4
	z M243.352,128.451c-2.181-5.626-5.097-10.744-7.483-16.24c-1.47-3.385-0.217-10.526-5.535-11.114
	c-2.031-0.226-2.619,1.743-2.616,3.503C227.736,116.353,230.063,125.795,243.352,128.451
	C241.873,124.636,236.781,127.138,243.352,128.451C241.764,124.355,236.781,127.138,243.352,128.451z M399.669,41.617
	c-0.348-0.158-1.09-0.783-1.833-0.785c-4.415-0.009-8.479,1.442-12.243,3.594c-0.662,0.379-0.907,2.125-0.727,3.128
	c0.129,0.719,1.308,1.803,1.982,1.78c4.123-0.146,8.319-0.164,12.325-1.011C402.561,47.606,402.832,44.15,399.669,41.617
	C399.321,41.458,402.832,44.15,399.669,41.617C399.321,41.458,402.832,44.15,399.669,41.617z M573.459,290.808
	c-2.138-1.646-3.452-1.482-5.029,0.626c-2.223,2.972-1.563,9.955,1.147,12.547c1.27,1.214,2.428,1.316,3.94,0.254
	C576.381,302.228,577.26,292.92,573.459,290.808C571.321,289.162,577.26,292.92,573.459,290.808
	C571.321,289.162,577.26,292.92,573.459,290.808z M375.715,289.877c-1.585,0.095-3.089-0.197-4.206,0.329
	c-2.6,1.229-4.001,3.601-4.002,6.442c-0.001,4.642,0.157,9.296,0.559,13.917c0.108,1.243,1.342,2.385,2.059,3.574
	c1.102-0.981,2.872-1.785,3.19-2.974C375.225,304.025,377.39,297.121,375.715,289.877
	C374.13,289.972,376.227,292.091,375.715,289.877C374.13,289.972,376.227,292.091,375.715,289.877z"/>
</svg>
