<?xml version="1.0" encoding="utf-8"?>
<!-- Generator: Adobe Illustrator 16.0.4, SVG Export Plug-In . SVG Version: 6.00 Build 0)  -->
<!DOCTYPE svg PUBLIC "-//W3C//DTD SVG 1.0//EN" "http://www.w3.org/TR/2001/REC-SVG-20010904/DTD/svg10.dtd">
<svg version="1.0" xmlns="http://www.w3.org/2000/svg" xmlns:xlink="http://www.w3.org/1999/xlink" x="0px" y="0px" width="792px"
	 height="857px" viewBox="0 0 792 857" enable-background="new 0 0 792 857" xml:space="preserve">
<g id="Layer_1" display="none">
	<path id="happyface" display="inline" d="M592.818,36.614c-0.808,5.289,1.573,7.923,5.732,10.657
		c6.141,4.037,0.75,9.166,3.042,15.133c1.907,4.964,5.44,10.402,10.132,13.106c4.932,2.841,11.221,3.123,13.486,9.02
		c2.482,6.448,3.498,13.23,3.552,20.051c0.081,9.738-8.063,17.562-14.454,23.905c-3.062,3.039-7.289,6.179-7.557,10.861
		c-0.346,6.037,3.69,12.979,5.126,18.811c1.323,5.377,1.451,11.1,3.685,16.22c2.013,4.617,5.218,8.569,8.189,12.587
		c3.326,4.497,2.816,9.671,2.083,14.878c-0.917,6.522,0.108,12.716,0.938,19.193c1.532,11.971,0.417,23.525-1.006,35.449
		c-1.624,13.609-0.706,26.057-0.411,39.604c0.274,12.628-5.434,22.767-1.78,35.385c3.694,12.761,8.421,25.831,8.505,39.234
		c0.161,25.667,2.052,52.595-3.07,77.934c-4.977,24.616-6.183,50.385-8.264,75.388c-0.984,11.839-2.294,24.354-6.986,35.382
		c-4.659,10.953-3.763,21.591-12.216,30.845c-7.14,7.816-16.042,13.92-26.515,15.997c-5.415,1.074-11.067,1.755-15.929,4.577
		c-3.853,2.236-5.908,6.713-8.544,10.112c-5.568,7.181-10.887,2.644-18.474,2.662c-8.759,0.021-17.129,4.521-26.116,4.875
		c-9.672,0.381-18.968,4.314-28.444,4.351c-9.996,0.037-19.245-0.483-29.181-1.665c-9.143-1.087-17.286,5.376-26.437,6.53
		c-10.693,1.348-21.59,2.527-32.379,2.412c-4.85-0.052-9.717,0.298-14.554-0.208c-4.994-0.521-9.798-2.598-14.89-2.147
		c-8.782,0.775-16.568-3.396-24.908-5.271c-8.509-1.913-17.16-0.258-25.747-0.062c-9.496,0.218-18.05-2.156-27.609-0.984
		c-9.22,1.131-19.6-4.099-27.933-7.56c-7.009-2.91-14.208-6.245-19.867-11.418c-6.747-6.168-7.485-15.652-9.244-24.168
		c-2.178-10.547-3.977-21.167-5.829-31.774c-0.917-5.25-8.072-52.314-14.833-50.62c-6.419,1.604-20.562,29.849-27.456,12.679
		c-3.982-9.935-0.896-21.497,0.09-31.712c1.312-13.589,1.675-27.57,0.684-41.188c-1.935-26.586-6.113-52.937-9.946-79.296
		c-1.326-9.117,3.055-16.398,7.551-23.889c6.17-10.28,6.557-19.286,5.673-31.02c-0.936-12.428-0.034-25.014-3.87-37.017
		c-3.977-12.44-4.56-24.15-5.243-37.122c-0.64-12.144-0.393-24.399,2.695-36.231c3.366-12.896,8.319-25.383,10.666-38.541
		c1.022-5.732,1.375-11.553,2.449-17.282c1.021-5.446,3.027-10.774,3.116-16.359c0.176-11.13-2.933-22.102-2.671-33.352
		c0.495-21.285,6.7-44.486,21.843-60.186c7.265-7.532,17.042-11.917,27.045-14.492c12.129-3.123,22.942,1.106,35.116-0.167
		c5.413-0.566,10.235-2.693,15.5-3.63c4.943-0.88,9.072,1.968,12.969,4.565c9.762,6.506,21.579,5.885,32.871,6.183
		c12.835,0.338,25.971,2.642,38.618-0.66c10.166-2.653,18.996-8.747,29.904-5.842c12.195,3.249,23.803,8.699,36.362,10.543
		c6.192,0.909,12.565,0.8,18.663-0.682c6.358-1.546,12.024,1.29,18.211,2.156c11.882,1.664,23.461-3.786,35.013-5.644
		c5.726-0.921,12.03-2.208,17.845-1.58c6.138,0.663,11.29,2.987,17.224-0.104c9.06-4.737,14.358,3.556,22.927,4.26
		c4.549,0.374,8.997-1.252,13.105-3.006C584.982,30.395,588.9,33.504,592.818,36.614C592.03,41.777,588.901,33.505,592.818,36.614
		C591.727,43.767,588.901,33.505,592.818,36.614z M348.333,597.168c7.975,3.751,12.274,8.924,21.492,10.325
		c4.244,0.646,8.709,1.133,12.996,0.612c5.186-0.629,8.678-4.796,14.234-4.395c10.771,0.779,19.567,4.241,30.423,1.406
		c11.865-3.099,24.158-3.654,36.307-4.847c10.999-1.079,20.256-0.682,31.169,0.727c5.687,0.733,11.417,0.322,17.074-0.456
		c5.594-0.771,7.579,0.287,12.27,2.992c5.223,3.009,7.746-1.886,11.367-5.03c4.183-3.633,8.814-6.691,13.169-10.106
		c3.593-2.818,8.308-6.308,9.246-11.087c0.658-3.356,2.063-10.632,6.712-5.629c3.66,3.939,8.822-4.7,11.547-6.594
		c2.622-1.822,5.471-3.305,8.002-5.261c3.09-2.388,4.677-6.108,7.44-8.802c3.7-3.607,7.166-5.576,6.46-11.644
		c-0.264-2.266,1.374-13.601-3.059-10.219c-1.947,1.486-5.343,6.849-8.041,6.664c-5.374-0.367-7.36-5.896-7.914-10.476
		c-0.567-4.688,0.524-8.868,0.868-13.465c0.442-5.933-7.523-3.771-11.075-3.55c-11.259,0.691-21.406,5.877-32.005,9.193
		c-12.494,3.909-25.533,5.263-38.426,7.202c-12.744,1.917-25.448,3.882-38.334,4.538c-13.448,0.685-27.148,2.689-40.547,0.763
		c-10.634-1.53-21.58-3.194-32.077-5.483c-11.741-2.561-19.727-9.879-29.572-16.168c-4.438-2.835-9.179-4.546-14.014-6.53
		c-4.892-2.009-7.01-4.894-10.346-8.753c-7.604-8.797-23.716-6.998-31.413-15.288c-3.183-3.429-4.754-7.607-8.489-10.596
		c-3.476-2.782-6.337-6.017-9.697-8.87c-5.978-5.077-8.486-15.151-10.87-22.588c-0.773-2.411-0.82-6.825,3.178-4.934
		c3.655,1.729,6.14,6.629,8.93,9.451c3.088,3.124,7.199,4.121,10.161,7.347c3.745,4.077,8.083,2.902,12.892,4.605
		c4.599,1.629,7.297,5.491,10.256,9.104c3.259,3.98,7.133,6.145,11.91,7.92c11.524,4.281,22.125,10.334,32.947,16.105
		c10.708,5.711,21.614,11.088,32.958,15.428c5.086,1.946,8.785,1.85,14.058,0.969c6.362-1.062,11.066,2.171,16.934,4.04
		c21.309,6.788,44.38,7.269,66.444,4.982c22.409-2.321,39.179-12.111,59.199-21.317c8.334-3.833,16.32-6.42,21.956-14.106
		c5.296-7.224,10.91-9.259,10.822-18.888c-0.059-6.442,2.508-12.763,10.376-10.957c4.073,0.936,5.428,13.795,8.745,12.604
		c1.26-0.45,2.699-1.482,3.229-2.638c6.822-14.946-10.876-33.035-25.802-27.994c-7.98,2.696-15.861,5.676-23.735,8.666
		c-6.236,2.368-8.637,5.845-12.21,11.248c-3.389,5.124-8.867,7.739-12.761,12.432c-4.03,4.855-7.299,10.59-12.679,14.138
		c-10.851,7.157-25.239,7.787-37.276,12.154c-5.48,1.988-7.524,8.636-14.115,7.068c-8.669-2.061-17.617-2.077-26.406-3.31
		c-8.071-1.131-15.271-3.704-22.275-7.845c-6.574-3.886-13.925-6.346-20.304-10.509c-2.212-1.443-3.812-3.664-6.152-4.941
		c-2.919-1.594-6.904-1.589-10.056-2.805c-2.851-1.101-5.158-3.243-8.02-4.329c-3.388-1.286-5.684-1.149-8.059-4.286
		c-7.125-9.412-21.063-8.194-29.095-17.222c-3.994-4.49-9.992-0.799-15.125-1.083c-6.596-0.364-6.427-9.451-12.41-9.43
		c-5.656,0.022-11.666,2.298-17.155,0.023c-5.158-2.138-8.802-6.758-14.261-8.488c-5.438-1.724-10.18-0.379-13.76-5.962
		c-3.136-4.891-1.863-10.75-2.928-16.038c-0.785-3.895-4.958-9.701,0.982-11.896c5.88-2.172,3.467-5.84,7.159-9.578
		c1.313-1.33,3.074-2.093,4.32-3.501c1.451-1.64,0.83-4.722,2.52-5.998c3.808-2.875,11.314,6.786,13.803,8.575
		c4.464,3.208,8.489,7.265,13.049,10.28c2.565,1.696,4.784,1.729,7.755,1.617c3.773-0.142,6.889,2.213,10.522,2.787
		c6.459,1.02,14.247-1.242,20.723-1.875c7.775-0.76,15.57-0.748,23.36-1.23c26.96-1.67,53.832-8.269,66.423-34.27
		c1.286-2.653,1.628-5.45-0.994-7.758c-2.598-2.283-5.452-3.122-8.755-1.734c-8.381,3.523-21.002,22.306-31.625,13.693
		c-3.249-2.634-3.433-7.66-4.767-11.323c-1.169-3.208-10.474-9.051-5.935-11.422c4.047-2.114,7.924-7.352,11.006-10.698
		c5.257-5.707,1.386-11.422,1.665-17.952c0.112-2.648,2.324-3.787,4.635-2.514c0.817,0.452,1.312,1.455,2.055,2.091
		c1.263,1.082,2.64,1.348,4.057,0.217c2.245-1.794,5.72-11.435,5.102-14.185c-4.143-18.305-22.292-28.328-39.41-30.901
		c-10.789-1.622-18.85,6.26-29.284,3.873c-7.349-1.681-28.294-2.068-30.872,7.485c-0.523,1.952-0.238,3.148,2.066,3.553
		c6.855,1.201,12.11,6.097,18.553,0.355c2.564-2.283,5.427-2.059,8.501-1.2c4.583,1.281,8.069,0.696,12.696-0.172
		c7.176-1.347,14.889-1.067,22.155-0.325c9.208,0.94,11.687,8.233,15.759,15.406c2.404,4.239-2.809,11.528-4.755,15.049
		c-2.9,5.247-4.649,10.999-8.683,15.578c-8.888,10.089-26.816,11.959-31.626-3.402c-2.335-7.448-4.884-15.077-5.052-22.957
		c-0.112-5.281-0.125-9.859-6.905-8.484c-6.097,1.236-11.603,4.036-17.101,6.777c-2.41,1.199-3.429,3.783-4.662,5.986
		c-1.375,2.457-3.599,3.811-5.404,5.88c-3.325,3.811-0.912,11.062,1.776,14.637c3.405,4.528,7.658,7.117,10.596,12.149
		c1.294,2.218,15.048,14.133,4.516,14.239c-7.24,0.072-10.942-7.669-14.969-12.51c-1.924-2.312-11.026-13.889-14.693-9.848
		c-0.786,0.867-0.247,3.013-0.141,4.571c0.385,5.53,7.922,10.566,11.593,13.995c5.135,4.797,9.64,11.931,17.264,12.755
		c9.611,1.037,19.319,2.658,28.982,3.016c4.271,0.158,18.546-0.956,20.319,4.755c0.522,1.678-0.892,2.694-2.412,3.216
		c-16.147,5.565-40.305,5.011-56.525-0.282c-15.527-5.068-33.523-31.905-49.386-14.461c-9.847,10.834-17.436,24.508-16.705,39.555
		c0.438,9.025-2.266,17.879-2.484,26.889c-0.117,4.843,2.577,22.176-3.744,23.966c-3.504,0.994-12.676-10.663-13.512-13.68
		c-0.909-3.283,1.405-13.215-5.724-10.141c-0.912,0.396-1.811,2.088-1.781,3.177c0.285,10.294,3.543,20.178,4.545,30.385
		c0.955,9.704-1.975,19.62,0.488,29.21c1.988,7.74,6.398,16.715,11.793,22.63c3.954,4.335,11.42,5.19,14.014,10.799
		c1.575,3.405,1.03,7.53,2.363,11.114c1.486,3.995,3.159,7.774,4.25,11.915c2.626,9.967,2.989,18.09,2.476,28.203
		c-0.191,3.785,3.842,5.172,5.513,8.059c1.75,3.022,1.84,6.599,3.076,9.807c5.041,13.092,17.273,3.814,25.324,0.007
		c8.393-3.971,14.692,11.054,23.094,10.685c6.015-0.265,11.314-4.053,16.953-0.081C338.412,594.953,343.184,594.745,348.333,597.168
		C353.142,599.43,344.708,595.462,348.333,597.168z M342.76,577.615c-5.486-5.05-5.594-13.53-5.178-20.412
		c0.4-6.623-0.518-9.464-5.749-14.036c-4.418-3.875-11.033-2.877-16.155-5.097c-5.957-2.581-5.537-10.596-10.61-13.001
		c-6.291-2.982-8.888-3.056-12.594-9.677c-2.26-4.036-13.282-8.251-6.41-13.31c4.188-3.08,7.931-1.307,12.169,0.482
		c4.943,2.086,9.596,0.615,14.663,1.511c5.13,0.907,8.357,4.901,11.158,8.934c3.504,5.046,8.156,8.986,12.885,12.833
		c3.719,3.024,5.914,7.383,9.195,10.809c3.921,4.092,9.777,5.725,14.77,8.066c4.092,1.918,7.521,3.483,11.23,0.318
		c3.652-3.117,9.823,4.184,13.882,4.665c5.143,0.609,10.319-1.605,15.523-1.543c5.925,0.07,11.875,0.618,17.782,1.045
		c13.622,0.985,26.401,0.292,39.957-0.992c13.58-1.287,27.01-2.406,40.458-4.789c5.021-0.89,33.358-7.896,29.144,3.645
		c-2.33,6.389-6.417,11.134-13.021,13.435c-13.057,4.541-28.598,7.289-42.291,9.179c-16.438,2.269-33.176,5.012-49.789,5.326
		c-15.57,0.295-30.937,5.131-46.208,8.051C366.802,585.116,351.598,585.751,342.76,577.615
		C335.947,571.344,346.389,580.956,342.76,577.615z M445.063,195.901c0.281-0.324,0.563-0.648,0.848-0.973
		c-5.055-10.129-16.553-15.013-26.579-18.76c-4.9-1.832-10.069-3.622-14.07-7.126c-3.058-2.679-6.468-12.375-11.013-5.86
		c-1.46,2.093-3.742,3.354-5.688,4.92c-3.322,2.672-2.433,4.618-2.41,8.388c0.008,1.777-0.945,2.973-2.727,2.861
		c-3.471-0.217-6.971-0.457-10.374-1.12c-3.053-0.596-3.718-2.032-3.15-5.061c0.523-2.806,0.809-5.746,2.423-8.204
		c1.399-2.129,3.199-3,2.567-5.879c-1.255-5.713-5.167-9.956-9.812-13.252c-2.719-1.931-5.467-2.581-8.445-1.621
		c-3.815,1.232-7.299,3.093-9.822,6.471c-3.812,5.1-2.582,10.617,3.296,12.933c7.329,2.89,11.977,1.168,16.088,9.163
		c1.344,2.606,1.06,3.851-1.73,4.339c-7.146,1.25-13.289,6.285-19.795,9.227c-4.283,1.937-16.1,3.757-18.637,7.555
		c-2.423,3.626,1.993,8.107-2.188,11.551c-2.279,1.878-3.712,4.551-5.891,6.53c-2.187,1.987-5.109,2.096-7.464,3.685
		c-4.27,2.881-2.647,9.27-8.198,11.756c-5.807,2.602-8.93,6.419-14.126,9.834c-5.301,3.484-11.303,5.788-16.439,9.535
		c-2.614,1.906-4.928,4.198-6.709,6.909c-2.733,4.158-0.829,6.412,0.092,10.635c0.402,1.858-0.381,3.377-2,4.177
		c-3.115,1.539-6.278,3.021-9.543,4.198c-1.057,0.382-2.916,0.161-3.623-0.557c-0.728-0.737-0.894-2.53-0.584-3.664
		c0.471-1.727,1.57-3.281,2.388-4.916c1.731-3.462,1.39-4.255-2.252-5.16c-2.658-0.657-6.782-0.376-7.104-4.075
		c-0.217-2.482,1.457-4.185,3.645-4.785c1.663-0.456,7.424,0.496,8.207-1.554c0.242-0.636-0.139-1.593-0.455-2.321
		c-0.887-2.026-4.051-1.808-5.146-4.218c-1.705-3.75-3.706-5.377-6.506-8.37c-2.991-3.196-6.447-14.593-11.76-12.45
		c-1.324,0.534-2.716,1.441-3.545,2.571c-8.027,10.938-8.737,23.374-9.132,36.454c-0.476,15.747,0.396,31.57,0.527,47.322
		c0.056,6.722-0.516,13.285-0.716,19.975c-0.225,7.552-1.897,13.67-3.272,21.009c-1.225,6.539-3.583,13.972-1.088,20.467
		c1.389,3.617,2.445,6.401,1.923,10.366c-0.356,2.706-0.379,6.947,2.984,8.037c2.158,0.7,4.092,0.126,5.225-2.572
		c2.099-5.006,1.082-10.332,1.169-15.571c0.098-5.825,2.763-11.306,5.602-16.252c2.574-4.484,6.243-7.652,8.999-11.873
		c2.344-3.589-1.246-7.321,0.727-10.593c1.883-3.123,7.387-5.472,9.954-8.466c3.133-3.654,5.769-7.696,8.495-11.653
		c6.603-9.585,14.901-17.005,23.839-24.3c4.479-3.655,6.743-8.753,10.178-13.256c3.554-4.659,8.675-7.705,13.071-11.466
		c6.741-5.768,14.659-13.242,23.116-16.382c4.705-1.747,7.71,0.75,12.164,1.513c4.188,0.717,9.032-1.553,13.183-2.049
		c5.5-0.657,7.986,2.311,12.958,3.226c3.574,0.658,12.401-3.046,10.886-7.944c-0.748-2.41-5.958,0.084-7.607-0.415
		c-4.208-1.273-7.505-4.514-11.881-5.381c-4.349-0.863-7.151-3.007-9.01-7.006c-2.202-4.734-4.444-4.595-9.308-4.982
		c-2.564-0.205-3.685-1.268-3.407-3.85c0.279-2.632,0.84-5.278,1.672-7.789c0.369-1.116,1.541-2.217,2.631-2.799
		c6.189-3.313,12.895-1.05,19.034-3.977c8.349-3.98,8.16,10.798,16.853,7.126c1.61-0.68,1.429-2.451,1.034-3.973
		c-0.166-0.643-0.519-1.248-0.617-1.896c-0.396-2.575,0.667-3.794,3.305-3.591c11.743,0.912,12.925,8.949,17.445,18.421
		c1.429,2.988,5.643,4.768,9.48,4.149c3.277-0.529,2.906-4.415,3.996-6.713c2.155-4.545,6.619,4.288,7.364,5.509
		c3.103,5.089,6.114,10.249,9.631,15.07c3.59,4.922,8.664,6.742,12.883,10.872c3.553,3.478,6.919,6.078,10.85,9.009
		c4.445,3.314,4.846,10.792,6.96,15.565c5.184,11.693,7.588,23.812,4.517,36.436c-2.297,9.442-14.12,21.149-10.324,31.233
		c1.396,3.708,4.917,6.217,7.466,9.086c4.282,4.819,5.317,11.21,7.286,17.124c3.204,9.62,12.719,14.611,15.75,24.553
		c1.943,6.374,6.396,20.33-4.535,19.911c-4.436-0.175-8.563-0.492-12.647,1.729c-5.494,2.987-7.456,2.571-12.592-0.838
		c-8.005-5.313-17.595-5.88-26.873-6.69c-10.729-0.938-21.15-1.776-31.938-1.093c-8.131,0.514-21.739-1.027-25.144,8.501
		c-1.858,5.19-1.079,8.578,3.965,10.795c5.714,2.511,51.356,23.923,54.322,16.439c0.345-0.866-0.297-2.631-1.092-3.325
		c-4.144-3.637-20.012-6.412-17.815-14.135c0.513-1.798,2.771-2.956,5.42-2.584c5.665,0.799,10.686,3.869,15.84,6.13
		c5.713,2.506,11.885,3.489,17.993,4.542c4.677,0.807,12.4,0.927,16,4.433c2.91,2.834,3.224,7.498,5.873,10.643
		c7.34,8.713,16.311,9.715,27.034,8.762c8.435-0.749,18.547,0.958,23.653-7.446c2.374-3.899,3.69-8.503,7.766-11.065
		c3.911-2.459,5.448-4.331,8.117-8.016c2.177-3.005,6.513-3.141,9.305-5.444c5.271-4.347,6.868-6.458,14.015-6.154
		c5.463,0.232,9.881-3.415,14.794-5.165c4.879-1.738,9.604-3.878,14.099-6.453c7.985-4.574,21.883-11.26,15.53-22.153
		c-0.249-0.429-0.628-0.776-0.922-1.181c-2.529-3.466-1.89-8.555,0.72-11.782c2.545-3.148,7.072-3.184,9.581-6.134
		c4.064-4.778-0.265-22.569-7.172-23.446c-6.167-0.783-9.934,12.475-13.351,16.253c-8.388,9.277-17.822,15.039-29.377,19.609
		c-10.547,4.167-22.885,1.197-33.236-2.113c-10.779-3.447-18.917-6.673-24.067-17.322c-1.78-3.68,0.376-6.866,1.145-10.435
		c0.892-4.143-2.169-8.114-3.923-11.649c-2.135-4.304-5.191-7.251-7.925-11.084c-2.316-3.247-3.289-7.179-4.694-10.855
		c-3.58-9.376-0.552-20.202,2.558-29.264c1.283-3.74,2.547-10.446,5.523-13.22c4.444-4.142,11.461-1.027,16.237-4.971
		c7.807-6.447,14.243-10.708,23.976-14.191c10.188-3.646,16.104-3.231,26.05,1.3c9.126,4.159,19.635,6.315,27.677,12.541
		c8.509,6.588,10.765,20.596,19.555,25.622c0.531-0.941,1.548-1.898,1.519-2.822c-0.46-13.997-7.271-26.956-7.341-40.994
		c-0.069-13.939-1.838-27.875-4.394-41.561c-5.049-27.037-10.083-53.963-26.353-76.636c-7.457-10.392-18.236-14.298-30.972-12.106
		c-6.712,1.155-12.7,4.509-19.156,6.52c-6.646,2.069-13.502,3.594-19.853,6.511c-11.092,5.094-21.624,13.051-34.061,15.084
		c-6.472,1.059-13.039-0.126-19.332-1.653c-7.371-1.788-11.86-0.391-17.563,4.543c-2.655,2.295-2.236,4.558,0.666,6.517
		c8.989,6.063,21.903,6.28,32.282,8.139c14.521,2.6,28.583,2.551,42.824-1.461c24.813-6.99,52.007-16.383,68.746,9.992
		c2.424,3.816-0.146,10.432-0.416,14.81c-0.505,8.22-9.782-1.364-12.146-3.374c-5.068-4.302-16.792-1-22.946-0.922
		c-10.28,0.13-21.235,3.792-30.692,7.595c-19.441,7.818-40.914,3.58-57.21-9.161c-1.947-1.523-1.985-2.869-0.217-4.591
		c3.708-3.612,10.016-2.104,14.645-3.374c-9.859-4.434-20.295-7.02-30.698-9.805c-2.016-0.54-29.823-5.635-25.517,2.987
		c1.932,3.868,7.964,1.984,11.273,2.224c5.556,0.402,12.359,2.76,17.094,5.707c4.644,2.89,22.638,21.481,18.837,27.119
		c-3.205,4.76-9.122-1.666-13.248-0.053c1.077,3.456,5.008,10.693,1.448,13.77c-1.446,1.25-4.102,0.877-6.49-0.743
		c-6.631-4.502-10.492-12.216-17.349-16.375c-2.752-1.669-18.25-3.214-12.213-10.551
		C418.258,180.429,440.224,193.652,445.063,195.901c0.162-0.187-1.592-0.918-1.79-0.962
		C443.732,195.448,444.329,195.769,445.063,195.901C445.345,195.577,440.732,193.889,445.063,195.901z M245.688,130.309
		c1.664,2.074,6.073,5.83,5.182,8.958c-0.971,3.379-15.732,1.374-18.246,1.252c-7.669-0.371-17.425,1.553-20.483-7.705
		c-0.104-0.312-0.232-0.791-0.453-0.858c-0.844-0.26-1.989-0.802-2.541-0.461c-0.902,0.559-1.752,1.63-2.057,2.653
		c-1.699,5.73,1.702,12.621,7.334,14.772c3.713,1.418,7.788,1.192,11.472,2.571c4.643,1.737,8.165,4.662,13.125,1.934
		c4.552-2.504,23.17-12.571,23.734-2.06c0.149,2.789-0.278,5.621-0.575,8.42c-0.486,4.562-2.636,4.642-6.803,5.364
		c-4.847,0.839-12.287,5.964-15.012,10.037c-1.728,2.581-5.218,1.422-5.978-1.644c-0.316-1.285-0.355-2.637-0.533-3.958
		c-0.644-4.761-5.69-9.885-10.452-10.614c-2.858-0.439-4.858,1.073-5.222,3.977c-0.528,4.231,3.215,6.13,5.961,8.484
		c6.956,5.963,4.983,15.648,6.092,23.797c0.681,5.005,3.062,24.776,11.365,21.239c2.317-0.987,3.978-3.076,6.734-2.871
		c3.268,0.243,6.526,3.136,9.347,4.581c8,4.097,13.409-0.212,20.684-3.979c7.579-3.924,15.694-7.792,24.205-4.468
		c7.519,2.937,8.784-10.513-0.134-11.391c-6.544-0.641-12.956,1.042-17.961,4.966c-3.39,2.658-18.192,8.044-21.833,4.668
		c-2.717-2.52-3.042-6.738-4.897-9.797c-2.219-3.658-5.198-2.567-8.588-3.779c-3.689-1.319-1.527-5.464,1.207-6.305
		c5.541-1.704,7.637-2.427,9.996-8.136c2.66-6.432,4.302-1.908,9.236-2.675c1.783-6.348-1.695-11.436,6.11-14.506
		c10.093-3.973,23.464,1.995,33.985,1.288c6.065-0.408,17.404-5.83,19.808-11.838c0.423-1.055,0.289-2.739-0.312-3.661
		c-0.423-0.642-2.204-0.888-3.153-0.591c-7.636,2.404-16.82,9.654-25.089,8.852c-2.699-0.262-4.148-2.587-5.779-4.429
		c-2.828-3.193-5.724-1.089-8.606-2.852c-1.006-0.615-2.039-1.711-2.312-2.79c-0.146-0.575,1.159-1.793,2.049-2.274
		c5.979-3.223,13.267,0.035,19.526-2.209c1.628-0.583,15.609-6.774,13.665-9.11c-0.637-0.76-1.9-1.431-2.859-1.373
		c-8.072,0.489-14.016,4.664-22.563,4.05c-3.751-0.269-20.585,0.367-20.272-5.35c0.121-2.182,1.604-3.695,3.821-4.003
		c5.513-0.765,11.075-1.172,16.553-2.186c-0.351-2.148-4.839-6.864-3.892-8.799c1.459-2.979,8.022-1.098,9.916-6.004
		c0.763-1.978,0.029-2.969-2.021-2.679c-1.972,0.278-3.893,0.98-5.867,1.166c-7.457,0.703-9.139-5.087-10.594-10.72
		c-1.087-4.206-11.369-14.232-5.722-18.2c5.236-3.675,11.273-5.429,17.691-5.756c3.268,1.596,6.876,2.357,10.108,4.034
		c4.638,2.406,5.015,5.865,7.075,10.139c1.306,2.72,3.665,3.775,6.479,3.89c3.796,0.155,5.063-1.32,4.592-5.114
		c-0.062-0.494-0.229-0.978-0.271-1.473c-0.295-3.453,0.83-4.463,4.398-3.859c4.987,0.84,10.154,1.331,14.769,3.565
		c5.087,2.462,6.219,2.205,11.062-0.481c4.565-2.532,11.029-0.342,16.021-0.327c6.86,0.02,13.714-0.659,20.494-1.667
		c11.989-1.783,23.603-4.357,34.692-9.35c3.945-1.777,9.544-0.95,12.97-3.14c3.727-2.382,5.184-8.8-0.612-8.982
		c-9.143-0.291-18.262,0.719-27.195,2.638c-8.944,1.921-19.052,7.405-28.065,7.803c-7.252,0.32-16.598-0.616-23.437-2.876
		c-4.131-1.367-8.709-0.596-12.598-2.819c-3.713-2.122-7.054-4.822-10.751-6.969c-8.465-4.922-12.13,1.621-19.528,4.005
		c-4.245,1.368-6.157-2.466-8.862-4.831c-3.514-3.072-8.255-3.022-12.649-3.399c-3.52-0.304-7.474-0.132-10.013,2.703
		c-2.135,2.384-2.391,6.068-4.973,8.111c-3.338,2.641-10.135,3.068-14.199,4.087c-4.426,1.111-7.319-1.857-10.205-4.755
		c-2.974-2.985-4.856-3.006-8.783,0.386c6.417,3.918,1.574,13.871,3.855,19.928c1.365,3.625,3.422,7.016,3.95,10.916
		c0.465,3.445,0.694,7.23,4.75,8.174c2.599,0.604,6.083,0.953,8.073,2.953c3.045,3.062-1.802,8.601-2.138,11.948
		C261.86,126.76,251.871,126.67,245.688,130.309C247.342,132.371,249.607,128.002,245.688,130.309
		C247.342,132.371,249.607,128.002,245.688,130.309z M434.654,113.276c-0.653,1.895-1.636,3.694-1.847,5.581
		c-0.387,3.445,2.419,5.301,5.521,3.792c2.5-1.218,9.349-8.384,12.015-3.85c1.671,2.84-0.219,5.604-1.054,8.262
		c-0.457,1.459-0.662,2.949,0.839,4.071c1.446,1.079,3.087,1.679,4.6,0.557c6.016-4.482,5.582-12.8,10.4-18.063
		c4.083-4.46,13.557-5.615,15.982-11.191c1.023-2.354,0.691-5.017,1.653-7.387c1.43-3.525,6.458-5.419,9.54-7.174
		c8.338-4.748,16.934-7.609,26.63-7.17c6.411,0.29,18.947-0.379,24.037,4.142c2.75,2.443,5.442,2.475,8.363,0.286
		c3.618-2.711,7.268-1.66,11.319-0.897c7.832,1.474,14.05-1.464,20.561,4.904c3.338,3.265,8.206,15.59,14.22,13.08
		c4.551-1.901,0.196-17.023-1.628-20.284c-1.623-2.901-4.738-6.321-8.438-5.76c-5.475,0.83-5.985,0.173-9.273-4.243
		c-5.372-7.206-11.724-8.062-20.048-6.731c-9.07,1.449-18.765,0.181-27.559,3.066c-7.395,2.427-14.081,5.975-21.73,7.825
		c-4.438,1.073-8.92,1.953-13.382,2.915c-2.612,0.563-8.681,3.305-11.215,2.014c-1.446-0.737-1.905-3.653-3.009-4.84
		c-1.406-1.514-4.496-2.079-6.378-2.601c-7.158-1.988-13.039,0.911-19.802,3.582c-7.531,2.975-14.543,7.708-21.389,12.011
		c-2.826,1.776-17.427,12.022-7.356,14.296c8.799,1.979,14.084-11.516,23.241-6.199c1.213,0.704,1.827,1.715,1.064,2.861
		c-2.135,3.207-4.81,5.931-7.935,8.177c-1.014,0.729-7.706,5.596-7.929,5.54c0.448,0.112,1.122-1.023,0.989-1.023
		C435.324,112.973,434.989,113.125,434.654,113.276C434.001,115.171,437.436,111.62,434.654,113.276z M528.932,302.441
		c-3.841,4.836-7.4,8.631-6.264,15.223c1.618,9.377,8.44,15.191,14.295,22.063c2.934,3.444,6.415,7.64,5.469,12.497
		c-0.884,4.542-3.376,7.358,2.65,8.763c12.888,3.027,21.793-4.476,32.408-10.027c4.765-2.492,9.732-4.662,14.13-7.796
		c3.947-2.811-0.372-10.369,0.452-14.848c0.724-3.93-0.429-4.675-4.27-3.751c-8.88,2.137-17.832,3.799-27.021,3.906
		c-3.037,0.035-5.36-1.15-6.35-3.849c-2.942-8.031-0.695-38.118-15.543-31.303C534.482,295.344,531.527,298.866,528.932,302.441
		C527.635,304.074,531.527,298.866,528.932,302.441C527.635,304.074,531.527,298.866,528.932,302.441z M394.172,112.267
		c-6.093-5.375-15.064-3.928-22.499-4.966c-2.795-0.391-7.979-3.563-10.555-1.837c-3.08,2.064-4.336,6.416-7.889,8.683
		c-2.476,1.579-2.581,3.231-1.214,5.983c1.93,3.891,3.249,9.551,8.392,9.993c6.858,0.589,12.428,0.82,18.919,3.61
		c4.968,2.134,8.065,6.712,12.331,9.821c3.504,2.554,13.376,8.572,17.529,5.036c1.46-1.246,0.816-3.104-0.062-4.582
		c-3.252-5.466-5.628-8.262-4.659-14.861C405.475,122.275,398.259,116.974,394.172,112.267
		C391.013,109.479,397.199,115.753,394.172,112.267C386.464,105.467,397.199,115.753,394.172,112.267z M524.811,289.878
		c6.61,0.631,13.584-8.193,19.007-11.205c8.536-4.743,15.516-6.843,25.136-4.147c7.574,2.123,15.867,3.783,19.957,11.28
		c0.984,1.805,13.167,21.793,14.066,12.074c0.898-9.802-7.494-19.85-14.452-25.688c-8.81-7.391-20.733-10.726-32.019-7.972
		C546.11,266.755,525.122,276.69,524.811,289.878c1.101,0.105,1.709-1.197,0.812-1.857
		C524.765,288.128,524.494,288.747,524.811,289.878C529.948,290.368,524.916,285.409,524.811,289.878z M312.124,176.728
		c-2.672,3.187-2.976,5.021-1.619,6.968c1.685,2.417,4.076,3.067,7.027,1.784c3.258-1.413,24.244-15.994,16.428-18.513
		c-7.954-2.561-17.911,5.693-22.892,11.064C311.405,177.668,311.747,177.008,312.124,176.728
		C309.452,179.915,312.465,176.475,312.124,176.728z M243.346,128.778c-2.182-5.627-5.097-10.741-7.483-16.24
		c-1.47-3.385-0.216-10.526-5.535-11.114c-2.031-0.226-2.619,1.743-2.616,3.503C227.731,116.682,230.057,126.122,243.346,128.778
		C241.866,124.963,236.775,127.465,243.346,128.778C241.757,124.682,236.775,127.465,243.346,128.778z M399.663,41.944
		c-0.348-0.158-1.09-0.783-1.833-0.785c-4.415-0.009-8.479,1.442-12.243,3.594c-0.662,0.379-0.907,2.125-0.727,3.128
		c0.129,0.719,1.308,1.803,1.982,1.78c4.123-0.146,8.319-0.164,12.325-1.011C402.555,47.934,402.826,44.478,399.663,41.944
		C399.315,41.786,402.826,44.478,399.663,41.944C399.315,41.786,402.826,44.478,399.663,41.944z M576.456,285.946
		c-2.138-1.374-3.452-1.236-5.029,0.522c-2.223,2.48-1.563,8.309,1.147,10.472c1.27,1.013,2.428,1.099,3.94,0.212
		C579.378,295.477,580.257,287.709,576.456,285.946C574.318,284.573,580.257,287.709,576.456,285.946
		C574.318,284.573,580.257,287.709,576.456,285.946z M373.564,285.447c-1.139,0.215-2.281,0.238-3.007,0.607
		c-1.688,0.861-2.317,2.136-1.851,3.483c0.764,2.2,1.646,4.388,2.699,6.537c0.283,0.577,1.369,0.986,2.088,1.473
		c0.64-0.584,1.795-1.154,1.83-1.752c0.235-3.929,0.194-4.021-0.113-8.035C375.16,287.086,374.3,286.441,373.564,285.447
		C372.425,285.662,374.3,286.441,373.564,285.447C372.425,285.662,374.3,286.441,373.564,285.447z"/>
</g>
<g id="Layer_2">
	<path id="sadface" fill="#D0B600" d="M592.824,39.551c-0.469,3.583-0.066,6.95,2.526,9.632c2.472,2.556,7.024,4.264,6.641,8.471
		c-0.924,10.105,0.132,20.782,9.738,27.236c5.189,3.482,11.326,3.955,13.487,10.514c2.482,7.516,3.498,15.421,3.552,23.372
		c0.083,11.576-8.71,21.102-15.76,29.341c-3.531,4.126-6.939,7.934-6.126,13.763c1.081,7.751,4.339,15.278,5.717,23.034
		c1.173,6.604,1.547,12.869,4.604,18.98c2.768,5.532,7.482,10.475,8.894,16.588c1.423,6.162,0.168,12.56-0.139,18.769
		c-0.37,7.506,1.929,14.733,2.17,22.23c0.439,13.684-1.333,27.551-2.44,41.173c-1.273,15.668-0.368,31.154-1.052,46.792
		c-0.303,6.926-2.75,13.479-3.044,20.337c-0.284,6.617,1.324,13.152,2.918,19.519c3.413,13.641,6.894,27.937,7.6,42.021
		c1.555,30.98,0.661,63.586-3.281,94.343c-3.989,31.13-5.864,62.217-9.151,93.375c-0.76,7.205-1.53,14.555-3.11,21.636
		c-1.358,6.085-4.274,11.284-5.03,17.527c-1.896,15.652-2.669,31.445-2.539,47.208c0.121,14.778,1.628,24.985-8.115,37.115
		c-9.118,11.353-19.042,16.062-32.795,19.545c-11.053,2.798-13.864,9.526-19.639,18.099c-2.437,3.615-6.538,2.922-10.161,1.797
		c-6.278-1.95-12.374-1.155-18.189,1.949c-8.737,4.668-20.383,2.128-29.88,4.36c-11.323,2.661-22.903,5.011-34.47,2.609
		c-4.802-0.997-10.852-2.901-15.573-0.735c-4.363,2.002-7.863,4.671-12.639,5.897c-12.072,3.1-25.728,4.095-38.158,3.94
		c-5.565-0.068-11.34,0.609-16.812-0.697c-7.034-1.679-12.471-1.308-19.549-1.605c-5.155-0.217-9.832-3.311-14.461-5.249
		c-6.142-2.572-12.457-2.705-19.003-2.164c-5.498,0.453-11.041,1.205-16.557,0.55c-5.335-0.635-10.456-2.473-15.898-1.862
		c-4.576,0.513-8.936,1.915-13.489,0.324c-6.44-2.251-12.214-6.021-18.668-8.32c-8.672-3.088-17.7-8.616-23.336-16.075
		c-6.808-9.008-6.748-24.817-7.899-35.651c-2.744-25.825-2.796-51.847-4.621-77.737c-0.449-6.37-8.135-66.943-14.965-64.949
		c-6.14,1.787-20.728,34.313-27.456,14.778c-4.117-11.974-0.545-25.164,0.153-37.388c0.932-16.304,1.462-32.617,0.584-48.936
		c-1.646-30.603-7.926-60.716-10.115-91.21c-0.959-13.365,4.445-22.6,10.068-34.135c6.55-13.436,3.992-28.343,2.942-42.705
		c-1.025-14.026-4.904-27.076-6.604-40.936c-1.881-15.342-2.771-31.49-2.555-46.944c0.206-14.634,3.249-28.994,6.722-43.151
		c3.833-15.626,6.196-30.687,8.645-46.494c1.049-6.775,3.308-13.301,4.219-20.102c0.881-6.583-1.341-12.974-1.844-19.486
		c-1.178-15.254-1.806-30.47,1.567-45.431c4.722-20.944,3.324-37.621,22.885-49.747c8.322-5.159,29.732-17.257,39.514-15.151
		c5.995,1.291,11.407,2.513,17.605,1.851c6.383-0.682,13.104-5.036,19.338-4.77c7.973,0.34,12.656,8.872,20.191,10.608
		c12.536,2.889,25.997,2.325,38.788,3.068c12.662,0.735,22.805-1.211,34.265-6.453c11.506-5.264,20.612-1.713,31.808,2.74
		c10.409,4.141,21.209,8.544,32.627,8.12c4.999-0.186,9.911-2.417,14.885-2.039c5.502,0.419,10.428,3.22,16.016,3.458
		c12.065,0.514,23.972-5.747,35.793-7.659c5.366-0.869,10.997-1.867,16.373-0.607c5.245,1.229,9.578,2.376,14.509-0.622
		c9.559-5.826,14.59,4.609,23.613,4.995c4.379,0.188,8.589-1.628,12.419-3.534C584.988,32.302,588.906,35.927,592.824,39.551
		C592.036,45.57,588.907,35.928,592.824,39.551C591.797,47.4,588.907,35.928,592.824,39.551z M352.835,743.935
		c3.221,5.122,8.675,11.899,14.979,12.386c6.762,0.521,13.722,4.052,20.187,0.43c7.422-4.158,9.885-4.11,18.276-2.19
		c9.049,2.07,16.63,1.464,25.416-1.148c8.341-2.479,17.043-3.006,25.643-3.974c8.163-0.92,16.183-4.291,24.501-3.571
		c8.291,0.718,15.9,3.692,24.394,3.419c3.988-0.128,8.004-1.433,11.958-1.354c3.539,0.071,4.643,2.698,7.172,4.547
		c3.267,2.39,4.838,2.017,7.414-1.545c4.554-6.3,10.955-10.863,16.157-16.567c5.688-6.237,8.378-15.872,10.296-23.895
		c0.533-2.229,1.167-19.34,6.751-13.832c1.555,1.533,3.026,5.787,5.891,5.295c3.024-0.521,5.841-3.702,8.734-4.89
		c14.116-5.793,14.276-19.082,14.775-32.891c0.3-8.28,0.945-16.513,1.633-24.771c0.354-4.252,4.199-24.25,0.913-25.844
		c-6.061,9.694-6.503,20.319-7.716,31.538c-0.961,8.89-0.125,23.239-5.231,31.029c-0.972,1.483-2.546,2.97-3.976,3.219
		c-5.732,1.004-9.63-5.62-7.48-12.401c2.007-6.317,4.286-12.458,4.048-19.201c-0.231-6.519-1.368-13.019-0.857-19.554
		c0.55-7.036,1.376-26.175-10.543-25.235c-5.221,0.41-10.555-4.119-15.672-1.533c-6.314,3.192-12.838,5.965-19.502,8.342
		c-14.385,5.132-29.382,8.406-44.513,10.372c-29.306,3.806-59.421,5.703-87.845-3.005c-12.686-3.887-24.477-8.587-36.621-13.863
		c-11.777-5.116-24.617-4.31-34.896,3.511c-4.383,3.335-7.084,7.573-9.688,12.333c-3.844,7.027-4.881,0.656-9.627,0.799
		c-5.78,0.175-5.998,17.896-6.205,21.599c-0.376,6.711,1.512,13.5,0.643,20.132c-0.742,5.663-2.087,12.282-3.808,17.716
		c-4.334,13.689-18.505,3.855-18.932-6.567c-0.264-6.419,2.776-12.38,3.087-18.741c0.324-6.636-1.412-13.325-2.406-19.841
		c-2.456-16.104-4.305-32.066-3.425-48.389c0.244-4.52-0.725-12.689,3.532-15.741c3.06-2.192,7.196-2.229,10.673-3.358
		c4.35-1.413,6.399-5.578,9.787-8.38c4.451-3.682,9.835-5.721,15.428-6.929c11.791-2.547,25.315,0.593,36.833,3.532
		c13.364,3.41,22.502,13.351,37.044,13.091c17.267-0.308,34.744,5.332,51.839,7.641c18.027,2.435,36.719,3.24,54.801,0.843
		c18.731-2.483,33.21-10.521,48.655-20.862c11.753-7.868,25.721-19.536,40.083-13.175c6.383,2.827,12.223,8.085,14.54,14.828
		c0.776,2.259,2.232,20.927,5.977,19.512c6.044-2.283,2.459-12.166,1.951-15.988c-1.327-9.985,1.944-18.339,4.447-27.77
		c4.059-15.296,6.971-39.619,0.197-54.561c-4.922-10.858-19.945-9.842-29.115-5.911c-13.958,5.982-27.812,12.638-40.326,21.316
		c-10.316,7.155-12.762,21.972-23.292,28.199c-6.811,4.028-15.436,5.871-22.747,8.92c-7.127,2.972-13.47,7.447-20.582,10.405
		c-13.875,5.771-32.718,1.873-45.512-5.053c-12.176-6.591-23.722-14.929-35.46-22.297c-5.957-3.739-12.444-6.542-17.844-11.092
		c-4.515-3.805-8.236-8.403-12.709-12.133c-9.384-7.826-26.886-4.413-38.411-6.118c-5.517-0.816-9.016-4.713-14.909-4.802
		c-5.973-0.09-11.456,0.034-15.28,5.303c-2.356,3.249-3.353,7.228-5.679,10.489c-2.122,2.976-4.315,4.643-5.428,8.293
		c-2.036,6.676-2.33,14.062-3.237,20.952c-1.199,9.107-5.418,16.081-8.453,24.562c-1.306,3.649-2.61,20.124-8.029,19.735
		c-0.573-0.041-1.499-1.817-1.529-2.844c-0.39-13.598,1.458-25.716,3.106-39.103c1.774-14.414,0.824-29.01,2.786-43.449
		c1.54-11.335-1.112-21.957,4.404-32.471c4.919-9.377,12.201-16.841,22.305-20.229c13.666-4.581,27.869-7.364,42.178-8.951
		c7.206-0.799,14.441-1.303,21.684-1.608c6.165-0.26,11.912-3.833,17.752-5.532c22.868-6.65,47.81-14.23,57.052-38.437
		c1.284-3.368,1.628-6.917-0.996-9.846c-2.598-2.897-5.452-3.961-8.753-2.2c-7.618,4.062-20.836,28.396-31.918,17.39
		c-3.557-3.533-3.418-9.825-4.623-14.373c-1.059-3.997-10.398-11.445-5.788-14.503c5.266-3.49,13.096-14.613,13.605-20.84
		c0.2-2.444-3.274-23.586,3.7-18.706c0.818,0.573,1.312,1.846,2.055,2.653c1.264,1.373,2.64,1.71,4.057,0.275
		c2.247-2.276,5.72-14.511,5.102-18c-2.862-16.05-13.159-26.834-26.227-35.515c-11.604-7.702-24.08-0.651-35.982,1.221
		c-7.115,1.119-13.275-2.065-20.54,0.26c-4.86,1.555-15.572,3.379-16.814,9.235c-0.525,2.477-0.24,3.995,2.064,4.509
		c10.921,2.426,21.97-0.295,32.899-1.121c9.032-0.683,16.718-1.061,25.759-0.597c19.521,1,19.702,24.061,16.94,38.843
		c-1.706,9.129-5.575,16.678-10.249,24.602c-4.564,7.737-2.928,17.732-8.24,25.154c-8.174,11.422-32.934,7.921-37.716-4.995
		c-5.357-14.471,6.847-29.688,7.723-44.061c0.473-7.76,2.099-31.207-12.279-26.667c-5.653,1.785-12.439,10.811-14.986,15.78
		c-4.264,8.319-9.538,11.783-6.926,22.003c2.069,8.096,9.293,12.634,12.475,20.151c1.213,2.866,15.647,18.985,4.963,19.122
		c-7.73,0.099-11.337-10.36-14.821-15.713c-1.496-2.298-11.299-17.61-14.841-12.659c-0.786,1.101-0.247,3.824-0.141,5.801
		c0.406,7.162,8.133,13.764,12.446,18.856c7.796,9.207,10.817,14.304,23.423,16.056c9.87,1.372,19.657,2.695,29.571,3.579
		c2.765,0.246,20.214,5.076,10.307,9.396c-9.213,4-21.224,3.311-31.07,3.172c-10.396-0.146-21.56-0.614-30.71-6.071
		c-13.158-7.847-29.208-36.637-44.131-15.81c-5.817,8.119-10.625,17.044-13.597,26.604c-3.137,10.091-2.603,19.674-3.221,30.032
		c-0.63,10.578-2.347,20.934-2.386,31.566c-0.019,5.187,2.632,24.239-3.729,26.526c-3.927,1.413-12.242-14.04-13.577-17.026
		c-1.151-2.575,2.241-17.519-5.66-13.201c-0.912,0.502-1.81,2.648-1.78,4.031c0.308,14.209,4.404,28.034,4.723,42.228
		c0.364,16.181-2.015,29.738,4.816,44.953c2.396,5.337,3.42,11.327,6.67,16.266c2.829,4.298,7.44,6.513,11.127,9.906
		c3.961,3.647,3.951,7.629,4.569,12.638c0.866,7.021,3.987,13.483,5.327,20.398c2.683,13.841,5.74,27.56,8.584,41.381
		c2.873,13.963,3.398,23.723-4.752,35.433c-5.188,7.451-1.791,18.188,2.827,25.235c3.561,5.436,5.999,31.338,18.984,21.084
		c3.509-2.768,7.272-5.049,11.016-7.297c4.299-2.582,10.141,3.363,12.382,6.442c3.484,4.786,6.932,8.194,13.271,6.732
		C329.781,734.716,346.78,734.305,352.835,743.935C354.896,747.212,348.72,737.39,352.835,743.935z M346.168,700.601
		c-12.882,2.147-22.351,2.123-27.031-11.714c-2.55-7.538-4.824-15.492-3.606-23.524c1.187-7.822,6.36-9.613,11.712-14.349
		c8.476-7.501,21.211-16.948,33.152-10.695c6.518,3.413,12.061,8.417,18.672,11.671c6.418,3.158,11.885,1.134,18.475-0.227
		c15.321-3.165,31.748,3.752,47.447,1.618c12.972-1.764,31.274-7.524,44.021-3.249c13.213,4.431,21,13.173,36.035,9.929
		c6.027-1.301,12.312-3.361,18.496-1.879c3.002,0.72,12.654,3.351,11.293,8.088c-2.007,6.979,0.322,14.773-2.824,21.508
		c-3.258,6.973-12.223,15.607-20.312,13.338c-9.973-2.799-18.598-8.028-29.021-9.963c-10.905-2.023-22.013-2.579-33.062-3.243
		c-10.364-0.622-20.65-1.49-31.042-1.594c-12.552-0.126-23.362,1.371-35.664,3.611c-5.021,0.913-9.908-1.994-15.146-1.207
		c-5.052,0.76-9.792,2.792-14.806,3.724c-5.022,0.934-10.823,0.013-15.585,2.041C353.409,696.173,350.581,699.864,346.168,700.601
		C335.772,702.334,351.679,699.682,346.168,700.601z M445.069,204.156c0.281-0.359,0.563-0.717,0.848-1.076
		c-4.952-10.975-16.585-16.562-27.085-20.985c-4.633-1.951-9.45-3.933-13.212-7.372c-3.053-2.791-6.806-13.983-11.365-6.756
		c-4.204,6.663-8.145,6.073-8.098,14.719c0.008,1.965-0.945,3.289-2.727,3.165c-3.471-0.24-6.971-0.506-10.374-1.239
		c-3.053-0.659-3.718-2.247-3.15-5.597c0.777-4.607,5.82-11.393,4.99-15.576c-1.215-6.116-5.002-10.882-9.812-14.657
		c-2.719-2.136-5.467-2.855-8.445-1.793c-3.815,1.362-7.299,3.42-9.822,7.157c-3.812,5.641-2.582,11.743,3.296,14.304
		c4.878,2.127,11.442,0.669,14.095,6.312c0.612,1.303,1.386,2.517,1.993,3.823c1.344,2.882,1.06,4.259-1.73,4.799
		c-7.382,1.429-13.591,7.126-20.208,10.412c-4.05,2.011-18.361,4.864-18.799,9.954c-0.489,5.687,0.903,7.611-2.962,12.462
		c-1.889,2.371-3.503,5.441-6.203,7.021c-2.562,1.499-5.049,0.799-6.847,3.697c-2.644,4.262-1.919,9.438-7.075,12.051
		c-6.347,3.218-9.818,7.928-15.59,11.918c-5.316,3.676-11.334,6.333-16.231,10.61c-6.886,6.014-7.048,10.194-5.442,18.34
		c0.403,2.055-0.38,3.735-2,4.619c-3.115,1.703-6.278,3.342-9.542,4.644c-1.057,0.422-2.916,0.178-3.624-0.616
		c-0.727-0.815-0.893-2.798-0.584-4.053c0.471-1.91,1.57-3.629,2.388-5.437c1.732-3.829,1.389-4.706-2.252-5.708
		c-0.807-0.221-1.627-0.426-2.453-0.517c-2.333-0.252-4.422-1.079-4.652-3.989c-0.216-2.746,1.457-4.629,3.645-5.292
		c1.667-0.505,7.428,0.537,8.207-1.719c0.242-0.703-0.138-1.762-0.455-2.567c-0.965-2.439-4.269-2.172-5.387-5.306
		c-1.373-3.845-3.765-5.65-6.313-8.676c-2.757-3.274-6.587-15.997-11.712-13.711c-1.324,0.591-2.716,1.594-3.545,2.844
		c-8.127,12.25-8.743,26.092-9.132,40.319c-0.479,17.515,0.535,35.062,0.51,52.582c-0.011,8.021-0.927,16.086-0.83,24.074
		c0.093,7.644-1.947,14.045-3.22,21.48c-1.222,7.137-3.457,15.053-1.006,22.148c1.381,4,2.426,7.177,1.919,11.492
		c-0.33,2.804-0.513,7.63,2.986,8.884c2.159,0.773,4.093,0.139,5.225-2.845c2.483-6.55,0.512-13.397,1.386-20.13
		c0.945-7.276,4.259-14.293,8.171-20.423c3.035-4.756,8.51-8.189,7.024-14.474c-1.57-6.64,5.14-8.567,8.91-13.106
		c8.985-10.819,15.444-23.024,24.924-33.629c4.896-5.479,10.708-8.781,14.501-15.337c3.577-6.182,7.51-11.034,12.618-16.023
		c9.597-9.373,18.538-23.189,33.507-23.582c7.743-0.203,15.693-3.061,23.361-2.491c4.076,0.303,7.973,2.274,11.977,3.039
		c2.47,0.471,8.215,1.392,8.218-2.64c0.003-4.528-7.266-1.552-10.284-3.179c-4.708-2.538-12.968-4.657-16.348-8.696
		c-4.867-5.817-2.764-8.685-11.431-9.446c-2.564-0.227-3.685-1.402-3.407-4.258c0.278-2.912,0.84-5.838,1.672-8.615
		c0.369-1.234,1.541-2.452,2.631-3.096c5.002-2.961,8.923-2.672,14.441-2.717c4.556-0.037,7.312-5.701,11.05-0.697
		c2.726,3.654,4.552,9.628,10.396,6.899c1.61-0.752,1.429-2.711,1.034-4.395c-0.166-0.711-0.519-1.38-0.617-2.097
		c-0.396-2.848,0.667-4.196,3.305-3.972c1.812,0.156,3.596,0.716,5.406,0.939c7.442,0.919,9.643,13.882,12.039,19.435
		c1.429,3.305,5.643,5.274,9.48,4.589c4.127-0.737,2.326-5.973,4.489-8.268c2.992-3.176,8.158,9.287,8.986,10.798
		c3.19,5.822,6.368,13.187,11.352,17.721c4.055,3.688,8.121,6.15,11.661,10.462c2.953,3.598,7.718,4.736,10.13,8.721
		c2.418,3.997,3.039,8.771,4.391,13.167c4.088,13.291,8.141,24.734,5.828,38.917c-1.933,11.855-13.383,24.033-11.424,36.085
		c0.864,5.316,5.215,8.215,8.232,12.247c3.448,4.608,4.717,10.273,6.188,15.718c3.028,11.208,12.87,17.634,16.199,28.601
		c1.941,6.4,7.44,23.875-4.189,23.38c-5.82-0.252-9.661,0.229-14.781,3.201c-5.712,3.316-8.543-1.324-13.303-4.062
		c-5.16-2.969-11.011-4.293-16.861-5.04c-4.935-0.631-15.533-3.611-20.128-1.792c-3.891,1.541-3.626,6.106-8.754,7.3
		c-6.369,1.483-10.335,6.065-17.287,6.085c-5.753,0.016-7.43,1.542-9.883,6.465c-1.334,2.677-7.708,9.844-2.929,12.167
		c3.636,1.767,4.011,8.825,7.674,10.522c4.654,2.156,40.821,20.112,43.343,13.07c0.345-0.958-0.297-2.91-1.092-3.678
		c-4.476-4.343-20.01-7.099-17.815-15.634c0.513-1.988,2.771-3.27,5.42-2.857c6.717,1.047,12.307,5.433,18.472,7.967
		c8.911,3.664,18.908,3.938,28.084,6.763c5.93,1.827,5.832,9.35,9.108,13.674c4.771,6.298,11.211,10.739,19.354,9.957
		c5.785-0.555,13.652-4.574,19.451-4.451c12.033,0.251,13.413-28.338,23.554-33.398c3.358-1.677,4.019-5.705,6.124-8.455
		c2.339-3.058,7.056-3.084,9.912-5.957c3.056-3.075,5.497-6.622,10.213-6.871c6.479-0.343,10.154-1.206,16.172-3.819
		c10.376-4.506,18.236-8.364,26.748-15.994c3.326-2.981,6.799-5.856,6.587-10.769c-0.19-4.409-3.693-7.386-4.209-11.638
		c-1.187-9.8,6.767-9.834,11.63-15.342c4.351-4.927,0.318-25.065-6.973-26.09c-6.231-0.876-7.655,9.642-10.093,13.489
		c-5.117,8.078-12.736,15.736-21.013,20.52c-7.711,4.458-16.691,9.114-25.855,7.388c-10.508-1.977-20.961-4.541-30.812-8.772
		c-6.319-2.714-9.555-8.272-12.259-14.457c-1.646-3.763,0.096-7.206,0.973-10.868c1.075-4.491-1.312-8.015-3.047-11.984
		c-3.762-8.608-10.718-13.653-12.573-22.952c-2.031-10.176-2.705-18.236-0.109-28.526c1.732-6.87,3.712-21.358,11.586-23.496
		c1.272-0.346,2.646-0.321,3.974-0.33c6.02-0.04,9.115-4.559,13.034-8.343c3.867-3.734,9.112-5.599,13.899-7.809
		c5.435-2.51,10.553-6.43,16.154-8.455c5.177-1.872,11.157-0.411,16.4,0.42c11.496,1.821,22.166,6.127,29.048,15.977
		c6.421,9.191,7.34,27.135,16.839,33.14c0.531-1.041,1.548-2.099,1.519-3.121c-0.525-17.694-6.854-34.523-7.441-52.382
		c-0.657-19.965-4.266-39.591-8.051-59.153c-3.43-17.729-6.547-36.59-15.299-52.604c-3.313-6.062-6.893-12.574-11.422-17.821
		c-6.578-7.622-16.069-7.378-25.37-8.47c-8.211-0.973-15.609,6.953-22.742,9.787c-5.028,1.998-10.308,3.266-15.331,5.273
		c-5.966,2.383-10.829,6.59-16.713,9.15c-9.028,3.928-17.727,9.645-27.891,8.456c-11.714-1.371-18.993-6.752-28.764,2.598
		c-2.655,2.538-2.236,5.042,0.666,7.208c8.842,6.598,22.515,7.12,33.02,9.146c15.226,2.937,29.545,2.363,44.268-2.472
		c25.05-8.226,50.894-15.548,66.565,11.763c1.939,3.376,0.463,24.962-6.062,18.688c-2.14-2.051-4.346-4.013-6.501-6.039
		c-4.769-4.477-17.292-1.169-23.296-1.011c-10.67,0.28-21.844,4.624-31.481,8.903c-19.069,8.467-40.791,2.569-56.071-10.644
		c-1.947-1.685-1.985-3.173-0.217-5.078c3.633-3.914,9.965-2.312,14.645-3.732c-7.991-3.974-16.429-7.036-25.056-9.305
		c-7.186-1.89-19.631-6.336-26.914-3.638c-2.672,0.995-4.925,3.896-4.245,5.402c1.803,3.996,8.501,2.13,11.83,2.608
		c6.385,0.916,13.974,3.667,18.89,7.956c4.338,3.784,20.041,22.367,16.484,28.202c-3.134,5.148-9.09-1.856-13.248-0.058
		c1.085,3.851,5.083,11.755,1.448,15.23c-1.446,1.382-4.102,0.97-6.49-0.822c-6.346-4.766-9.955-12.189-16.072-17.169
		c-3.14-2.556-19.689-4.277-13.489-12.613c1.503-2.019,3.459-1.704,5.468-0.734C428.188,195.809,436.693,199.852,445.069,204.156
		c0.214-0.273-1.772-0.979-1.788-0.989C443.878,203.497,444.474,203.827,445.069,204.156
		C445.351,203.797,440.738,201.931,445.069,204.156z M245.693,129.981c1.664,2.073,6.074,5.831,5.182,8.958
		c-0.996,3.465-16.44,1.338-19.049,1.213c-7.51-0.359-16.689,1.384-19.68-7.666c-0.104-0.312-0.232-0.791-0.452-0.858
		c-0.845-0.26-1.99-0.802-2.542-0.461c-0.902,0.559-1.752,1.63-2.056,2.653c-1.7,5.73,1.702,12.621,7.334,14.772
		c4.881,1.864,9.965,1.731,14.733,4.051c4.698,2.286,7.695,1.894,12.007-0.843c4.367-2.771,21.091-10.086,21.59-0.764
		c0.149,2.789-0.279,5.621-0.576,8.42c-0.431,4.048-0.797,4.292-4.795,5.031c-5.81,1.074-13.624,5.292-17.02,10.37
		c-1.727,2.581-5.218,1.422-5.977-1.644c-0.317-1.285-0.356-2.637-0.534-3.958c-0.643-4.761-5.69-9.885-10.452-10.614
		c-2.858-0.439-4.858,1.073-5.221,3.977c-0.268,2.145,0.458,3.943,2.073,5.344c1.259,1.09,2.624,2.057,3.888,3.14
		c6.459,5.538,4.974,13.718,5.789,21.316c0.555,5.169,2.981,27.42,11.668,23.72c2.992-1.275,5.072-4.016,8.671-2.359
		c3.336,1.533,6.301,3.756,9.719,5.136c7.973,3.218,16.093-4.14,23.048-7.354c8.316-3.843,12.977-3.022,21.429-1.57
		c6.425,1.104,5.398-11.25-2.032-11.981c-6.846-0.67-12.916,1.258-18.201,5.148c-3.667,2.7-18.664,8.207-22.163,3.868
		c-2.444-3.03-2.588-7.305-5.113-10.282c-2.493-2.94-5.766-1.198-8.587-3.059c-3.407-2.248,0.39-5.52,2.695-6.12
		c5.274-1.374,7.162-2.78,9.294-7.938c2.664-6.444,4.296-1.908,9.236-2.675c1.773-6.314-1.693-11.437,6.11-14.506
		c10.241-4.032,23.53,2.232,34.177,1.272c6.031-0.544,17.211-5.813,19.616-11.822c0.423-1.055,0.289-2.739-0.312-3.661
		c-0.423-0.642-2.204-0.888-3.153-0.591c-7.54,2.374-17.097,9.906-25.272,8.831c-2.974-0.391-4.358-3.26-6.294-5.145
		c-2.576-2.507-5.432-0.6-7.908-2.116c-1.006-0.615-2.04-1.711-2.312-2.79c-0.145-0.575,1.159-1.793,2.049-2.274
		c5.269-2.841,11.647-0.538,17.26-1.588c2.283-0.427,14.49-5.176,15.161-7.167c0.31-0.879,1.085-2.186,0.77-2.565
		c-0.638-0.76-1.9-1.431-2.859-1.373c-8.368,0.507-14.487,4.666-23.366,3.991c-3.659-0.278-19.784,0.442-19.47-5.291
		c0.121-2.182,1.604-3.695,3.821-4.003c5.513-0.765,11.075-1.172,16.553-2.186c-0.237-1.458-5.151-8-3.61-9.12
		c3.506-2.549,7.621-0.464,9.634-5.683c0.763-1.978,0.03-2.969-2.021-2.679c-1.972,0.278-3.893,0.98-5.867,1.166
		c-7.8,0.736-9.024-5.412-10.695-11.083c-1.196-4.059-11.254-13.878-5.621-17.836c5.236-3.675,11.273-5.429,17.69-5.756
		c3.269,1.596,6.876,2.356,10.109,4.034c4.634,2.405,5.022,5.861,7.075,10.139c1.306,2.72,3.665,3.775,6.479,3.89
		c3.796,0.155,5.063-1.32,4.592-5.114c-0.062-0.494-0.229-0.978-0.271-1.473c-0.295-3.453,0.83-4.463,4.397-3.859
		c5.825,0.98,11.938,1.535,17.027,4.834c3.767,2.443,6.612-0.881,9.925-2.306c4.526-1.945,11.566,0.282,16.433,0.221
		c6.675-0.083,13.336-0.792,19.93-1.806c12.677-1.949,24.613-4.945,36.269-10.371c3.637-1.693,8.714,0.262,11.598-2.988
		c2.739-3.088,3.387-7.805-1.786-7.967c-18.456-0.585-36.131,4.445-53.489,10.158c-5.53,1.828-16.706-0.501-22.258-1.774
		c-4.112-0.943-8.396-1.384-12.462-2.414c-5.131-1.3-9.347-5.585-13.837-8.193c-9.12-5.303-12.399,2.822-20.407,4.225
		c-3.817,0.669-5.564-2.936-7.984-5.051c-2.814-2.46-6.109-2.76-9.667-3.117c-9.241-0.926-11.842,0.957-16.316,8.536
		c-2.724,4.614-18.104,8.626-22.376,4.682c-1.22-1.125-2.509-2.179-3.679-3.354c-2.974-2.985-4.857-3.006-8.784,0.386
		c6.344,3.875,1.583,12.556,3.33,18.381c1.014,3.384,2.881,6.431,3.894,9.817c0.819,2.738,0.434,6.11,1.978,8.604
		c2.44,3.941,11.979,1.647,12.414,7.295c0.259,3.366-2.783,6.417-3.124,9.822c-0.388,3.868-1.551,6.245-5.638,6.868
		C252.95,125.71,249.613,127.675,245.693,129.981C247.349,132.043,249.613,127.675,245.693,129.981
		C247.349,132.043,249.613,127.675,245.693,129.981z M434.66,112.949c-0.653,1.895-1.636,3.694-1.847,5.581
		c-0.387,3.445,2.419,5.301,5.521,3.792c2.445-1.19,9.338-8.402,12.015-3.85c0.649,1.104,0.704,2.768,0.509,4.105
		c-0.214,1.43-1.118,2.743-1.562,4.157c-0.457,1.459-0.662,2.949,0.839,4.071c1.446,1.079,3.087,1.679,4.6,0.557
		c6.097-4.539,5.587-13.046,10.607-18.284c4.133-4.312,13.922-5.644,15.973-11.475c0.957-2.72,0.433-5.895,2.259-8.313
		c2.302-3.047,7.429-5.066,10.709-6.839c8.256-4.462,16.744-6.615,26.143-5.992c6.125,0.407,17.636-0.308,22.553,4.059
		c5.347,4.75,10.799-2.435,17.214-1.116c8.184,1.682,15.851-1.281,22.673,5.069c3.472,3.232,8.531,15.945,14.575,13.42
		c1.995-0.833,2.366-2.737,1.489-6.655c-1.433-6.396-0.985-13.025-6.461-17.685c-3.094-2.633-5.467-1.142-8.89-0.925
		c-3.006,0.19-4.039-3.092-5.477-5.022c-4.218-5.658-9.977-8.751-16.86-7.316c-7.403,1.542-14.854,1.464-22.349,2.049
		c-7.593,0.591-13.598,4.202-20.621,6.679c-6.999,2.469-14.326,3.842-21.567,5.38c-5.886,1.25-11.174,4.881-14.391-0.951
		c-5.931-10.752-24.608-2.152-31.804,1.336c-3.82,1.852-36.95,21.497-24.275,24.358c8.793,1.977,14.102-11.506,23.241-6.199
		c1.213,0.704,1.827,1.715,1.064,2.861c-2.857,4.292-11.16,12.714-15.764,13.714C435.191,113.425,437.001,111.555,434.66,112.949
		C434.007,114.844,437.441,111.292,434.66,112.949z M528.938,302.114c-3.815,4.8-7.397,8.646-6.265,15.223
		c1.553,8.994,7.891,14.757,13.623,21.288c2.952,3.363,6.782,7.634,6.263,12.467c-0.513,4.771-4.016,8.044,2.528,9.57
		c12.115,2.82,20.677-3.591,30.622-9.071c5.302-2.921,10.965-5.225,15.916-8.754c4.127-2.938-0.381-10.325,0.452-14.848
		c0.724-3.93-0.429-4.675-4.269-3.751c-7.561,1.819-8.391,12.268-12.371,17.607c-6.17,8.279-17.273,10.034-22.944,0.248
		c-5.523-9.531-2.734-20.797-2.102-31.108c0.472-7.698,0.261-23.391-11.497-17.993C534.488,295.017,531.533,298.539,528.938,302.114
		C527.641,303.747,531.533,298.539,528.938,302.114C527.641,303.747,531.533,298.539,528.938,302.114z M394.178,111.939
		c-5.005-4.415-12.132-4.169-18.371-4.571c-3.605-0.232-14.186-5.091-15.949-0.592c-1.305,3.319-3.766,5.219-6.622,7.042
		c-2.476,1.579-2.581,3.231-1.215,5.983c0.738,1.487,1.516,2.962,2.149,4.494c1.604,3.866,4.023,5.783,8.3,5.503
		c6.371-0.418,13.857,1.437,19.264,4.881c5.565,3.546,19.712,20.177,27.459,13.582c1.46-1.246,0.816-3.104-0.062-4.582
		c-3.906-6.564-4.979-8.802-4.498-16.315C405.009,121.489,397.681,115.973,394.178,111.939
		C391.019,109.152,397.205,115.426,394.178,111.939C386.47,105.14,397.205,115.426,394.178,111.939z M524.816,289.551
		c6.367,0.607,12.398-7.346,17.464-10.324c8.464-4.976,15.922-7.896,25.7-5.296c7.816,2.078,16.728,3.833,20.936,11.548
		c0.973,1.783,13.173,21.753,14.065,12.074c1.179-12.788-12.515-26.462-23.105-31.24c-7.406-3.339-15.36-4.373-23.364-2.42
		C546.037,266.447,525.128,276.349,524.816,289.551c1.101,0.105,1.709-1.197,0.812-1.857
		C524.771,287.801,524.5,288.42,524.816,289.551C529.954,290.041,524.922,285.082,524.816,289.551z M312.13,176.4
		c-2.672,3.187-2.975,5.021-1.619,6.968c1.685,2.417,4.076,3.067,7.027,1.784c3.212-1.395,24.223-16.001,16.428-18.513
		c-7.346-2.365-18.61,5.411-22.915,11.07C311.36,177.304,311.732,176.696,312.13,176.4
		C309.458,179.587,312.471,176.147,312.13,176.4z M243.352,128.451c-2.181-5.626-5.097-10.744-7.483-16.24
		c-1.47-3.385-0.217-10.526-5.535-11.114c-2.031-0.226-2.619,1.743-2.616,3.503C227.736,116.353,230.063,125.795,243.352,128.451
		C241.873,124.636,236.781,127.138,243.352,128.451C241.764,124.355,236.781,127.138,243.352,128.451z M399.669,41.617
		c-0.348-0.158-1.09-0.783-1.833-0.785c-4.415-0.009-8.479,1.442-12.243,3.594c-0.662,0.379-0.907,2.125-0.727,3.128
		c0.129,0.719,1.308,1.803,1.982,1.78c4.123-0.146,8.319-0.164,12.325-1.011C402.561,47.606,402.832,44.15,399.669,41.617
		C399.321,41.458,402.832,44.15,399.669,41.617C399.321,41.458,402.832,44.15,399.669,41.617z M573.459,290.808
		c-2.138-1.646-3.452-1.482-5.029,0.626c-2.223,2.972-1.563,9.955,1.147,12.547c1.27,1.214,2.428,1.316,3.94,0.254
		C576.381,302.228,577.26,292.92,573.459,290.808C571.321,289.162,577.26,292.92,573.459,290.808
		C571.321,289.162,577.26,292.92,573.459,290.808z M375.715,289.877c-1.585,0.095-3.089-0.197-4.206,0.329
		c-2.6,1.229-4.001,3.601-4.002,6.442c-0.001,4.642,0.157,9.296,0.559,13.917c0.108,1.243,1.342,2.385,2.059,3.574
		c1.102-0.981,2.872-1.785,3.19-2.974C375.225,304.025,377.39,297.121,375.715,289.877
		C374.13,289.972,376.227,292.091,375.715,289.877C374.13,289.972,376.227,292.091,375.715,289.877z"/>
</g>
</svg>
