<?xml version="1.0" encoding="utf-8"?>
<!-- Generator: Adobe Illustrator 16.0.4, SVG Export Plug-In . SVG Version: 6.00 Build 0)  -->
<!DOCTYPE svg PUBLIC "-//W3C//DTD SVG 1.1//EN" "http://www.w3.org/Graphics/SVG/1.1/DTD/svg11.dtd">
<svg version="1.1" xmlns="http://www.w3.org/2000/svg" xmlns:xlink="http://www.w3.org/1999/xlink" x="0px" y="0px" width="792px"
	 height="857px" viewBox="0 0 792 857" enable-background="new 0 0 792 857" xml:space="preserve">
<g id="Layer_2" display="none">
	<rect display="inline" fill="#FFFFFF" stroke="#000000" stroke-miterlimit="10" width="800" height="800"/>
</g>
<g id="Layer_1">
	<path id="happyface" d="M592.818,36.614c-0.788,5.163,0.479,9.019,5.928,11.054c3.154,1.179,4.03,3.25,2.696,6.502
		c-1.671,4.076-0.519,7.388,1.377,10.84c2.26,4.121,4.739,8.099,8.905,10.5c2.558,1.473,5.343,2.659,8.16,3.533
		c2.909,0.902,4.343,2.927,5.326,5.487c2.482,6.448,3.498,13.23,3.552,20.051c0.051,6.081-3.237,11.027-7.146,15.455
		c-3.952,4.478-7.964,8.905-12.067,13.245c-2.98,3.154-3.454,6.637-2.071,10.602c2.958,8.487,5.676,17.005,6.356,26.087
		c0.333,4.431,3.156,7.949,5.829,11.385c1.421,1.825,2.712,3.75,4.088,5.61c2.984,4.035,3.68,8.602,2.416,13.28
		c-1.446,5.355-1.041,10.445,0.396,15.723c0.903,3.329,1.188,6.906,1.222,10.376c0.059,5.969-0.099,11.956-0.521,17.91
		c-0.75,10.58-1.893,21.131-2.609,31.713c-0.314,4.617-0.532,9.361,0.163,13.9c1.296,8.473,0.289,16.625-2.271,24.618
		c-1.712,5.348-1.646,10.364,0.636,15.51c0.995,2.245,1.383,4.769,1.97,7.185c1.02,4.186,1.431,8.618,3.073,12.535
		c3.927,9.356,4.296,19.054,3.95,28.916c-0.058,1.66-0.469,3.377-0.181,4.97c2.044,11.322-0.13,22.565-0.449,33.841
		c-0.131,4.644,0.208,9.312-0.174,13.929c-0.808,9.762-1.646,19.528-4.244,29.06c-0.636,2.333-0.309,4.926-0.457,7.396
		c-0.195,3.291-0.013,6.672-0.724,9.851c-1.604,7.162-3.027,14.309-2.852,21.69c0.015,0.492-0.029,1.009-0.156,1.482
		c-2.034,7.642-1.206,15.521-2.018,23.249c-0.968,9.238-2.384,18.452-4.132,27.577c-0.7,3.65-2.631,7.115-4.306,10.516
		c-1.951,3.962-3.22,7.946-2.751,12.443c0.383,3.691-1.416,6.88-3.412,9.691c-5.445,7.672-12.346,13.778-20.611,18.39
		c-5.028,2.805-10.255,4.693-16.011,5.065c-9.758,0.63-16.37,5.714-20.402,14.438c-1.127,2.438-3.246,3.199-5.702,3.271
		c-0.815,0.021-1.678-0.128-2.457-0.388c-7.132-2.354-14.029-1.928-20.892,1.216c-2.055,0.94-4.482,1.253-6.773,1.462
		c-5.626,0.514-11.299,0.579-16.899,1.252c-3.771,0.449-7.516,1.42-11.151,2.534c-3.551,1.091-7.02,1.762-10.771,1.364
		c-2.438-0.255-5.044-0.17-7.397,0.443c-2.769,0.721-5.215,0.062-7.832-0.428c-4.703-0.884-9.44-1.74-14.204-2.085
		c-2.201-0.157-4.852,0.364-6.679,1.542c-6.896,4.438-14.658,5.15-22.438,5.909c-6.946,0.681-13.906,1.269-20.876,1.689
		c-3.79,0.229-7.605,0.043-11.41,0.024c-0.831-0.005-1.677-0.203-2.49-0.112c-5.386,0.6-10.496-0.531-15.681-1.895
		c-2.617-0.688-5.614-0.295-8.388,0.052c-3.408,0.426-6.585,0.101-9.77-1.177c-3.853-1.543-7.721-3.118-11.706-4.22
		c-2.817-0.778-5.854-1.127-8.781-1.083c-7.133,0.106-14.259,0.737-21.391,0.779c-3.285,0.021-6.58-0.825-9.866-1.312
		c-3.787-0.562-7.5-0.939-11.329,0.184c-6.547,1.922-12.38-0.728-18.21-3.312c-3.31-1.466-6.681-2.935-10.173-3.8
		c-5.258-1.305-10.01-3.403-14.301-6.709c-2.355-1.816-5-3.26-7.381-5.048c-2.836-2.127-5.07-4.796-5.97-8.326
		c-1.394-5.472-2.966-10.915-4.001-16.456c-2.316-12.403-4.292-24.872-6.535-37.291c-0.588-3.256-1.732-6.408-2.47-9.643
		c-2.029-8.896-2.827-18.064-5.938-26.726c-0.562-1.562-0.809-3.269-1.559-4.722c-0.794-1.54-1.496-3.886-3.764-3.317
		c-1.563,0.391-3.141,1.652-4.201,2.943c-2.521,3.066-4.653,6.451-7.123,9.566c-1.012,1.272-2.438,2.249-3.76,3.246
		c-4.516,3.405-10.258,2.188-12.372-3.077c-1.127-2.812-1.485-6.147-1.34-9.208c0.542-11.443,1.676-22.86,2.12-34.306
		c0.379-9.786,0.703-19.64-0.006-29.386c-0.918-12.614-2.824-25.16-4.418-37.721c-1.76-13.869-3.517-27.742-5.528-41.575
		c-1.222-8.397,0.634-15.501,6.029-22.278c6.011-7.55,8.999-16.231,7.792-26.396c-1.232-10.364-1.132-20.883-1.828-31.321
		c-0.186-2.775-1.053-5.526-1.791-8.238c-1.134-4.166-2.451-8.281-3.644-12.43c-0.318-1.114-0.592-2.268-0.676-3.419
		c-0.761-10.44-1.642-20.875-2.136-31.33c-0.267-5.628-0.048-11.302,0.339-16.93c0.226-3.277,1.07-6.54,1.894-9.744
		c2.191-8.52,4.516-17.007,6.797-25.505c0.947-3.531,1.66-7.152,2.943-10.558c2.148-5.704,2.783-11.566,2.996-17.584
		c0.092-2.607,0.9-5.205,1.52-7.775c0.973-4.035,2.359-7.994,2.996-12.074c0.451-2.887,0.635-6.149-0.262-8.844
		c-1.893-5.683-1.889-11.385-1.857-17.211c0.021-4.473-0.365-8.959-0.806-13.417c-0.336-3.396,0.235-6.535,1.239-9.773
		c1.218-3.931,1.908-8.026,2.798-12.055c0.358-1.622,0.397-3.358,1.003-4.873c3.889-9.722,8.293-19.283,15.087-27.281
		c3.687-4.34,8.67-7.634,13.304-11.083c1.649-1.228,3.965-1.62,6.025-2.224c3.816-1.121,7.764-1.854,11.48-3.227
		c5.66-2.089,11.27-2.754,17.08-0.894c4.357,1.395,8.74,1.276,13.301,0.981c5.537-0.356,10.781-1.24,15.988-3.179
		c5.144-1.915,10.381-0.263,14.035,3.04c6.051,5.466,13.005,5.861,20.387,6.155c11.771,0.471,23.526,1.746,35.297,1.817
		c8.555,0.052,17.21-0.277,25.138-4.848c6.72-3.874,14.321-4.524,21.765-2.542c8.157,2.173,16.114,5.084,24.171,7.639
		c10.104,3.204,20.317,4.783,30.854,2.222c4.446-1.081,8.879-1.184,13.212,0.724c3.256,1.433,6.666,1.905,10.229,1.438
		c1.468-0.192,2.997,0.138,4.476-0.016c2.795-0.29,5.77-0.253,8.316-1.252c6.423-2.516,13.014-3.998,19.838-4.67
		c3.149-0.31,6.31-0.601,9.432-1.106c3.714-0.601,7.317-0.342,10.813,0.969c3.661,1.374,7.168,0.952,10.635-0.6
		c0.454-0.203,0.897-0.427,1.341-0.658c5.229-2.734,10.39-2.439,15.007,1.087c7.079,5.407,13.997,3.167,21.025,0.167
		C584.985,30.396,588.901,33.505,592.818,36.614z M348.333,597.168c2.833,1.333,4.356,2.75,5.667,3s2.5,2.833,4.333,4
		s4.175,2.137,8.418,2.394c3.635,0.22,7.324,0.388,10.854,1.183c3.648,0.824,6.91,0.605,10.039-1.396
		c3.527-2.259,7.76-3.389,11.476-2.479c5.674,1.394,11.366,1.626,17.059,2.363c2.881,0.373,5.521,0.559,8.314-0.28
		c7.814-2.345,15.705-4.288,23.952-4.382c3.479-0.039,6.964-0.336,10.43-0.681c4.604-0.458,9.191-1.079,13.786-1.627
		c0.826-0.101,1.712-0.026,2.469-0.311c3.815-1.42,7.469-0.517,11.244,0.344c4.688,1.063,9.468,2.156,14.234,2.294
		c4.76,0.135,9.578-0.746,14.325-1.476c3.045-0.467,5.593-0.021,7.769,2.22c0.458,0.473,1.021,0.868,1.594,1.198
		c3.269,1.883,4.84,1.589,7.414-1.218c1.227-1.335,2.423-2.742,3.848-3.839c4.062-3.128,8.439-5.873,12.311-9.215
		c5.063-4.374,11.161-8.203,10.885-16.312c-0.031-0.932,1.269-2.271,2.274-2.789c1.532-0.787,2.636,0.308,3.763,1.521
		c4.088,4.4,5.512-2.94,10.955-6.008c2.552-1.438,4.653-4.506,7.5-5.25c2.369-0.619,6.109-7.104,9.25-10
		c3.143-2.896,3.779,0.174,5.447-7.5c0.404-1.865,0.967-1.277,0.334-3.839c-0.633-2.562-0.521-1.54-0.859-4.767
		c-0.339-3.225,1.826-4.893-0.424-6.143s-4.167,4.582-6.5,5.75s-1.755,2.782-5.416,1.335s-4.75-2.833-4.5-5.833s-1.75-0.916-1.25-5
		s-1.557-1.477,0.448-10.518c1.691-7.633-3.05-6.054-10.757-5.573c-5.135,0.315-10.188,1.061-15.096,3.015
		c-7.396,2.947-14.908,5.686-22.53,7.979c-5.54,1.668-11.314,3.308-17.024,3.468c-7.423,0.207-14.438,2.216-21.669,3.133
		c-11.886,1.507-23.789,2.93-35.719,4.021c-6.438,0.589-12.988,0.02-19.411,0.694c-6.896,0.729-13.661,0.32-20.363-0.933
		c-12.396-2.318-24.749-4.902-37.079-7.563c-2.184-0.471-4.354-1.585-6.214-2.861c-5.459-3.751-10.747-7.749-16.133-11.607
		c-0.799-0.571-1.747-0.946-2.655-1.347c-2.105-0.927-4.245-1.785-6.346-2.728c-1.665-0.743-3.22-1.937-4.954-2.284
		c-3.874-0.782-6.502-2.96-8.721-6.094c-1.312-1.85-2.875-3.98-4.829-4.829c-5.924-2.565-9.64-3.977-15.791-5.95
		c-4.636-1.488-1.995-0.853-4.619-1.771c-2.623-0.921-1.373-1.42-4.123-2.337s-1.583-1.667-4.25-4s-2.5-3.418-4-5.584
		s-3.864-3.123-4.75-3.75s-3.534-2.485-4.832-4.416s-1.917-2.665-2.917-3.499s-3.736-3.36-4.667-4.584s-0.749-2.862-1.333-4.5
		s-0.41-1.864-1.083-4.166s-2.272-2.979-2.844-5.258c-0.571-2.28-1.822-5.326-1.822-5.326s-1.833-2.167,0.083-4.167
		s5.077,1.227,6,2.333s8.84,11.146,12.917,11c5.798,3.559,4.507,7.74,11.5,6c0.933-0.232,4.567,2.007,5.5,2.25
		c5.284,1.379,10.154,11.854,15.263,13.73c6.203,2.281,12.188,5.171,18.223,7.891c2.407,1.085,4.716,2.397,7.049,3.646
		c10.215,5.464,20.305,11.177,30.674,16.324c6.059,3.009,12.51,5.267,18.882,7.592c3.628,1.324,7.358,1.73,11.084-0.313
		c3.115-1.711,6.108-0.329,9.008,1.082c2.078,1.011,4.137,2.25,6.349,2.769c8.242,1.936,16.466,4.353,24.84,5.235
		c18.578,1.965,37.229,1.364,55.699-1.432c6.326-0.959,12.603-3.104,18.546-5.566c13.501-5.594,25.702-13.909,39.349-19.254
		c3.978-1.56,7.109-4.082,9.707-7.511c1.455-1.921,6.741-8.538,8.834-9.696c4.946-2.738,1.499-9.996,3.999-16.996
		s2.438-3.745,5.75-4.5s2.495-1.748,5.495,0.252s2.146,5.738,4.401,9.844c0.603,1.1,0.818,2.979,2.601,2.34
		c1.26-0.45,2.699-1.482,3.229-2.638c0.729-1.598,0.908-3.553,0.911-5.354c0.004-2.152-0.285-4.332-0.697-6.452
		c-2.295-11.801-15.1-19.875-26.016-16.188c-8.975,3.032-17.83,6.425-26.688,9.787c-2.658,1.009-4.647,2.678-5.936,5.592
		c-1.877,4.254-4.814,7.952-8.905,10.456c-6.264,3.832-10.724,9.415-14.695,15.369c-2.437,3.649-5.501,6.116-9.642,7.345
		c-6.213,1.845-12.446,3.606-18.635,5.527c-4.111,1.276-8.096,3.021-12.257,4.079c-3.052,0.776-5.691,1.803-7.378,4.562
		c-2.07,3.396-4.953,3.866-8.642,2.989c-2.867-0.682-5.902-0.792-8.873-0.89c-12.067-0.396-23.854-2.212-34.841-7.438
		c-5.219-2.479-9.905-6.162-15.238-8.276c-5.35-2.123-10.219-4.687-14.521-8.45c-0.986-0.865-2.117-1.965-3.306-2.145
		c-5.862-0.878-11.2-2.945-16.121-6.214c-0.671-0.442-1.536-0.75-2.337-0.816c-3.526-0.298-5.677-2.396-7.287-5.294
		c-1.643-2.958-4.161-5.122-7.502-5.03c-4.348,0.117-6.929-2.687-10.154-4.658c-3.342-2.045-7.761-2.42-10.039-6.092
		c-1.283-2.073-3.04-2.445-5.104-2.265c-2.653,0.23-5.285,0.786-7.939,0.889c-1.94,0.073-4.364,0.296-5.771-0.691
		c-4.844-3.396-3.624-8.406-8.866-8.388c-3.771,0.015-7.083-0.5-11,0.75s-1.75,0.715-6.5-1s-3.583-5.083-8.583-5.917
		s-4.503-2.332-7.67-2.832s-3.417,0.333-6-0.667s-2-1.084-3.667-2.833s-3.617-3.806-3.726-8.153
		c-0.107-4.347-1.732-4.723-0.982-7.722s-3.221-6.375-2.125-10.375c0.869-3.18,2.625-4,3.875-4s4.902-1.604,4.958-5.75
		c0.054-3.951,3.433-3.882,5.966-7.107c2.533-3.227-0.133-8.06,6.034-5.393s8.017,8.674,11.167,9s12.109,12.969,18.5,11.167
		c4.232-1.194,7.906,2.619,12.279,2.819c2.272,0.104,4.577-0.448,6.87-0.68c6.451-0.646,12.898-1.371,19.362-1.888
		c3.964-0.315,7.962-0.188,11.932-0.474c4.316-0.311,8.613-0.916,12.93-1.305c4.471-0.404,9.136-0.023,13.389-1.183
		c9.735-2.653,19.406-5.44,28.272-10.767c8.508-5.109,13.162-12.842,17.231-21.246c1.286-2.653,1.628-5.45-0.994-7.758
		c-2.598-2.283-5.452-3.122-8.755-1.734c-3.568,1.5-6.806,3.515-9.104,6.689c-4.114,5.675-9.68,8.321-16.612,8.583
		c-6.476,0.244-7.804-0.847-8.919-7.153c-0.896-5.083-2.032-10.065-7.632-12.489c-2.235-0.968-2.271-3.526-0.06-4.681
		c3.271-1.708,5.221-4.561,7.465-7.208c0.539-0.635,1.054-1.322,1.704-1.822c4.854-3.728,5.647-8.622,4.279-14.233
		c-0.429-1.762-0.854-3.604-0.777-5.387c0.112-2.648,2.324-3.787,4.635-2.514c0.817,0.452,1.312,1.455,2.055,2.091
		c1.263,1.082,2.64,1.348,4.057,0.217c2.245-1.794,5.72-11.435,5.102-14.185c-0.073-0.324-0.119-0.688-0.3-0.947
		c-3.635-5.216-3.797-12.649-10.247-16.066c-3.842-5.622-10.009-8.005-15.681-10.974c-2.104-1.101-4.741-1.223-7.152-1.693
		c-1.783-0.348-3.688-0.274-5.382-0.844c-6.462-2.172-12.498-1.161-18.112,2.361c-3.506,2.199-6.922,2.607-10.875,1.38
		c-5.831-1.81-11.815-1.536-17.733-0.262c-2.91,0.625-5.761,1.536-8.651,2.261c-2.833,0.712-4.659,2.378-5.432,5.241
		c-0.523,1.952-0.238,3.148,2.066,3.553c1.94,0.34,4.022,0.766,5.656,1.777c4.774,2.958,9.345,1.744,12.896-1.422
		c2.975-2.648,5.314-2.73,8.452-1.164c2.996,1.496,6.124,1.256,9.245,0.333c6.017-1.778,12.086-2.043,18.27-0.889
		c2.095,0.391,4.28,0.286,6.428,0.385c2.994,0.139,6.078,0.104,8.5,2.218c3.961,3.46,5.71,8.41,8.217,12.826
		c0.479,0.844,0.144,2.313-0.154,3.401c-0.523,1.913-1.219,3.794-2.01,5.615c-1.848,4.249-4.258,8.312-5.598,12.707
		c-2.105,6.911-7.062,11.188-12.67,14.76c-8.983,5.718-21.456,0.887-24.633-9.258c-0.793-2.529-1.324-5.138-2.012-7.7
		c-1.588-5.936-3.404-11.763-2.979-18.109c0.328-4.931-2.1-6.619-6.967-5.632c-6.097,1.236-11.603,4.036-17.101,6.777
		c-1.257,0.625-2.502,1.862-3.09,3.125c-1.502,3.231-3.316,6.001-6.339,8.103c-1.172,0.815-2.153,2.824-2.131,4.272
		c0.1,6.172,1.466,12.085,7.375,15.352c2.516,1.391,4.243,3.107,5.348,5.566c1.394,3.105,3.265,5.721,6.121,7.689
		c1.179,0.812,2.229,2.06,2.879,3.343c1.496,2.965-0.047,5.408-3.342,5.441c-3.373,0.034-6.136-1.413-8.229-4.019
		c-1.869-2.325-3.59-4.767-5.43-7.116c-3.188-4.071-6.791-7.726-11.032-10.723c-1.607-1.136-3.625-1.983-4.971-0.5
		c-0.786,0.867-0.247,3.013-0.141,4.571c0.043,0.618,0.426,1.295,0.838,1.79c2.541,3.039,5.039,6.123,7.734,9.019
		c3.27,3.509,6.762,6.806,10.08,10.269c2.833,2.955,5.956,5.213,10.204,5.672c14.542,1.569,29.078,3.22,43.613,4.853
		c0.986,0.11,2.078,0.125,2.917,0.567c1.07,0.566,2.463,1.359,2.771,2.351c0.522,1.678-0.892,2.694-2.412,3.216
		c-0.776,0.268-1.614,0.378-2.437,0.5c-15.38,2.303-30.795,2.655-46.258,0.914c-8.472-0.952-16.086-3.85-22.666-9.396
		c-3.564-3.006-7.284-5.833-10.994-8.664c-8.282-6.315-16.588-5.761-23.557,1.902c-4.354,4.79-8.551,9.796-11.215,15.804
		c-2.947,6.647-6.232,13.146-5.669,20.863c0.349,4.772,0.519,9.784-0.536,14.393c-2.297,10.046-1.813,20.14-1.867,30.257
		c-0.01,1.646-0.362,3.295-0.594,4.938c-0.271,1.927-1.041,3.586-3.052,4.155c-2.217,0.629-3.276-1.061-4.416-2.504
		c-1.84-2.335-3.407-4.992-5.617-6.904c-3.444-2.979-5.669-6.062-3.967-10.799c0.493-1.369,0.424-2.892-1.063-3.421
		c-1.289-0.458-3.006-0.695-4.172-0.192c-0.912,0.396-1.811,2.088-1.781,3.177c0.119,4.306,0.318,8.646,1.021,12.888
		c0.971,5.87,2.945,11.608,3.523,17.497c0.598,6.075,0.468,12.307-0.129,18.392c-0.666,6.765,0.23,12.872,4.148,18.51
		c1.223,1.76,2.323,3.695,3.014,5.714c2.453,7.169,6.842,12.426,14.098,15.015c4.183,1.493,5.88,4.607,6.002,8.824
		c0.02,0.666,0.084,1.339,0.02,1.998c-0.31,3.134,0.807,5.677,2.494,8.335c1.549,2.437,2.365,5.43,3.079,8.283
		c0.763,3.054,0.613,6.366,1.597,9.322c1.936,5.815,2.963,11.533,1.363,17.613c-0.648,2.466-0.433,5.123,2.098,6.659
		c2.91,1.769,3.771,4.423,3.998,7.573c0.332,4.605,2.561,8.173,6.322,10.812c3.303,2.317,6.53,2.71,10.178,0.442
		c3.508-2.183,7.271-3.979,11.016-5.75c3.775-1.786,11.527,3.503,13.003,5.86c3.054,4.878,7.576,5.443,12.649,4.521
		c0.646-0.118,1.271-0.399,1.888-0.649c2.84-1.149,5.698-1.529,8.771-0.897c3.855,0.792,5.532,3.919,9.032,5.085
		S345.5,595.835,348.333,597.168z M342.76,577.615c-3.926-3.614-3.279-7.279-4.702-11.005c-0.618-1.615-1.322-3.771-0.741-5.159
		c1.45-3.468,0.46-6.941,0.771-10.38c0.106-1.163-5.377-7.138-6.254-7.904c-2.39-2.096-11.845-3.647-15.339-4.74
		s-6.686-4.155-7.84-7.6s-2.146-7.318-6.41-6.15c-2.123,0.58-7.589-3.657-8.5-7.5s-3.564-5.753-6.952-7.255
		c-3.716-1.647-4.021-5.415-0.728-7.839c2.859-2.104,5.938-2.854,9.337-1.044c3.228,1.718,6.716,3.734,10.407,2.515
		s7.691,0.447,9.691,1.28s2.67,0.998,5.5,4.167s4.544,6.833,8.167,10.5s8.094,5.907,11.375,9.792s4.646,7.808,9.448,10.208
		s7.731,3.843,10.955,5.166c1.771,0.728,7.882,3.493,9.399,1.845c5.236-5.699,6.922,0.208,12.931,2.665
		c2.456,1.004,4.764,1.107,7.282,0.476c2.565-0.643,5.203-1.48,7.802-1.444c6.798,0.095,13.615,0.37,20.38,1.034
		c9.439,0.926,18.808,2.062,28.317,0.453c5.872-0.988,11.859-1.317,17.803-1.874c4.466-0.418,8.963-0.549,13.407-1.113
		c8.901-1.139,17.78-2.462,26.664-3.762c2.462-0.358,4.882-1.065,7.352-1.316c4.282-0.437,8.599-0.987,12.878-0.834
		c3.823,0.137,5.077,2.56,3.722,6.271c-2.33,6.389-6.417,11.134-13.021,13.435c-5.812,2.021-11.543,4.233-17.867,4.277
		c-2.285,0.018-4.576,0.8-6.845,1.316c-4.692,1.075-9.318,2.689-14.067,3.229c-18.193,2.07-36.429,3.812-54.648,5.653
		c-1.153,0.117-2.332-0.017-3.484,0.108c-4.111,0.447-8.278,0.664-12.307,1.521c-4.861,1.035-9.54,3.396-14.411,3.798
		c-6.027,0.499-11.729,1.916-17.55,3.26c-5.477,1.263-7.022,0.196-13.185,0.351s-5.65-1.902-9.158-2.534
		S346.686,581.229,342.76,577.615z M445.063,195.901c0.281-0.324,0.563-0.648,0.848-0.973c-3.062-6.136-8.358-10.204-14.16-13.282
		c-6.27-3.325-13.034-5.722-19.613-8.454c-4.715-1.958-8.614-4.585-10.979-9.47c-1.896-3.916-4.807-3.556-6.91-0.541
		c-1.469,2.105-3.494,4.025-5.673,5.387c-3.312,2.073-3.457,1.835-2.798,5.478c0.146,0.811,0.368,1.628,0.373,2.443
		c0.008,1.777-0.945,2.973-2.727,2.861c-3.471-0.217-6.971-0.457-10.374-1.12c-3.053-0.596-3.718-2.032-3.15-5.061
		c0.304-1.628,0.361-3.34,0.928-4.87c0.605-1.643,1.312-3.654,2.627-4.539c2.041-1.375,1.859-2.742,1.436-4.674
		c-1.3-5.917-5.03-9.858-9.812-13.252c-2.719-1.931-5.467-2.581-8.445-1.621c-3.815,1.232-7.299,3.093-9.822,6.471
		c-3.812,5.1-2.582,10.617,3.296,12.933c2.425,0.956,5.131,1.341,7.749,1.632c2.884,0.32,5.001,1.488,6.346,4.075
		c0.612,1.178,1.386,2.275,1.993,3.456c1.344,2.606,1.06,3.851-1.73,4.339c-4.605,0.806-8.191,3.594-12.172,5.58
		c-7.577,3.782-15.247,7.27-23.443,9.492c-3.974,1.078-4.378,1.892-2.903,6.019c1.311,3.672,0.9,4.769-2.102,7.242
		c-1.765,1.454-3.646,2.976-4.824,4.871c-1.166,1.87-2.473,3.227-4.559,3.384c-4.029,0.304-5.69,2.777-6.444,6.315
		c-0.104,0.479-0.428,0.909-0.554,1.388c-0.989,3.762-3.377,5.733-7.194,6.713c-2.268,0.583-4.787,1.973-6.186,3.78
		c-3.423,4.417-8.07,6.83-12.859,9.094c-6.384,3.021-12.197,6.605-16.207,12.704c-1.603,2.438-2.512,4.6-1.01,7.354
		c0.545,0.999,0.856,2.157,1.102,3.281c0.402,1.858-0.381,3.377-2,4.177c-3.115,1.539-6.278,3.021-9.543,4.198
		c-1.057,0.382-2.916,0.161-3.623-0.557c-0.728-0.737-0.894-2.53-0.584-3.664c0.471-1.727,1.57-3.281,2.388-4.916
		c1.731-3.462,1.39-4.255-2.252-5.16c-0.808-0.2-1.627-0.386-2.453-0.468c-2.333-0.228-4.422-0.975-4.651-3.607
		c-0.217-2.482,1.457-4.185,3.645-4.785c1.986-0.544,4.182-0.286,6.266-0.537c0.709-0.085,1.742-0.495,1.941-1.017
		c0.242-0.636-0.139-1.593-0.455-2.321c-0.164-0.375-0.741-0.686-1.189-0.801c-2.572-0.663-3.803-2.422-4.416-4.893
		c-0.555-2.239-2.164-3.594-4.177-4.681c-1.235-0.668-2.493-1.656-3.224-2.824c-1.922-3.075-3.645-6.284-5.283-9.521
		c-1.291-2.549-2.551-3.355-5.123-2.318c-1.324,0.534-2.716,1.441-3.545,2.571c-5.378,7.329-9.873,14.995-8.706,24.69
		c0.235,1.949-0.216,3.973-0.261,5.963c-0.131,5.799-0.438,11.606-0.266,17.398c0.239,8.132,0.861,16.252,1.283,24.379
		c0.043,0.819-0.133,1.654-0.238,2.479c-0.638,4.982-0.492,9.932,0.076,14.932c0.291,2.559-0.332,5.227-0.574,7.843
		c-0.287,3.119-1.082,6.28-0.793,9.341c0.355,3.776,0.062,7.297-1.383,10.744c-1.248,2.969-1.701,5.992-1.521,9.24
		c0.105,1.916-0.471,3.946-1.09,5.812c-1.691,5.104-1.969,10.037,0.697,14.953c1.477,2.719,1.68,5.717,1.062,8.756
		c-0.133,0.651-0.301,1.312-0.314,1.971c-0.039,2.001,1.648,4.609,3.254,5.13c2.158,0.7,4.092,0.126,5.225-2.572
		c1.05-2.504,1.41-5.384,1.607-8.132c0.174-2.457-0.479-4.962-0.438-7.439c0.12-7.129,4.108-12.85,7.241-18.839
		c1.193-2.285,2.63-4.623,4.507-6.331c2.896-2.639,5.159-5.065,3.511-9.389c-0.717-1.88-0.611-4.312,1.423-5.363
		c5.306-2.739,8.089-7.79,11.665-12.102c2.654-3.199,5.041-6.617,7.579-9.912c1.181-1.535,2.353-3.089,3.673-4.5
		c3.166-3.379,6.391-6.706,9.647-9.999c1.38-1.396,2.694-3.076,4.391-3.898c5.744-2.783,8.918-7.913,12.046-12.958
		c1.604-2.584,3.242-4.823,5.604-6.799c5.191-4.339,10.947-8.052,15.126-13.585c0.987-1.313,3.034-1.834,4.604-2.702
		c1.433-0.789,3.254-1.23,4.24-2.389c2.962-3.48,6.518-5.274,11.033-6.108c3.351-0.618,6.168-0.629,8.98,1.337
		c0.771,0.537,1.891,0.977,2.778,0.873c4.245-0.499,8.492-1.072,12.689-1.88c2.555-0.493,4.726-0.582,7.072,1.03
		c5.429,3.726,9.617,3.028,14.298-2.492c0.745-0.879,1.367-2.51,1.064-3.489c-0.543-1.749-2.191-0.849-3.426-0.535
		c-2.188,0.556-4.227,0.62-6.132-0.941c-2.889-2.364-6.288-3.598-9.931-4.32c-4.284-0.85-7.719-2.702-8.991-7.405
		c-0.824-3.05-3.159-4.53-6.338-4.581c-0.996-0.016-2,0.077-2.989-0.002c-2.564-0.205-3.685-1.268-3.407-3.85
		c0.279-2.632,0.84-5.278,1.672-7.789c0.369-1.116,1.541-2.217,2.631-2.799c3.561-1.906,7.355-3.271,11.48-2.528
		c2.921,0.526,5.41,0.374,7.957-1.569c2.438-1.86,4.101-1.355,6.054,1.01c0.731,0.886,1.083,2.094,1.836,2.954
		c1.183,1.348,2.367,2.979,3.914,3.637c1.292,0.549,3.256,0.233,4.646-0.354c1.61-0.68,1.429-2.451,1.034-3.973
		c-0.166-0.643-0.519-1.248-0.617-1.896c-0.396-2.575,0.667-3.794,3.305-3.591c1.812,0.141,3.596,0.647,5.406,0.849
		c3.168,0.354,5.054,2.2,6.289,4.983c1.875,4.215,3.764,8.427,5.75,12.589c1.429,2.988,5.643,4.768,9.48,4.149
		c3.256-0.526,3.428-3.035,3.778-5.61c0.123-0.899,1.143-2.293,1.828-2.341c0.843-0.058,2.062,0.869,2.603,1.703
		c3.595,5.562,6.862,11.346,10.613,16.796c3.052,4.437,5.684,9.288,11.35,11.434c2.301,0.872,3.955,3.422,5.943,5.164
		c1.866,1.635,3.543,3.9,5.73,4.671c4.327,1.523,5.524,4.872,6.67,8.608c0.923,3.005,1.897,6.019,3.168,8.887
		c3.878,8.749,6.652,17.694,5.91,27.43c-0.536,7.04-2.136,13.704-5.66,19.951c-2.493,4.423-5.52,8.544-6.44,13.889
		c-0.898,5.205,0.097,9.126,4.328,12.271c5.313,3.949,8.034,9.256,9.537,15.767c1.602,6.939,4.397,13.662,10.654,18.055
		c2.027,1.424,3.136,3.371,3.893,5.636c0.838,2.515,1.903,4.963,2.594,7.515c0.949,3.514,2.002,7.062,2.354,10.658
		c0.511,5.211-1.845,7.369-7.01,7.171c-0.496-0.02-0.984-0.155-1.481-0.19c-4.751-0.354-9.198,0.197-13.206,3.24
		c-2.712,2.061-5.76,1.509-8.322-0.534c-3.979-3.173-8.647-4.943-13.33-6.533c-3.092-1.05-6.501-1.734-9.742-1.648
		c-5.702,0.148-11.218-0.618-16.827-1.424c-6.047-0.867-12.262-1.144-18.364-0.864c-5.949,0.271-11.835,1.764-17.784,2.355
		c-4.896,0.484-8.31,2.096-10.136,7.207c-1.858,5.19-1.079,8.578,3.965,10.795c3.636,1.598,7.315,3.088,10.979,4.622
		c3.353,1.405,6.641,2.991,10.066,4.171c8.938,3.074,17.932,5.979,26.913,8.925c1.084,0.355,2.304,0.92,3.316,0.708
		c1.15-0.242,2.673-1.04,3.048-1.986c0.345-0.866-0.297-2.631-1.092-3.325c-1.188-1.043-2.834-1.703-4.393-2.16
		c-4.41-1.294-8.157-3.657-11.574-6.644c-1.637-1.43-2.458-3.188-1.849-5.331c0.513-1.798,2.771-2.956,5.42-2.584
		c1.772,0.25,3.604,0.784,5.184,1.618c8.601,4.537,17.521,7.689,27.356,8.438c4.729,0.357,9.391,1.974,14.016,3.261
		c2.881,0.803,5.123,2.854,5.765,5.755c1.218,5.515,5.052,8.709,9.16,11.964c4.08,3.233,8.498,4.085,13.538,3.647
		c5.785-0.502,11.613-0.862,17.412-0.751c5.993,0.113,10.775-1.624,13.963-6.87c0.941-1.547,1.875-3.122,2.587-4.781
		c1.439-3.354,3.741-5.851,7.041-7.339c2.595-1.172,4.388-2.945,5.161-5.712c0.594-2.125,1.992-3.457,4.159-3.834
		c3.963-0.69,6.923-2.765,9.516-5.842c2.03-2.412,4.661-4.459,8.271-3.52c4.387,1.146,8.02-0.421,11.819-2.482
		c3.454-1.876,7.364-2.917,11.085-4.3c2.021-0.751,4.312-1.071,6.054-2.23c5.229-3.487,10.333-7.186,15.334-10.999
		c5.213-3.976,5.858-7.822,2.599-13.412c-0.249-0.429-0.628-0.776-0.922-1.181c-3.587-4.914-0.777-13.58,5.547-14.745
		c4.562-0.841,6.194-3.673,6.205-8.32c0.005-1.642-0.271-3.321-0.682-4.917c-0.62-2.412-1.543-4.744-2.21-7.147
		c-0.858-3.097-2.479-5.82-5.731-6.233c-3.498-0.444-5.521,2.376-6.502,5.232c-2.663,7.774-8.573,12.928-14.204,18.283
		c-6.262,5.951-14.131,9.227-22.021,12.348c-4.577,1.809-9.395,2.391-14.233,1.568c-10.48-1.783-20.833-4.058-30.812-7.933
		c-6.319-2.453-9.555-7.479-12.259-13.071c-1.214-2.509-1.134-5.449,0.493-7.668c2.21-3.015,1.382-5.568-0.18-8.3
		c-1.48-2.59-3.186-5.086-4.354-7.81c-1.278-2.983-2.792-5.649-5.547-7.466c-2.523-1.665-3.795-4.086-4.37-6.99
		c-0.388-1.951-0.734-3.944-1.439-5.789c-1.416-3.708-1.572-7.491-0.963-11.31c0.839-5.249,1.555-10.546,2.892-15.676
		c1.205-4.617,3.119-9.056,4.833-13.53c0.93-2.43,3.167-3.345,5.465-3.909c1.272-0.313,2.646-0.29,3.974-0.298
		c4.022-0.024,7.341-1.3,10.065-4.493c1.8-2.108,3.974-4.231,6.431-5.388c7.354-3.459,14.866-6.61,22.449-9.542
		c3.287-1.271,6.707-0.975,10.154,0.612c4.801,2.21,9.877,3.82,14.825,5.714c4.637,1.776,9.378,3.34,13.853,5.465
		c3.562,1.691,7.238,3.612,10.066,6.275c4.576,4.311,8.437,9.344,11.044,15.209c1.078,2.425,2.312,4.805,3.741,7.034
		c0.517,0.806,1.808,1.117,2.746,1.654c0.531-0.941,1.548-1.898,1.519-2.822c-0.119-3.627-0.425-7.264-0.938-10.858
		c-0.354-2.453-1.232-4.825-1.758-7.258c-1.84-8.56-5.37-16.827-4.515-25.863c0.043-0.459-0.351-0.943-0.406-1.431
		c-0.673-5.943-1.319-11.889-1.974-17.834c-0.799-7.28-1.027-14.684-2.582-21.798c-1.174-5.371-2.185-10.725-3.011-16.151
		c-0.672-4.414-1.609-8.818-2.845-13.109c-2.338-8.14-4.878-16.227-7.533-24.271c-0.874-2.645-2.098-5.265-3.628-7.585
		c-3.653-5.532-7.3-11.116-11.517-16.208c-2.479-2.994-5.688-6.232-9.204-7.322c-5.61-1.741-11.742-1.857-17.674-2.487
		c-1.261-0.135-2.676,0.283-3.889,0.771c-3.699,1.492-7.396,3.021-10.983,4.758c-6.021,2.915-12.257,5.08-18.844,6.309
		c-3.928,0.733-7.594,2.03-10.912,4.545c-2.736,2.076-5.875,3.98-9.135,4.924c-5.326,1.542-10.282,3.702-15.121,6.326
		c-3.938,2.136-8.225,2.52-12.62,1.75c-5.074-0.889-10.228-1.472-15.201-2.753c-6.267-1.616-10.601,1.676-14.735,5.253
		c-2.655,2.295-2.236,4.558,0.666,6.517c1.208,0.815,2.634,1.46,4.053,1.785c10.519,2.409,20.976,5.253,31.615,6.925
		c13.897,2.183,27.847,2.267,41.337-2.95c7.61-2.943,15.486-4.855,23.483-6.598c7.278-1.588,14.121-1.194,21.19,0.343
		c10.164,2.211,16.846,8.77,22.174,17.165c1.46,2.299,1.83,4.846,0.604,7.132c-1.275,2.375-1.401,4.638-1.148,7.186
		c0.114,1.157-0.273,2.859-1.079,3.503c-1.502,1.199-3.09,0.247-4.438-0.925c-2.14-1.854-4.346-3.628-6.501-5.46
		c-1.919-1.629-3.928-1.871-6.472-1.412c-3.542,0.638-7.219,0.605-10.842,0.696c-2.812,0.069-5.75-0.652-8.433-0.084
		c-11.363,2.402-22.778,4.628-33.521,9.385c-5.224,2.312-10.74,3.168-16.551,1.489c-2.802-0.81-5.918-0.507-8.886-0.778
		c-2.627-0.241-5.403-0.116-7.834-0.96c-6.793-2.358-12.686-6.426-18.311-10.824c-1.947-1.523-1.985-2.869-0.217-4.591
		c0.999-0.973,2.444-1.799,3.8-2.024c2.445-0.404,4.978-0.265,7.464-0.448c0.812-0.059,1.599-0.413,3.381-0.902
		c-1.999-0.899-2.99-1.418-4.03-1.801c-14.257-5.255-28.88-8.984-44.045-10.363c-1.278-0.117-2.676,0.053-3.895,0.462
		c-2.672,0.899-4.925,3.523-4.245,4.884c1.163,2.33,3.383,2.228,5.636,2.189c2.802-0.049,5.69-0.177,8.392,0.419
		c3.545,0.783,6.955,2.197,10.398,3.414c5.557,1.965,9.759,5.42,12.417,10.827c1.071,2.182,2.843,4.032,4.354,5.985
		c1.422,1.834,2.969,3.569,4.377,5.412c1.545,2.023,3.248,4.404,1.63,6.804c-1.836,2.727-4.76,1.455-7.324,0.771
		c-1.807-0.482-3.508-1.768-5.924-0.824c0.846,2.714,1.669,5.224,2.397,7.763c0.61,2.128,0.999,4.323-0.949,6.007
		c-1.446,1.25-4.102,0.877-6.49-0.743c-0.551-0.374-1.104-0.766-1.565-1.238c-3.018-3.069-5.94-6.23-9.021-9.232
		c-3.78-3.684-7.261-7.865-13.362-7.726c-2.197,0.049-4.177-0.928-5.312-3.142c-0.957-1.866-1.805-3.761-0.301-5.589
		c1.503-1.826,3.459-1.541,5.468-0.664c4.103,1.791,8.273,3.418,12.363,5.231C436.428,191.819,440.732,193.889,445.063,195.901z
		 M245.688,130.309c1.654,2.062,3.14,3.641,4.281,5.438c0.631,0.996,1.191,2.499,0.9,3.52c-0.497,1.729-2.167,1.538-3.771,1.342
		c-6.78-0.829-13.524-0.817-20.388-0.25c-5.909,0.49-12.178-0.305-14.569-7.545c-0.104-0.312-0.232-0.791-0.453-0.858
		c-0.844-0.26-1.989-0.802-2.541-0.461c-0.902,0.559-1.752,1.63-2.057,2.653c-1.699,5.73,1.702,12.621,7.334,14.772
		c2.149,0.821,4.457,1.417,6.739,1.65c3.341,0.343,6.466,0.839,9.42,2.739c2.571,1.654,5.435,2.171,8.325-0.071
		c5.322-4.13,11.986-4.733,18.227-6.307c3.512-0.885,5.422,0.739,5.62,4.434c0.149,2.789-0.278,5.621-0.575,8.42
		c-0.432,4.048-0.797,4.292-4.795,5.031c-1.935,0.357-4.229,0.508-5.634,1.648c-3.702,3.004-8.512,4.424-11.387,8.722
		c-1.728,2.581-5.218,1.422-5.978-1.644c-0.316-1.285-0.355-2.637-0.533-3.958c-0.644-4.761-5.69-9.885-10.452-10.614
		c-2.858-0.439-4.858,1.073-5.222,3.977c-0.268,2.145,0.459,3.943,2.073,5.344c1.259,1.09,2.624,2.057,3.888,3.14
		c3.694,3.167,5.965,6.778,5.517,12.075c-0.69,8.202,1.637,16.127,3.333,24.061c0.513,2.397,1.691,4.694,2.826,6.902
		c1.373,2.671,3.015,3.177,5.781,1.998c1.055-0.449,1.992-1.18,2.965-1.807c1.812-1.166,3.771-1.443,5.707-0.552
		c3.154,1.45,6.402,2.811,9.295,4.694c2.668,1.737,5.257,2.137,8.004,0.889c4.674-2.125,9.334-4.31,13.853-6.745
		c7.056-3.804,14.126-6.678,22.125-2.79c1.853,0.9,3.277,0.056,4.193-1.547c2.938-5.148,0.582-9.69-5.306-10.27
		c-0.982-0.096-2.02-0.128-2.977,0.07c-4.066,0.838-8.117,1.762-12.164,2.691c-0.464,0.107-1.009,0.339-1.29,0.691
		c-2.634,3.306-6.323,3.929-10.216,4.398c-1.934,0.231-3.807,1.146-5.654,1.881c-6.558,2.608-7.449,2.019-10.125-4.589
		c-1.644-4.061-2.625-9.186-9.181-8.53c-2.218,0.221-3.782-2.203-3.524-4.025c0.264-1.881,1.773-3.22,4.506-2.863
		c3.306,0.434,5.002-1.235,6.418-3.632c0.836-1.418,1.5-2.949,2.131-4.475c2.261-5.467,3.332-5.803,8.316-2.553
		c0.184,0.121,0.571-0.068,0.92-0.122c0.127-0.452,0.373-0.926,0.371-1.397c-0.005-1.162-0.121-2.324-0.197-3.486
		c-0.348-5.261,1.012-7.686,5.937-9.623c1.961-0.772,4.321-1.562,6.263-1.169c6.744,1.363,13.493,1.32,20.291,1.084
		c1.127-0.038,2.276,0.376,3.404,0.626c0.973,0.214,1.916,0.597,2.896,0.724c5.094,0.656,19.056-7.109,20.938-11.815
		c0.423-1.055,0.289-2.739-0.312-3.661c-0.423-0.642-2.204-0.888-3.153-0.591c-2.043,0.643-3.961,1.707-5.896,2.672
		c-5.523,2.761-11.229,4.982-17.34,6.084c-2.942,0.531-5.2,0.064-6.476-3.059c-1.213-2.972-3.688-4.111-6.835-3.963
		c-0.989,0.046-2.19,0.288-2.929-0.164c-1.006-0.615-2.039-1.711-2.312-2.79c-0.146-0.575,1.159-1.793,2.049-2.274
		c0.978-0.527,2.222-0.672,3.366-0.754c3.812-0.274,7.635-0.638,11.453-0.614c6.775,0.044,11.245-5.338,17.247-7.052
		c0.143-0.04,0.308-0.196,0.354-0.335c0.31-0.879,1.085-2.186,0.77-2.565c-0.637-0.76-1.9-1.431-2.859-1.373
		c-1.258,0.076-2.529,0.782-3.693,1.406c-6.017,3.224-12.297,3.548-18.902,2.296c-3.381-0.642-6.903-0.513-10.359-0.787
		c-2.135-0.168-4.271-0.386-6.393-0.676c-2.034-0.28-3.605-1.397-3.488-3.539c0.121-2.182,1.604-3.695,3.821-4.003
		c4.288-0.595,8.604-0.998,12.903-1.522c1.229-0.15,2.441-0.44,3.649-0.664c-0.119-0.731-0.088-1.097-0.237-1.364
		c-0.727-1.304-1.496-2.583-2.259-3.867c-2.307-3.882-2.165-4.066,2.249-4.696c2.938-0.42,5.171-2.024,6.271-4.876
		c0.763-1.978,0.029-2.969-2.021-2.679c-1.972,0.278-3.893,0.98-5.867,1.166c-5.109,0.482-10.189-3.52-10.279-8.471
		c-0.06-3.311-1.773-5.542-3.412-8.017c-1.358-2.051-2.697-4.16-3.676-6.403c-0.916-2.102-0.67-4.819,1.051-6.028
		c5.236-3.675,11.273-5.429,17.691-5.756c6.399,3.125,15.047,3.354,16.529,12.834c0.073,0.469,0.438,0.889,0.654,1.339
		c1.306,2.72,3.665,3.775,6.479,3.89c3.796,0.155,5.063-1.32,4.592-5.114c-0.062-0.494-0.229-0.978-0.271-1.473
		c-0.295-3.453,0.83-4.463,4.398-3.859c1.966,0.331,3.899,1.085,5.861,1.133c4.146,0.102,7.735,1.478,11.165,3.701
		c2.849,1.847,4.312,1.806,6.574-0.655c2.105-2.291,4.457-2.628,7.227-2.205c1.312,0.2,2.647,0.503,3.953,0.427
		c9.459-0.552,18.946-0.888,28.362-1.882c9.58-1.012,19.056-2.884,28.237-5.92c2.146-0.709,4.213-1.766,6.161-2.92
		c2.048-1.211,4.006-2.235,6.519-1.923c5.038,0.623,6.562-0.229,8.551-4.418c1.673-3.528,0.771-5.595-3.216-5.72
		c-5.953-0.189-11.94,0.084-17.888,0.5c-3.787,0.264-7.55,1.055-11.287,1.785c-1.737,0.338-3.504,0.877-5.065,1.692
		c-6.073,3.171-12.851,4.075-19.249,6.181c-0.303,0.1-0.666,0.063-0.994,0.03c-8.069-0.836-16.312-0.011-24.214-2.623
		c-1.856-0.614-3.933-0.671-5.92-0.791c-3.272-0.195-6.054-1.396-8.686-3.345c-2.784-2.062-5.745-3.91-8.744-5.652
		c-6.904-4.014-11.354-1.633-15.488,1.882c-4.511,3.836-7.521,3.753-11.148-0.848c-2.196-2.787-4.946-4.344-8.44-4.68
		c-1.987-0.19-3.974-0.408-5.963-0.579c-7.284-0.629-10.224,1.105-12.995,7.937c-0.744,1.837-1.781,3.208-3.661,3.724
		c-4.159,1.141-8.344,2.191-12.528,3.24c-2.387,0.599-4.623,0.355-6.525-1.401c-1.221-1.125-2.51-2.179-3.68-3.354
		c-2.974-2.985-4.856-3.006-8.783,0.386c4.195,2.562,3.885,6.363,3.055,10.508c-0.863,4.314-0.501,8.445,2.161,12.401
		c1.5,2.229,2.22,5.202,2.59,7.935c1.022,7.566,0.876,7.585,8.429,8.857c5.732,0.965,6.924,3.722,4.033,8.708
		c-0.951,1.639-1.588,3.624-1.777,5.51c-0.453,4.529-1.367,6.217-5.638,6.868C252.943,126.038,249.607,128.002,245.688,130.309z
		 M434.654,113.276c-0.653,1.895-1.636,3.694-1.847,5.581c-0.387,3.445,2.419,5.301,5.521,3.792
		c1.322-0.644,2.438-1.709,3.681-2.524c1.241-0.812,2.452-1.75,3.816-2.266c1.6-0.607,3.559-0.691,4.518,0.94
		c0.649,1.104,0.704,2.768,0.509,4.105c-0.214,1.43-1.118,2.743-1.562,4.157c-0.457,1.459-0.662,2.949,0.839,4.071
		c1.446,1.079,3.087,1.679,4.6,0.557c1.399-1.042,2.825-2.352,3.604-3.871c1.73-3.383,3.157-6.933,4.522-10.486
		c1.144-2.969,3.099-4.964,5.919-6.397c3.249-1.653,6.354-3.593,9.514-5.42c2.646-1.528,4.318-3.599,3.794-6.885
		c-0.479-3.018,0.855-5.151,3.354-6.661c3.69-2.235,7.253-4.762,11.143-6.58c8.419-3.935,17.276-5.881,26.652-4.544
		c2.791,0.398,5.638,0.469,8.393,1.025c3.819,0.771,7.973-0.025,11.35,2.975c3.243,2.882,4.855,2.915,8.363,0.286
		c2.821-2.114,5.722-2.674,8.886-1.553c3.259,1.154,6.438,1.135,9.804,0.604c1.881-0.298,4.026-0.13,5.824,0.49
		c5.511,1.903,9.963,5.209,12.547,10.663c0.637,1.344,1.395,2.652,2.252,3.867c1.894,2.687,4.71,3.883,6.787,3.016
		c1.994-0.833,2.365-2.737,1.488-6.655c-0.543-2.423-1.425-4.934-1.213-7.322c0.314-3.548-1.136-5.733-3.302-8.343
		c-2.719-3.276-5.228-4.85-9.318-3.022c-1.984,0.887-3.597-0.141-4.84-1.606c-0.848-1.002-1.364-2.278-2.154-3.339
		c-4.218-5.658-9.977-8.751-16.86-7.316c-8.565,1.784-17.162,1.785-25.778,2.092c-3.593,0.127-6.763,0.855-9.696,3.17
		c-1.729,1.364-4.062,2.04-6.215,2.763c-1.715,0.579-3.588,0.67-5.352,1.133c-8.838,2.321-17.663,4.691-26.493,7.044
		c-4.229,1.127-4.404,1.097-5.812-3.29c-0.563-1.763-1.632-2.145-3.294-2.377c-2.067-0.29-4.482-0.554-5.989-1.77
		c-1.587-1.277-2.681-1.442-4.411-0.833c-3.909,1.379-7.955,2.396-11.795,3.936c-4.758,1.908-9.354,4.068-13.514,7.29
		c-5.089,3.943-10.699,7.208-16.035,10.837c-1.206,0.819-2.436,1.769-3.268,2.936c-1.787,2.506-0.397,5.233,2.646,5.92
		c2.458,0.553,4.096-0.938,5.973-1.926c3.354-1.765,6.64-3.696,10.106-5.201c2.396-1.039,4.884-0.395,7.162,0.928
		c1.213,0.704,1.827,1.715,1.064,2.861c-2.172,3.263-3.891,6.877-7.968,8.538C439.848,109.771,437.436,111.62,434.654,113.276z
		 M528.932,302.441c-1.297,1.633-2.351,3.144-3.589,4.483c-2.875,3.111-3.327,6.958-2.675,10.74
		c1.089,6.307,3.863,11.972,8.273,16.699c2.254,2.416,4.732,4.619,7.021,7.007c1.141,1.19,2.215,2.493,3.067,3.897
		c1.827,3.006,2.119,6.033,0.597,9.456c-1.752,3.94-0.815,5.269,3.456,6.265c0.807,0.189,1.63,0.323,2.452,0.426
		c8.522,1.06,16.17-1.409,22.991-6.28c4.615-3.295,9.369-6.184,14.613-8.345c2.275-0.938,4.475-2.194,6.481-3.624
		c1.713-1.22,2.718-3.072,1.45-5.214c-1.829-3.093-1.623-6.24-0.998-9.634c0.724-3.93-0.429-4.675-4.27-3.751
		c-8.88,2.137-17.832,3.799-27.021,3.906c-3.037,0.035-5.36-1.15-6.35-3.849c-1.121-3.06-1.792-6.321-2.336-9.549
		c-0.962-5.711-1.313-11.546-2.602-17.174c-1.323-5.789-5.104-7.105-10.605-4.58C534.482,295.344,531.527,298.866,528.932,302.441z
		 M394.172,112.267c-3.159-2.787-6.996-3.788-10.793-3.718c-6.406,0.115-12.562-0.301-18.439-3.144
		c-1.978-0.955-4.217-0.524-5.088,1.699c-1.305,3.319-3.766,5.219-6.622,7.042c-2.476,1.579-2.581,3.231-1.214,5.983
		c0.737,1.487,1.515,2.962,2.148,4.494c1.801,4.339,3.789,5.798,8.3,5.503c5.986-0.393,11.49,1.297,16.863,3.606
		c3.384,1.454,6.123,3.601,8.643,6.472c4.484,5.11,10.862,7.44,17.222,9.398c1.152,0.355,3.034-0.194,3.996-1.013
		c1.46-1.246,0.816-3.104-0.062-4.582c-1.187-1.994-2.479-3.93-3.812-5.832c-1.839-2.624-2.692-5.438-1.229-8.429
		c1.283-2.622,0.752-4.963-0.87-6.99C400.329,119.156,397.199,115.753,394.172,112.267z M524.811,289.878
		c2.661,0.254,4.526-0.614,6.263-2.016c2.697-2.182,5.262-4.603,8.208-6.383c4.533-2.741,9.208-5.356,14.092-7.369
		c2.604-1.073,5.865-1.385,8.662-0.954c4.895,0.751,9.669,2.304,14.476,3.588c5.289,1.414,9.66,4.04,12.399,9.062
		c1.818,3.334,3.935,6.511,6.021,9.691c0.988,1.506,2.037,3.066,3.387,4.223c2.05,1.762,4.411,0.84,4.659-1.84
		c0.162-1.769-0.188-3.654-0.643-5.401c-1.947-7.461-6.43-13.449-11.894-18.585c-3.089-2.902-6.726-5.52-10.57-7.254
		c-7.406-3.339-15.36-4.373-23.364-2.42c-8.626,2.104-16.729,5.333-22.559,12.59c-1.132,1.409-2.576,2.564-3.857,3.854
		C527.649,283.122,524.916,285.409,524.811,289.878z M312.124,176.728c-2.672,3.187-2.976,5.021-1.619,6.968
		c1.685,2.417,4.076,3.067,7.027,1.784c1.053-0.457,2.08-1.062,2.977-1.779c4.9-3.904,9.795-7.817,14.607-11.828
		c1.925-1.605,1.261-4.127-1.156-4.906c-4.579-1.474-8.476,0.25-12.147,2.73c-2.465,1.663-4.831,3.47-7.236,5.219
		C313.513,175.688,312.465,176.475,312.124,176.728z M243.346,128.778c-1.479-3.815-2.226-6.923-3.8-9.531
		c-2.682-4.444-5.391-8.762-5.313-14.195c0.005-0.324-0.006-0.792-0.204-0.954c-1.197-0.979-2.38-2.528-3.701-2.674
		c-2.031-0.226-2.619,1.743-2.616,3.503c0.006,3.479-0.033,6.976,0.32,10.427c0.178,1.731,0.795,3.692,1.877,5.001
		C233.081,124.193,236.775,127.465,243.346,128.778z M399.663,41.944c-0.348-0.158-1.09-0.783-1.833-0.785
		c-4.415-0.009-8.479,1.442-12.243,3.594c-0.662,0.379-0.907,2.125-0.727,3.128c0.129,0.719,1.308,1.803,1.982,1.78
		c4.123-0.146,8.319-0.164,12.325-1.011C402.555,47.934,402.826,44.478,399.663,41.944z M576.456,285.946
		c-2.138-1.374-3.452-1.236-5.029,0.522c-2.223,2.48-1.563,8.309,1.147,10.472c1.27,1.013,2.428,1.099,3.94,0.212
		C579.378,295.477,580.257,287.709,576.456,285.946z M373.564,285.447c-1.139,0.215-2.281,0.238-3.007,0.607
		c-1.688,0.861-2.317,2.136-1.851,3.483c0.764,2.2,1.646,4.388,2.699,6.537c0.283,0.577,1.369,0.986,2.088,1.473
		c0.64-0.584,1.795-1.154,1.83-1.752c0.235-3.929,0.194-4.021-0.113-8.035C375.16,287.086,374.3,286.441,373.564,285.447z"/>
</g>
</svg>
