<?xml version="1.0" encoding="utf-8"?>
<!-- Generator: Adobe Illustrator 16.0.4, SVG Export Plug-In . SVG Version: 6.00 Build 0)  -->
<!DOCTYPE svg PUBLIC "-//W3C//DTD SVG 1.1//EN" "http://www.w3.org/Graphics/SVG/1.1/DTD/svg11.dtd">
<svg version="1.1" xmlns="http://www.w3.org/2000/svg" xmlns:xlink="http://www.w3.org/1999/xlink" x="0px" y="0px" width="792px"
	 height="857px" viewBox="0 0 792 857" enable-background="new 0 0 792 857" xml:space="preserve">
<g id="Layer_2" display="none">
	<rect display="inline" fill="#FFFFFF" stroke="#000000" stroke-miterlimit="10" width="800" height="800"/>
</g>
<g id="Layer_1">
	<path id="sadface" d="M588.823,30.95c-0.788,6.019,0.479,10.513,5.928,12.885c3.154,1.374,4.03,3.788,2.696,7.579
		c-1.671,4.751-0.519,8.611,1.377,12.635c2.26,4.804,4.738,9.44,8.904,12.239c2.559,1.717,5.344,3.1,8.161,4.118
		c2.909,1.051,4.343,3.412,5.326,6.396c2.482,7.516,3.498,15.421,3.552,23.372c0.051,7.088-3.237,12.854-7.146,18.015
		c-3.952,5.22-7.964,10.38-12.067,15.439c-2.98,3.676-3.454,7.736-2.071,12.358c2.958,9.893,5.676,19.821,6.356,30.408
		c0.333,5.165,3.156,9.266,5.829,13.27c1.421,2.127,2.712,4.371,4.088,6.54c2.984,4.703,3.68,10.027,2.416,15.479
		c-1.446,6.242-1.041,12.175,0.396,18.327c0.903,3.88,1.188,8.049,1.222,12.094c0.059,6.958-0.099,13.937-0.521,20.876
		c-0.75,12.333-1.893,24.631-2.609,36.965c-0.314,5.382-0.532,10.911,0.163,16.202c1.296,9.876,0.289,19.378-2.271,28.695
		c-1.712,6.233-1.646,12.08,0.637,18.079c0.994,2.617,1.382,5.559,1.969,8.375c1.02,4.879,1.431,10.045,3.074,14.611
		c3.926,10.905,4.295,22.209,3.949,33.704c-0.058,1.936-0.469,3.936-0.181,5.793c2.044,13.197-0.13,26.303-0.449,39.445
		c-0.131,5.412,0.208,10.854-0.174,16.235c-0.808,11.379-1.646,22.763-4.244,33.872c-0.636,2.72-0.309,5.742-0.457,8.622
		c-0.194,3.836-0.013,7.776-0.724,11.481c-1.604,8.349-3.027,16.679-2.852,25.283c0.015,0.574-0.029,1.176-0.156,1.729
		c-2.034,8.906-1.206,18.092-2.018,27.099c-0.968,10.769-2.384,21.509-4.132,32.145c-0.7,4.255-2.631,8.294-4.306,12.258
		c-1.951,4.617-3.372,66.259-2.905,71.501c0.383,4.301-1.416,8.02-3.412,11.294c-5.445,8.943-12.345,16.063-20.611,21.437
		c-5.026,3.271-10.255,5.47-16.011,5.903c-9.758,0.734-16.37,6.66-20.402,16.83c-1.127,2.839-3.244,3.727-5.7,3.812
		c-0.817,0.027-1.68-0.149-2.457-0.45c-7.134-2.745-14.031-2.247-20.894,1.416c-2.055,1.098-4.48,1.46-6.771,1.703
		c-5.626,0.599-11.3,0.678-16.901,1.459c-3.769,0.526-7.514,1.655-11.151,2.957c-3.551,1.269-7.02,2.051-10.771,1.59
		c-2.438-0.297-5.044-0.198-7.397,0.515c-2.769,0.842-5.215,0.075-7.832-0.498c-4.701-1.028-9.44-2.029-14.203-2.43
		c-2.2-0.185-4.853,0.426-6.68,1.797c-6.895,5.174-14.658,6.005-22.436,6.89c-6.948,0.791-13.908,1.476-20.876,1.967
		c-3.79,0.269-7.607,0.051-11.412,0.029c-0.831-0.005-1.675-0.238-2.49-0.132c-5.386,0.701-10.496-0.617-15.68-2.206
		c-2.618-0.803-5.615-0.344-8.389,0.058c-3.406,0.497-6.585,0.12-9.77-1.369c-3.851-1.799-7.719-3.636-11.706-4.919
		c-2.817-0.907-5.853-1.313-8.781-1.262c-7.133,0.122-14.259,0.857-21.39,0.906c-3.286,0.024-6.581-0.96-9.867-1.529
		c-3.787-0.655-7.5-1.097-11.329,0.212c-6.547,2.24-12.38-0.846-18.21-3.857c-3.309-1.709-6.681-3.423-10.173-4.43
		c-5.258-1.522-10.01-3.967-14.3-7.82c-2.356-2.118-5-3.802-7.382-5.885c-2.835-2.48-5.07-5.591-5.969-9.704
		c-1.394-6.38-2.966-12.723-4.001-19.182c-2.317-14.458-4.138-85.988-6.38-100.463c-0.588-3.795-1.732-7.468-2.47-11.239
		c-2.029-10.37-2.827-21.057-5.939-31.151c-0.561-1.819-0.808-3.811-1.558-5.504c-0.794-1.796-1.496-4.529-3.764-3.867
		c-1.563,0.455-3.14,1.926-4.201,3.431c-2.521,3.574-4.653,7.52-7.123,11.151c-1.012,1.482-2.438,2.621-3.76,3.784
		c-4.516,3.97-10.258,2.55-12.372-3.588c-1.127-3.277-1.485-7.165-1.34-10.732c0.542-13.339,1.676-26.646,2.12-39.988
		c0.379-11.405,0.703-22.892-0.006-34.252c-0.918-14.702-2.824-29.327-4.418-43.968c-1.759-16.167-3.516-32.337-5.528-48.462
		c-1.222-9.789,0.634-18.068,6.029-25.966c6.011-8.801,9-18.919,7.792-30.768c-1.232-12.081-1.131-24.342-1.828-36.509
		c-0.185-3.234-1.052-6.441-1.791-9.602c-1.134-4.856-2.451-9.653-3.643-14.489c-0.319-1.298-0.592-2.644-0.676-3.985
		c-0.761-12.169-1.642-24.332-2.136-36.519c-0.266-6.56-0.048-13.173,0.339-19.733c0.226-3.82,1.07-7.623,1.894-11.358
		c2.191-9.931,4.515-19.824,6.797-29.729c0.947-4.116,1.66-8.337,2.943-12.307c2.148-6.649,2.783-13.481,2.996-20.497
		c0.092-3.039,0.901-6.067,1.52-9.062c0.973-4.704,2.359-9.318,2.996-14.074c0.451-3.365,0.634-7.167-0.262-10.309
		c-1.892-6.625-1.888-13.271-1.858-20.062c0.022-5.213-0.364-10.443-0.805-15.639c-0.336-3.958,0.236-7.617,1.239-11.392
		c1.218-4.582,1.908-9.355,2.798-14.051c0.359-1.891,0.397-3.915,1.003-5.68c3.889-11.332,8.293-22.477,15.087-31.799
		c3.687-5.059,8.67-8.898,13.304-12.918c1.649-1.432,3.964-1.889,6.025-2.592c3.816-1.307,7.764-2.162,11.481-3.761
		c5.66-2.436,11.269-3.211,17.079-1.042c4.358,1.626,8.741,1.487,13.301,1.144c5.538-0.415,10.781-1.446,15.989-3.706
		c5.143-2.232,10.381-0.306,14.035,3.543c6.05,6.371,13.005,6.832,20.388,7.175c11.771,0.548,23.525,2.035,35.296,2.118
		c8.555,0.061,17.21-0.323,25.138-5.651c6.72-4.516,14.321-5.273,21.765-2.963c8.157,2.533,16.114,5.926,24.171,8.904
		c10.104,3.734,20.317,5.575,30.854,2.59c4.446-1.26,8.879-1.38,13.212,0.844c3.256,1.67,6.666,2.221,10.23,1.676
		c1.467-0.224,2.997,0.161,4.475-0.019c2.795-0.338,5.77-0.295,8.317-1.459c6.422-2.932,13.013-4.66,19.837-5.443
		c3.149-0.361,6.31-0.701,9.432-1.289c3.714-0.701,7.317-0.398,10.814,1.13c3.66,1.602,7.167,1.109,10.634-0.7
		c0.454-0.237,0.897-0.498,1.341-0.767c5.229-3.187,10.39-2.843,15.007,1.267c7.079,6.303,13.997,3.691,21.025,0.194
		C580.99,23.703,584.906,27.326,588.823,30.95z M594.282,605.591c-0.453-0.218-0.906-0.433-1.359-0.652
		c-1.02,1.631-2.039,3.261-3.059,4.892c-4.354,6.954-5.413,50.848-9.889,57.676c-0.972,1.483-2.546,2.97-3.976,3.219
		c-5.732,1.004-9.63-5.62-7.48-12.401c0.555-1.746,1.258-3.426,2.009-5.051c4.766-10.307-0.422-25.464,1.584-36.937
		c1.692-9.684-3.238-22.61-10.945-22.003c-5.133,0.403-10.766-4.013-15.672-1.533c-7.398,3.74-10.123,5.554-17.746,8.467
		c-5.54,2.117-11.79,4.238-17.5,4.441c-7.423,0.263-15.021,4.229-22.25,5.394c-11.886,1.912-23.82,1.152-35.75,2.538
		c-6.438,0.747-12.827,0.093-19.25,0.951c-6.895,0.922-15.048,0.321-21.75-1.269c-12.398-2.942-23.42-6.775-35.75-10.152
		c-2.184-0.597-4.876-2.559-7.5-3.489s-6.094-2.858-9.359-4.645s-4.615-1.419-7.765-2.286s-3.562-1.188-6.468-1.219
		s-4.348-0.885-8.242-0.516s-5.267-0.17-9.667,1.755s-5.748,3.604-7.123,7.229s-5.777,9.185-9.872,14.029s-6.522-1.642-7.987,4.296
		c-0.495,2.002-0.613,4.149-1.038,6.186c-0.338,1.607-0.699,3.284-1.365,4.688c-2.174,4.58-1.34,11.806-4.614,8.593
		c-3.186-3.129-5.855-2.942-7.77,1.416c-1.316,2.999-2.295,6.72-2.257,10.098c0.087,7.663-2.361,14.403-3.968,21.447
		c-0.201,0.874-1.39,1.732-2.21,1.899c-0.433,0.088-1.287-1.218-1.547-2.089c-0.527-1.766-1.022-3.647-1.098-5.509
		c-0.19-4.622-0.474-9.304-0.104-13.879c0.561-6.93,1.444-13.757,0.417-20.77c-0.382-2.617-4.96-31.499-4.669-34.207
		c0.74-6.887,0.615-23.287,1.408-30.164c0.595-5.163,7.22-7.017,11.297-7.199c7.118-0.321,7.127-7.399,12.502-10.492
		s7.042-3.782,12.333-5s9.583-2.282,15.333-1s12.708,2.218,18.333,3s12.19,1.812,17,5s11.338,6.958,15.231,8.12
		s13.061,0.457,17.102,0.872s4.667,0.667,12.667,2.666s6.648,0.835,11.333,1.667s10.455,0.673,12.667,1.333
		c8.242,2.454,7.106,2.222,18.04,3.315s37.231,1.73,55.699-1.818c6.327-1.217,12.603-3.938,18.546-7.062
		c13.501-7.1,25.702-17.649,39.349-24.435c3.978-1.977,7.188-4.007,9.783-8.357c1.455-2.439,3.36-4.736,5.453-6.209
		c4.946-3.475,8.3-8.116,9.444-15.352c0.369-2.344,1.659-4.493,2.697-6.599c0.409-0.827,1.233-1.391,1.945-1.897
		c4.084-2.911,6.688-1.93,8.942,3.28c0.603,1.393,0.818,3.78,2.601,2.969c1.26-0.573,2.699-1.881,3.229-3.347
		c0.729-2.027,0.908-4.509,0.913-6.795c0.002-2.729-0.287-5.496-0.699-8.186c-2.295-14.977-15.1-25.221-26.014-20.542
		c-8.977,3.848-23.574,10.931-26.689,12.419s-4.365,3.113-6.99,4.863s-5.576,3.23-7.851,4.49s-10.724,11.948-14.695,19.503
		c-2.436,4.632-5.501,7.762-9.642,9.32c-6.211,2.341-16.278,6.05-18.635,7.015s-8.104,3.568-10.434,4.531s-7.05,3.66-9.119,4.891
		s-3.875,2.75-8.875,3.625s-5.751,0.706-8.722,0.582c-12.067-0.503-23.854-2.807-34.841-9.439
		c-5.219-3.146-9.905-7.819-15.238-10.502c-5.349-2.694-9.123-5.642-11.532-7.266c-2.409-1.624-5.545-3.179-8.167-4.875
		s-7.083-3.707-9.167-4.791s-5.208-3.959-7.583-5.959s-5.416-3.246-7.123-6.194s-3.044-4.583-7.502-6.382s-7.991-3.135-12.458-2.799
		s-4.467,0.336-7.733,0.168s-4.184,0.207-6.184-0.168s-3.973-1.156-6.861-1.578s-4.364,0.375-5.771-0.878
		c-4.844-4.309-10.183-3.181-15.424-3.154c-3.771,0.02-7.162,1.544-9.836,5.228c-0.761,1.049-5.307,11.809-6.356,12.029
		c-6.858,1.445-7.339,32.995-11.003,40.114c-3.709,7.207-6.837,14.298-8.185,22.725c-0.42,2.624-1.353,5.209-2.427,7.532
		c-0.452,0.978-1.901,1.7-2.855,1.632c-0.573-0.041-1.499-1.817-1.529-2.844c-0.217-7.555-1.232-15.132,0.167-22.673
		c0.951-5.124,1.745-10.302,2.839-15.378c0.869-4.033,1.039-34.947,2.251-38.837c1.125-3.621,3.237-15.753,1.838-19.585
		c-1.661-4.549-0.405-8.612,1.408-12.556c0.999-2.175,1.926-4.412,3.018-6.508c4.392-8.443,9.671-15.655,17.642-18.521
		c6.388-2.297,12.898-4.045,19.288-6.333c4.232-1.516,8.455-2.008,12.828-1.754c2.272,0.132,4.577-0.568,6.87-0.86
		c6.453-0.822,12.898-1.742,19.362-2.396c3.966-0.401,7.964-0.239,11.932-0.601c4.316-0.394,9.24-4.312,13.555-4.805
		c4.471-0.513,11.247-4.029,15.5-5.5c9.735-3.367,16.634-4.241,25.5-11c8.508-6.484,13.198-11.81,17.27-22.473
		c1.284-3.368,1.628-6.917-0.996-9.846c-2.598-2.897-5.452-3.961-8.753-2.2c-3.57,1.903-6.808,4.46-9.106,8.488
		c-4.114,7.202-9.68,10.559-16.612,10.89c-6.476,0.31-7.804-1.074-8.919-9.076c-0.896-6.45-2.03-12.772-7.632-15.848
		c-2.233-1.228-2.271-4.474-0.06-5.94c3.271-2.167,5.221-5.788,7.465-9.146c0.539-0.806,1.054-1.677,1.704-2.312
		c4.854-4.73,5.647-10.941,4.281-18.061c-0.431-2.236-0.855-4.573-0.779-6.836c0.114-3.36,2.326-4.806,4.635-3.19
		c0.818,0.573,1.312,1.846,2.055,2.653c1.264,1.373,2.64,1.71,4.057,0.275c2.247-2.276,5.72-14.511,5.102-18
		c-0.073-0.411-0.119-0.873-0.3-1.202c-3.635-6.619-3.797-16.051-10.247-20.387c-3.842-7.134-10.009-10.159-15.681-13.926
		c-2.104-1.397-4.741-1.552-7.152-2.148c-1.783-0.442,0.001-0.556-6.633-1.198s-16.861,3.123-16.861,3.123
		s-6.922,3.309-10.875,1.751c-5.831-2.297-10.043-1.508-15.961,0.109c-2.912,0.793-7.776,3.246-10.667,4.167
		c-2.833,0.903-4.416,1.279-5.187,4.912c-0.525,2.477-0.24,3.995,2.064,4.509c1.94,0.431,4.022,0.972,5.656,2.255
		c4.776,3.753,9.345,2.213,12.898-1.805c2.973-3.36,5.312-3.464,8.45-1.477c2.996,1.899,6.124,1.594,9.245,0.423
		c6.019-2.256,12.086-2.593,18.271-1.128c2.094,0.496,4.28,0.363,6.427,0.489c2.994,0.177,6.078,0.132,8.5,2.814
		c3.961,4.391,5.444,8.136,6.569,11.703s1.207,11.915,0.854,14.369S385.25,307.75,382,318.25s-7.75,10.25-9.25,18s-4.25,21.25-10,24
		s-14.5,3.5-24.25,0.75s-12.205-12.515-9.603-25.132s6.929-19.065,7.353-27.118c0.328-6.257,1.5-28.25-8.5-28.25
		s-9.499,6.705-14.997,10.184c-1.257,0.793-2.502,2.362-3.09,3.965c-1.502,4.1-3.315,7.615-6.339,10.283
		c-1.171,1.034-2.153,3.583-2.131,5.421c0.1,7.832,1.466,15.335,7.375,19.481c2.516,1.765,4.245,3.942,5.348,7.063
		c1.396,3.94,3.267,7.259,6.121,9.757c1.179,1.031,2.231,2.614,2.879,4.242c1.496,3.763-0.047,6.863-3.342,6.905
		c-3.373,0.043-6.135-1.793-8.229-5.1c-1.868-2.951-3.591-6.049-5.431-9.03c-3.189-5.166-6.791-9.804-11.032-13.607
		c-1.607-1.441-3.625-2.516-4.971-0.634c-0.786,1.101-0.247,3.824-0.141,5.801c0.044,0.784,0.426,1.643,0.839,2.271
		c2.541,3.856,5.038,7.77,7.734,11.445c3.269,4.453,6.761,8.636,10.08,13.031c2.833,3.75,5.956,6.615,10.204,7.197
		c14.542,1.992,29.078,4.084,43.613,6.159c0.988,0.141,2.078,0.159,2.917,0.721c1.072,0.718,2.463,1.726,2.771,2.982
		c0.521,2.128-0.893,3.418-2.411,4.081c-0.778,0.338-1.616,0.48-2.438,0.635c-15.38,2.921-30.795,3.371-46.258,1.16
		c-8.47-1.209-16.085-4.883-22.665-11.924c-3.565-3.814-7.285-7.402-10.995-10.993c-8.282-8.014-16.588-7.31-23.556,2.414
		c-4.354,6.078-8.551,12.432-11.215,20.056c-2.948,8.436-6.233,16.682-5.669,26.475c0.348,6.057,0.518,12.417-0.536,18.264
		c-2.297,12.748-1.814,25.557-1.868,38.396c-0.01,2.088-0.362,4.181-0.593,6.265c-0.271,2.444-1.042,4.551-3.052,5.273
		c-2.217,0.798-3.277-1.346-4.416-3.178c-1.84-2.963-3.408-6.335-5.617-8.761c-3.445-3.781-5.669-7.692-3.967-13.704
		c0.493-1.737,0.424-3.669-1.063-4.341c-1.289-0.581-3.006-0.882-4.173-0.244c-0.912,0.502-1.81,2.648-1.78,4.031
		c0.118,5.464,0.318,10.973,1.021,16.354c0.971,7.449,2.945,14.729,3.524,22.203c0.597,7.709,0.467,15.616-0.13,23.338
		c-0.665,8.585,0.231,16.335,4.149,23.487c1.222,2.234,2.323,4.69,3.014,7.252c2.452,9.098,6.842,15.769,14.097,19.054
		c4.183,1.895,5.88,5.845,6.002,11.197c0.019,0.846,0.084,1.699,0.02,2.535c-0.31,3.978,0.806,7.204,2.494,10.577
		c1.548,3.092,2.365,6.891,3.079,10.51c0.762,3.877,0.613,8.08,1.597,11.831c19.455,74.214,2.095,53.922-0.64,71.416
		c0.496-3.174,1.623,13.925,4.152,15.874c2.911,2.247,3.771,5.612,3.998,9.61c0.333,5.847,2.561,10.371,6.323,13.724
		c3.302,2.938,6.53,3.438,10.177,0.559c3.509-2.768,7.272-5.049,11.016-7.297c3.775-2.267,3.845-2.173,3.492-7.41
		c-0.312-4.622,1.563-8.74,4.71-9.95c1.934-0.743,3.99-1.234,5.526,1.171c1.698,2.656,0.243,4.657-0.953,6.734
		c-1.55,2.693-4.317,5.547-4.198,8.161c0.135,3.002,2.95,5.739,4.426,8.733c3.054,6.189,7.576,6.905,12.65,5.735
		c0.647-0.15,1.271-0.505,1.887-0.822c2.84-1.461,5.698-1.942,8.773-1.141c3.854,1.005,7.162-0.851,10.145-3.9
		c3.427-3.499,3.992-1.976,5.742-7.726s-1.676-5.775-1.588-10.013s-1.078-5.237-2.995-8.237s-3.833-2.917-8.417,2.5
		s3.5,6.25-5.75,12s-12.417-12.917-12.75-17.75s-3.25-8-2.25-17.25s3.25-11,3.5-15.25s0.259-7.037,1.5-9.25s1.111-2.692,4.25-4.75
		s4.875-3.188,7-5.25s8.051-0.247,11.75,5.5c3.635,5.642,6.111-2.316,10.262,2.784c0.336,0.408,0.897,0.523,1.354,0.771
		c3.197,1.758,6.377,3.569,9.6,5.247c1.771,0.925,3.516,1.15,5.031-0.941c5.238-7.232,11.29-15.289,17.299-12.171
		c2.456,1.273,4.766,2.403,7.282,1.604c2.567-0.815,5.205-1.879,7.802-1.835c6.799,0.122,13.615,0.469,20.38,1.312
		c9.44,1.178,18.81,2.617,28.317,0.577c5.873-1.255,11.861-1.672,17.803-2.378c4.468-0.53,8.964-0.696,13.407-1.414
		c8.903-1.443,18.932,4.122,26.614,8.783s15.212,2.979,17.683,2.661c4.281-0.554,13.334-3.124,17.613-2.93
		c3.821,0.174,5.075,3.248,3.722,7.957c-2.33,8.106-1.818,11.812-3.485,20.479s6.816,26.493,0.816,34.826
		s-18.338,8.874-23.005-0.793S500.5,693.334,482.5,681.334s-37-4.334-48.25-3.834s-12.397-0.75-19.5,0.5s-5.254,0.73-13.25,2.75
		c-7.996,2.02-5.5,1.5-12.5,3s-12.429,2.048-18.25,3.75c-5.475,1.604-10.5,2.5-13.5,2.75s-7.639,5.231-6.802,7.494
		c0.281,0.759,0.635,1.515,1.08,2.128c2.529,3.474,2.623,29.416,1.391,33.887c-0.534,1.936-0.123,4.558,0.396,6.652
		c1.442,5.822,5.254,6.98,9.497,7.308c3.633,0.279,7.322,0.492,10.854,1.501c3.65,1.046,6.91,0.769,10.039-1.771
		c3.529-2.868,7.76-4.302,11.478-3.145c5.674,1.769,11.364,2.063,17.057,2.999c2.881,0.474,5.522,0.708,8.316-0.355
		c7.812-2.976,15.703-5.441,23.95-5.561c3.479-0.05,6.965-0.427,10.432-0.865c4.604-0.581,9.189-1.368,13.786-2.064
		c0.824-0.126,1.712-0.032,2.469-0.393c3.813-1.802,7.467-0.657,11.244,0.434c4.686,1.352,9.468,2.738,14.232,2.911
		c4.762,0.172,9.578-0.945,14.325-1.87c3.045-0.593,5.593-0.027,7.771,2.815c0.456,0.6,1.021,1.103,1.594,1.521
		c3.267,2.39,4.838,2.017,7.414-1.545c1.225-1.694,2.422-3.479,3.846-4.873c4.062-3.969,8.441-7.451,12.312-11.694
		c5.062-5.551,12.041-24.691,11.766-34.979c-0.033-1.185,1.267-2.884,2.272-3.539c1.532-0.999,2.638,0.388,3.765,1.927
		c4.088,5.586,4.214,5.345,9.658,1.455c2.552-1.826,5.433-3.068,8.277-4.015c2.369-0.786,4.329-1.909,5.786-4.472
		c4.642-8.162,6.422-59.558,8.09-69.292C593.946,610.467,594.043,608.008,594.282,605.591z M441.068,195.555
		c0.281-0.359,0.563-0.717,0.848-1.076c-3.062-6.787-8.358-11.286-14.16-14.691c-6.27-3.677-13.034-6.328-19.613-9.35
		c-4.715-2.166-8.614-5.071-10.979-10.474c-1.896-4.331-4.807-3.933-6.91-0.598c-1.469,2.328-3.494,4.452-5.673,5.958
		c-3.312,2.293-3.457,2.03-2.798,6.059c0.146,0.896,0.368,1.8,0.373,2.702c0.008,1.965-0.945,3.289-2.727,3.165
		c-3.471-0.24-6.971-0.506-10.374-1.239c-3.053-0.659-3.718-2.247-3.15-5.597c0.304-1.801,0.361-3.694,0.928-5.386
		c0.604-1.817,1.312-4.042,2.627-5.021c2.041-1.521,1.859-3.033,1.436-5.169c-1.3-6.544-5.03-10.903-9.812-14.657
		c-2.719-2.136-5.467-2.855-8.445-1.793c-3.815,1.362-7.299,3.42-9.822,7.157c-3.812,5.641-2.582,11.743,3.296,14.304
		c2.425,1.058,5.131,1.483,7.749,1.805c2.884,0.354,5.001,1.646,6.346,4.507c0.612,1.303,1.386,2.517,1.993,3.823
		c1.344,2.882,1.06,4.259-1.73,4.799c-4.605,0.892-8.191,3.976-12.172,6.172c-7.577,4.183-15.247,8.041-23.443,10.498
		c-3.974,1.192-4.378,2.093-2.903,6.658c1.311,4.062,0.9,5.274-2.102,8.01c-1.765,1.608-3.646,3.292-4.824,5.388
		c-1.166,2.068-2.473,3.569-4.559,3.742c-4.029,0.336-5.691,3.072-6.445,6.985c-0.103,0.53-0.427,1.005-0.553,1.535
		c-0.989,4.161-3.377,6.341-7.195,7.425c-2.267,0.645-4.786,2.182-6.185,4.181c-3.423,4.885-8.071,7.554-12.859,10.058
		c-6.384,3.341-12.198,7.306-16.208,14.051c-1.602,2.697-2.511,5.088-1.009,8.134c0.545,1.105,0.856,2.386,1.101,3.629
		c0.403,2.055-0.38,3.735-2,4.619c-3.115,1.703-6.278,3.342-9.542,4.644c-1.057,0.422-2.916,0.178-3.624-0.616
		c-0.727-0.815-0.893-2.798-0.584-4.053c0.471-1.91,1.57-3.629,2.388-5.437c1.732-3.829,1.389-4.706-2.252-5.708
		c-0.807-0.221-1.627-0.426-2.453-0.517c-2.333-0.252-4.422-1.079-4.652-3.989c-0.216-2.746,1.457-4.629,3.645-5.292
		c1.986-0.602,4.182-0.317,6.265-0.594c0.709-0.094,1.743-0.548,1.942-1.125c0.242-0.703-0.138-1.762-0.455-2.567
		c-0.164-0.415-0.741-0.759-1.189-0.886c-2.572-0.733-3.803-2.679-4.416-5.412c-0.555-2.477-2.165-3.976-4.177-5.178
		c-1.235-0.739-2.493-1.832-3.224-3.124c-1.921-3.401-3.644-6.95-5.283-10.531c-1.291-2.819-2.551-3.71-5.123-2.563
		c-1.324,0.591-2.716,1.594-3.545,2.844c-5.378,8.106-9.873,16.584-8.706,27.308c0.235,2.155-0.216,4.394-0.261,6.595
		c-0.13,6.414-0.437,12.836-0.266,19.243c0.24,8.994,0.862,17.975,1.284,26.964c0.043,0.906-0.133,1.83-0.239,2.742
		c-0.637,5.51-0.492,10.985,0.077,16.515c0.291,2.831-0.333,5.781-0.574,8.674c-0.288,3.45-1.082,6.946-0.794,10.332
		c0.356,4.176,0.063,8.07-1.383,11.883c-1.247,3.284-1.701,6.627-1.521,10.22c0.105,2.121-0.471,4.366-1.089,6.427
		c-1.692,5.646-1.969,11.102,0.697,16.539c1.476,3.007,1.68,6.324,1.062,9.685c-0.132,0.722-0.301,1.451-0.315,2.179
		c-0.039,2.213,1.649,5.099,3.254,5.674c2.159,0.773,4.093,0.139,5.225-2.845c1.05-2.77,1.411-5.955,1.607-8.994
		c0.175-2.717-0.479-5.488-0.438-8.229c0.12-7.885,4.109-14.211,7.241-20.836c1.194-2.528,2.63-5.113,4.507-7.002
		c2.896-2.919,5.159-5.602,3.511-10.385c-0.717-2.079-0.612-4.769,1.423-5.932c5.305-3.029,8.089-8.616,11.665-13.385
		c2.654-3.538,5.041-7.318,7.579-10.963c1.18-1.698,2.352-3.417,3.673-4.977c3.166-3.737,6.391-7.417,9.647-11.059
		c1.38-1.544,2.694-3.402,4.391-4.312c5.744-3.078,8.918-8.752,12.046-14.332c1.604-2.858,3.242-5.334,5.604-7.52
		c5.19-4.799,9.946-9.907,14.125-16.027c0.987-1.451,3.033-2.028,4.604-2.988c1.433-0.873,3.254-1.36,4.24-2.643
		c2.962-3.849,6.518-5.833,11.033-6.755c3.351-0.684,6.168-0.695,8.98,1.479c0.771,0.594,1.891,1.081,2.778,0.966
		c4.245-0.552,8.492-1.186,12.688-2.079c2.556-0.545,6.463-0.538,8.81,1.245c8.235-2.749,8.882,4.244,13.562-1.861
		c0.745-0.973,1.367-2.776,1.064-3.859c-0.543-1.935-2.191-0.939-3.426-0.592c-2.188,0.615-4.227,0.686-6.132-1.041
		c-2.889-2.614-6.288-3.979-9.931-4.778c-4.284-0.94-7.719-2.989-8.991-8.19c-0.824-3.374-3.159-5.011-6.338-5.067
		c-0.996-0.018-2,0.085-2.989-0.002c-2.564-0.227-3.685-1.402-3.407-4.258c0.278-2.912,0.84-5.838,1.672-8.615
		c0.369-1.234,1.541-2.452,2.631-3.096c3.56-2.107,7.355-3.617,11.48-2.795c2.921,0.582,5.41,0.414,7.957-1.735
		c2.438-2.058,4.101-1.499,6.054,1.117c0.731,0.98,1.083,2.316,1.836,3.268c1.183,1.491,2.367,3.295,3.914,4.022
		c1.292,0.607,3.256,0.258,4.646-0.391c1.61-0.752,1.429-2.711,1.034-4.395c-0.166-0.711-0.519-1.38-0.617-2.097
		c-0.396-2.848,0.667-4.196,3.305-3.972c1.812,0.156,3.596,0.716,5.406,0.939c3.168,0.391,5.054,2.433,6.289,5.512
		c1.875,4.662,3.764,9.32,5.75,13.923c1.429,3.305,5.643,5.274,9.48,4.589c3.256-0.582,3.428-3.357,3.778-6.205
		c0.122-0.995,1.143-2.536,1.828-2.589c0.843-0.064,2.062,0.961,2.603,1.884c3.595,6.151,6.862,12.549,10.613,18.577
		c3.052,4.907,5.684,10.273,11.35,12.646c2.301,0.964,3.955,3.785,5.943,5.711c1.866,1.808,3.543,4.313,5.73,5.166
		c4.327,1.685,5.524,5.389,6.67,9.521c0.923,3.324,1.897,6.657,3.168,9.83c3.878,9.676,6.652,19.57,5.91,30.338
		c-0.536,7.786-2.136,15.157-5.66,22.066c-2.494,4.892-5.52,9.45-6.44,15.362c-0.898,5.757,0.097,10.094,4.328,13.572
		c5.313,4.368,8.034,10.237,9.536,17.439c1.603,7.675,4.398,15.109,10.655,19.969c2.027,1.575,3.136,3.728,3.893,6.233
		c0.838,2.78,1.903,5.489,2.594,8.312c0.949,3.885,2.002,7.81,2.354,11.788c0.511,5.764-1.845,8.151-7.01,7.931
		c-0.496-0.021-0.985-0.172-1.481-0.21c-4.752-0.393-9.198,0.218-13.206,3.583c-2.712,2.279-5.76,1.669-8.322-0.591
		c-3.979-3.509-8.647-5.467-13.33-7.226c-3.092-1.161-6.501-1.918-9.742-1.823c-5.702,0.164-11.218-0.684-16.827-1.575
		c-6.047-0.959-3.081,6.466-9.184,6.775c-5.949,0.299-9.051,5.98-15,6.636c-4.896,0.536-11.173-1.229-13,4.424
		c-1.857,5.741-10.18,1.273-5.136,3.726c3.636,1.767,7.315,3.415,10.979,5.112c3.353,1.553,6.641,3.309,10.066,4.613
		c8.938,3.399,17.932,6.612,26.913,9.871c1.084,0.393,2.304,1.018,3.316,0.783c1.15-0.269,2.673-1.15,3.048-2.197
		c0.345-0.958-0.297-2.91-1.092-3.678c-1.188-1.153-2.834-1.884-4.393-2.39c-4.41-1.431-8.157-4.045-11.574-7.348
		c-1.637-1.581-2.458-3.526-1.849-5.896c0.513-1.988,2.771-3.27,5.42-2.857c1.772,0.276,3.604,0.867,5.184,1.789
		c8.6,5.019,17.521,8.505,27.356,9.334c4.729,0.395,9.391,2.183,14.016,3.606c2.881,0.888,5.123,3.155,5.765,6.364
		c1.218,6.1,5.052,9.633,9.16,13.232c4.08,3.576,8.498,4.519,13.538,4.034c5.785-0.555,11.613-0.953,17.412-0.83
		c5.993,0.125,10.775-1.796,13.963-7.599c0.941-1.711,1.875-3.453,2.587-5.288c1.439-3.709,3.741-6.471,7.041-8.117
		c2.595-1.296,4.389-3.258,5.161-6.317c0.594-2.351,1.992-3.824,4.159-4.24c3.963-0.764,6.923-3.06,9.516-6.462
		c2.03-2.668,4.661-4.932,8.271-3.893c4.387,1.269,8.02-0.466,11.819-2.745c3.454-2.076,7.364-3.228,11.086-4.756
		c2.021-0.831,4.312-1.186,6.053-2.467c5.229-3.857,10.333-7.948,15.334-12.165c5.213-4.397,5.858-8.653,2.599-14.835
		c-0.249-0.473-0.628-0.86-0.922-1.304c-3.587-5.436-0.777-15.021,5.547-16.31c4.562-0.93,6.194-4.061,6.205-9.203
		c0.005-1.815-0.271-3.673-0.682-5.438c-0.62-2.667-1.543-5.247-2.21-7.905c-0.858-3.425-2.479-6.437-5.731-6.894
		c-3.498-0.492-5.521,2.628-6.502,5.787c-2.663,8.598-8.573,14.298-14.204,20.22c-6.262,6.583-14.131,10.205-22.021,13.656
		c-4.577,2.002-9.395,2.646-14.233,1.734c-10.481-1.972-20.833-4.486-30.812-8.772c-6.319-2.714-9.555-8.272-12.259-14.457
		c-1.214-2.775-1.134-6.026,0.493-8.481c2.21-3.335,1.382-6.158-0.18-9.18c-1.48-2.865-3.186-5.625-4.354-8.638
		c-1.278-3.299-2.792-6.248-5.547-8.258c-2.523-1.841-3.795-4.52-4.37-7.731c-0.388-2.158-0.734-4.362-1.439-6.403
		c-1.416-4.101-1.572-8.285-0.963-12.509c0.839-5.805,1.555-11.664,2.892-17.338c1.205-5.106,3.119-10.016,4.833-14.965
		c0.93-2.687,3.167-3.699,5.465-4.323c1.272-0.346,2.646-0.321,3.974-0.33c4.022-0.026,7.341-1.438,10.065-4.969
		c1.8-2.332,3.974-4.68,6.43-5.959c7.354-3.826,9.726-5.008,17.309-8.251c3.287-1.406,9.25-7.5,15.25-6.5s14.588,1.731,19.5,3.25
		s10.352,3.675,13.75,7s8.5,9.5,10.25,13.25s3.727,11.014,6.334,17.5c1.078,2.682,2.312,5.314,3.741,7.78
		c0.517,0.892,1.808,1.236,2.746,1.829c0.531-1.041,1.548-2.099,1.519-3.121c-0.119-4.011-0.425-8.034-0.938-12.009
		c-0.354-2.713-1.232-5.337-1.758-8.028c-1.84-9.467-5.369-18.61-4.515-28.605c0.043-0.507-0.351-1.042-0.406-1.583
		c-0.673-6.573-1.319-13.149-1.974-19.725c-0.799-8.052-1.027-16.241-2.582-24.109c-1.174-5.941-2.186-11.862-3.011-17.864
		c-0.672-4.882-1.609-9.753-2.845-14.499c-2.338-9.003-4.878-17.947-7.533-26.844c-0.874-2.927-2.098-5.823-3.628-8.39
		c-3.653-6.118-7.3-12.294-11.517-17.927c-2.479-3.311-5.688-6.893-9.204-8.098c-5.61-1.926-11.741-2.054-17.674-2.751
		c-1.261-0.149-2.676,0.313-3.889,0.853c-3.699,1.65-7.396,3.341-10.983,5.262c-6.021,3.224-12.257,5.619-18.844,6.978
		c-3.928,0.811-7.594,2.245-10.912,5.027c-2.736,2.296-5.875,4.402-9.135,5.446c-5.326,1.706-10.282,4.095-15.121,6.997
		c-3.938,2.363-8.225,2.787-12.62,1.936c-5.074-0.983-10.228-1.628-15.201-3.045c-6.267-1.788-10.601,1.854-14.735,5.81
		c-2.655,2.538-2.236,5.042,0.666,7.208c1.208,0.901,2.634,1.615,4.053,1.975c10.519,2.664,20.976,5.81,31.615,7.659
		c13.897,2.415,27.847,2.507,41.337-3.263c7.61-3.255,15.486-5.37,23.483-7.297c7.278-1.757,14.121-1.321,21.19,0.379
		c10.164,2.445,16.846,9.7,22.174,18.985c1.46,2.542,1.83,5.359,0.604,7.888c-1.275,2.626-1.401,5.13-1.148,7.948
		c0.114,1.28-0.273,3.162-1.079,3.875c-1.502,1.326-3.09,0.273-4.438-1.023c-2.14-2.051-4.346-4.013-6.501-6.039
		c-1.919-1.801-3.928-2.069-6.472-1.562c-3.542,0.706-7.219,0.669-10.842,0.77c-2.812,0.077-5.75-0.721-8.433-0.093
		c-11.363,2.657-22.778,5.119-33.521,10.38c-5.224,2.557-10.739,3.503-16.551,1.646c-2.802-0.896-5.918-0.561-8.886-0.86
		c-2.627-0.266-5.403-0.128-7.834-1.062c-6.793-2.607-12.686-7.107-18.311-11.972c-1.947-1.685-1.985-3.173-0.217-5.078
		c0.999-1.076,2.444-1.99,3.8-2.238c2.445-0.447,4.978-0.293,7.464-0.496c0.812-0.064,1.599-0.457,3.381-0.998
		c-1.999-0.994-2.99-1.568-4.03-1.991c-14.257-5.813-28.88-9.937-44.045-11.462c-1.278-0.129-2.676,0.059-3.895,0.511
		c-2.672,0.995-4.925,3.896-4.245,5.402c1.163,2.577,3.383,2.464,5.636,2.421c2.802-0.054,5.69-0.196,8.392,0.463
		c3.545,0.866,6.955,2.43,10.398,3.776c5.557,2.173,9.759,5.995,12.417,11.975c1.071,2.413,2.843,4.459,4.354,6.619
		c1.422,2.029,2.969,3.947,4.377,5.986c1.545,2.237,3.248,4.871,1.63,7.525c-1.836,3.016-4.76,1.609-7.324,0.853
		c-1.807-0.533-3.508-1.955-5.924-0.911c0.846,3.001,1.669,5.777,2.397,8.585c0.61,2.354,0.999,4.782-0.949,6.645
		c-1.446,1.382-4.102,0.97-6.49-0.822c-0.551-0.414-1.104-0.847-1.565-1.369c-3.018-3.395-5.94-6.891-9.021-10.211
		c-3.78-4.074-7.261-8.699-13.362-8.545c-2.197,0.054-4.177-1.026-5.312-3.475c-0.957-2.064-1.805-4.16-0.301-6.182
		c1.503-2.019,3.459-1.704,5.468-0.734c4.103,1.981,8.273,3.78,12.363,5.786C432.433,191.04,436.737,193.329,441.068,195.555z
		 M241.692,121.38c1.655,2.062,3.14,3.641,4.281,5.438c0.632,0.996,1.192,2.499,0.901,3.52c-0.497,1.729-2.167,1.538-3.772,1.342
		c-6.78-0.829-13.524-0.817-20.387-0.25c-5.909,0.49-12.178-0.305-14.57-7.545c-0.104-0.312-0.232-0.791-0.452-0.858
		c-0.845-0.26-1.99-0.802-2.542-0.461c-0.902,0.559-1.752,1.63-2.056,2.653c-1.7,5.73,1.702,12.621,7.334,14.772
		c2.149,0.821,4.457,1.417,6.739,1.65c3.341,0.343,6.466,0.839,9.42,2.739c2.571,1.654,5.435,2.171,8.325-0.071
		c5.322-4.13,11.987-4.733,18.227-6.307c3.512-0.885,5.422,0.739,5.62,4.434c0.149,2.789-0.279,5.621-0.576,8.42
		c-0.431,4.048-0.797,4.292-4.795,5.031c-1.934,0.357-4.228,0.508-5.633,1.648c-3.703,3.004-8.512,4.424-11.387,8.722
		c-1.727,2.581-5.218,1.422-5.977-1.644c-0.317-1.285-0.356-2.637-0.534-3.958c-0.643-4.761-5.69-9.885-10.452-10.614
		c-2.858-0.439-4.858,1.073-5.221,3.977c-0.268,2.145,0.458,3.943,2.073,5.344c1.259,1.09,2.624,2.057,3.888,3.14
		c3.694,3.167,5.964,6.778,5.516,12.075c-0.691,8.202,1.637,16.127,3.333,24.061c0.513,2.397,1.691,4.694,2.826,6.902
		c1.373,2.671,3.015,3.177,5.782,1.998c1.054-0.449,1.991-1.18,2.965-1.807c1.812-1.166,3.77-1.443,5.706-0.552
		c3.155,1.45,6.403,2.811,9.295,4.694c2.668,1.737,5.257,2.137,8.004,0.889c4.674-2.125,9.334-4.31,13.853-6.745
		c7.056-3.804,14.126-6.678,22.125-2.79c1.852,0.9,3.277,0.056,4.193-1.547c2.938-5.148,0.582-9.69-5.306-10.27
		c-0.982-0.096-2.019-0.128-2.976,0.07c-4.066,0.838-8.117,1.762-12.164,2.691c-0.464,0.107-1.009,0.339-1.29,0.691
		c-2.634,3.306-6.324,3.929-10.216,4.398c-1.934,0.231-3.807,1.146-5.655,1.881c-6.557,2.608-7.448,2.019-10.124-4.589
		c-1.644-4.061-2.626-9.186-9.181-8.53c-2.218,0.221-3.782-2.203-3.525-4.025c0.264-1.881,1.774-3.22,4.506-2.863
		c3.306,0.434,5.003-1.235,6.418-3.632c0.837-1.418,1.501-2.949,2.132-4.475c2.26-5.467,3.331-5.803,8.315-2.553
		c0.185,0.121,0.572-0.068,0.921-0.122c0.127-0.452,0.373-0.926,0.371-1.397c-0.005-1.162-0.122-2.324-0.198-3.486
		c-0.347-5.261,1.012-7.686,5.937-9.623c1.961-0.772,4.321-1.562,6.262-1.169c6.745,1.363,13.494,1.32,20.291,1.084
		c1.128-0.038,2.277,0.376,3.405,0.626c0.972,0.214,1.916,0.597,2.896,0.724c5.094,0.656,19.056-7.109,20.939-11.815
		c0.423-1.055,0.289-2.739-0.312-3.661c-0.423-0.642-2.204-0.888-3.153-0.591c-2.043,0.643-3.961,1.707-5.896,2.672
		c-5.523,2.761-11.229,4.982-17.34,6.084c-2.943,0.531-5.201,0.064-6.476-3.059c-1.213-2.972-3.688-4.111-6.835-3.963
		c-0.989,0.046-2.19,0.288-2.928-0.164c-1.006-0.615-2.04-1.711-2.312-2.79c-0.145-0.575,1.159-1.793,2.049-2.274
		c0.977-0.527,2.222-0.672,3.366-0.754c3.813-0.274,7.635-0.638,11.453-0.614c6.776,0.044,11.245-5.338,17.247-7.052
		c0.143-0.04,0.308-0.196,0.354-0.335c0.31-0.879,1.085-2.186,0.77-2.565c-0.638-0.76-1.9-1.431-2.859-1.373
		c-1.258,0.076-2.529,0.782-3.694,1.406c-6.016,3.224-12.296,3.548-18.901,2.296c-3.381-0.642-6.903-0.513-10.359-0.787
		c-2.135-0.168-4.271-0.386-6.393-0.676c-2.034-0.28-3.605-1.396-3.488-3.539c0.121-2.182,1.604-3.695,3.821-4.003
		c4.289-0.595,8.604-0.998,12.903-1.521c1.229-0.15,2.442-0.44,3.65-0.664c-0.119-0.731-0.088-1.097-0.237-1.364
		c-0.727-1.304-1.496-2.583-2.259-3.867c-2.307-3.882-2.165-4.066,2.249-4.696c2.938-0.42,5.171-2.024,6.271-4.876
		c0.763-1.978,0.03-2.969-2.021-2.679c-1.972,0.278-3.893,0.98-5.867,1.166c-5.11,0.482-10.19-3.52-10.279-8.471
		c-0.06-3.311-1.774-5.542-3.413-8.017c-1.358-2.051-2.697-4.16-3.675-6.403c-0.917-2.102-0.67-4.819,1.051-6.028
		c5.236-3.675,11.273-5.429,17.69-5.756c6.4,3.125,15.048,3.354,16.53,12.834c0.073,0.469,0.438,0.889,0.654,1.339
		c1.306,2.72,3.665,3.775,6.479,3.89c3.796,0.155,5.063-1.32,4.592-5.114c-0.062-0.494-0.229-0.978-0.271-1.473
		c-0.295-3.453,0.83-4.463,4.397-3.859c1.967,0.331,3.9,1.085,5.862,1.133c4.146,0.102,7.735,1.478,11.165,3.701
		c2.848,1.847,4.312,1.806,6.574-0.655c2.105-2.291,4.457-2.628,7.227-2.205c1.312,0.2,2.647,0.503,3.953,0.427
		c9.459-0.552,18.946-0.888,28.362-1.882c9.58-1.012,19.056-2.884,28.237-5.92c2.146-0.709,4.213-1.766,6.162-2.92
		c2.047-1.211,4.005-2.235,6.518-1.923c5.038,0.623,6.562-0.229,8.551-4.418c1.673-3.528,0.771-5.595-3.216-5.72
		c-5.953-0.189-11.94,0.084-17.888,0.5c-3.787,0.264-7.55,1.055-11.287,1.785c-1.737,0.338-3.504,0.877-5.065,1.692
		c-6.073,3.171-12.851,4.075-19.249,6.181c-0.303,0.1-0.666,0.063-0.994,0.03c-8.069-0.836-16.312-0.011-24.214-2.623
		c-1.856-0.614-3.933-0.671-5.92-0.791c-3.272-0.195-6.054-1.396-8.686-3.345c-2.784-2.062-5.745-3.91-8.744-5.652
		c-6.904-4.014-11.354-1.633-15.488,1.882c-4.511,3.836-7.521,3.753-11.149-0.848c-2.196-2.787-4.946-4.344-8.44-4.68
		c-1.988-0.19-3.974-0.408-5.963-0.579c-7.284-0.629-10.224,1.105-12.995,7.937c-0.744,1.837-1.781,3.208-3.661,3.724
		c-4.16,1.141-8.344,2.191-12.529,3.24c-2.386,0.599-4.623,0.355-6.525-1.401c-1.22-1.125-2.509-2.179-3.679-3.354
		c-2.974-2.985-4.857-3.006-8.784,0.386c4.195,2.562,3.885,6.363,3.055,10.508c-0.863,4.314-0.501,8.445,2.161,12.401
		c1.5,2.229,2.22,5.202,2.59,7.935c1.022,7.566,0.876,7.585,8.428,8.857c5.733,0.965,6.924,3.722,4.034,8.708
		c-0.952,1.639-1.588,3.624-1.777,5.51c-0.454,4.529-1.367,6.217-5.638,6.868C248.948,117.109,245.612,119.073,241.692,121.38z
		 M430.659,104.347c-0.653,1.895-1.636,3.694-1.847,5.581c-0.387,3.445,2.419,5.301,5.521,3.792
		c1.322-0.644,2.437-1.709,3.681-2.524c1.241-0.812,2.452-1.75,3.816-2.266c1.6-0.607,3.559-0.691,4.518,0.94
		c0.649,1.104,0.704,2.768,0.509,4.105c-0.214,1.43-1.118,2.743-1.562,4.157c-0.457,1.459-0.662,2.949,0.839,4.071
		c1.446,1.079,3.087,1.679,4.6,0.557c1.399-1.042,2.825-2.352,3.604-3.871c1.73-3.383,3.157-6.933,4.522-10.486
		c1.144-2.969,3.099-4.964,5.919-6.397c3.249-1.653,6.354-3.593,9.514-5.42c2.646-1.528,4.318-3.599,3.794-6.885
		c-0.479-3.018,0.855-5.151,3.354-6.661c3.69-2.235,7.253-4.762,11.143-6.58c8.419-3.935,17.276-5.881,26.652-4.544
		c2.791,0.398,5.638,0.469,8.393,1.025c3.819,0.771,7.973-0.025,11.35,2.975c3.243,2.882,4.855,2.915,8.363,0.286
		c2.821-2.114,5.722-2.674,8.886-1.553c3.259,1.154,6.438,1.135,9.804,0.604c1.881-0.298,4.026-0.13,5.824,0.49
		c5.511,1.903,9.962,5.209,12.547,10.663c0.637,1.344,1.395,2.652,2.252,3.867c1.894,2.687,4.71,3.883,6.786,3.016
		c1.995-0.833,2.366-2.737,1.489-6.655c-0.543-2.423-1.425-4.934-1.213-7.322c0.314-3.548-1.136-5.733-3.302-8.343
		c-2.719-3.276-5.228-4.85-9.318-3.022c-1.984,0.887-3.597-0.141-4.84-1.606c-0.848-1.002-1.364-2.278-2.154-3.339
		c-4.218-5.658-9.977-8.751-16.86-7.316c-8.565,1.784-17.162,1.785-25.778,2.092c-3.593,0.127-6.763,0.855-9.696,3.17
		c-1.729,1.364-4.062,2.04-6.215,2.763c-1.715,0.579-3.588,0.67-5.352,1.133c-8.838,2.321-17.663,4.691-26.493,7.044
		c-4.229,1.127-4.404,1.097-5.812-3.29c-0.563-1.763-1.632-2.145-3.294-2.377c-2.067-0.29-4.482-0.554-5.989-1.77
		c-1.587-1.277-2.681-1.442-4.411-0.833c-3.909,1.379-7.955,2.396-11.795,3.936c-4.758,1.908-9.354,4.068-13.514,7.29
		c-5.089,3.943-10.699,7.208-16.035,10.837c-1.206,0.819-2.436,1.769-3.268,2.936c-1.787,2.506-0.397,5.233,2.646,5.92
		c2.458,0.553,4.096-0.938,5.973-1.926c3.354-1.765,6.64-3.696,10.106-5.201c2.396-1.039,4.884-0.395,7.162,0.928
		c1.213,0.704,1.827,1.715,1.064,2.861c-2.172,3.263-3.891,6.877-7.968,8.538C435.853,100.842,433.44,102.691,430.659,104.347z
		 M524.938,293.512c-1.298,1.633-2.352,3.144-3.59,4.483c-2.875,3.111-3.326,6.958-2.675,10.74
		c1.089,6.307,3.863,11.972,8.273,16.699c2.254,2.416,4.732,4.619,7.021,7.007c1.141,1.19,2.215,2.493,3.067,3.897
		c1.827,3.006,2.119,6.033,0.597,9.456c-1.752,3.94-0.815,5.269,3.456,6.265c0.808,0.188,1.63,0.323,2.452,0.425
		c8.521,1.059,16.17-1.41,22.991-6.281c4.615-3.295,9.369-6.184,14.612-8.345c2.276-0.938,4.476-2.194,6.482-3.624
		c1.713-1.22,2.718-3.072,1.45-5.214c-1.829-3.093-1.623-6.24-0.998-9.634c0.724-3.93-0.429-4.675-4.269-3.751
		c-8.881,2.137-7.684,18.24-18.934,23.365s-16.456-4.697-18.331-10.072s-1.794-11.553-0.544-18.303s1.638-12.316-0.5-21.656
		c-1.323-5.789-5.104-7.105-10.605-4.58C530.487,286.415,527.532,289.937,524.938,293.512z M390.177,103.338
		c-3.159-2.787-6.996-3.788-10.793-3.718c-6.406,0.115-12.562-0.301-18.439-3.144c-1.978-0.955-4.217-0.524-5.088,1.699
		c-1.305,3.319-3.766,5.219-6.622,7.042c-2.476,1.579-2.581,3.231-1.215,5.983c0.738,1.487,1.516,2.962,2.149,4.494
		c1.801,4.339,3.789,5.798,8.3,5.503c5.986-0.393,11.49,1.297,16.863,3.605c3.384,1.454,6.123,3.601,8.643,6.472
		c4.484,5.11,10.862,7.44,17.222,9.398c1.152,0.355,3.034-0.194,3.996-1.013c1.46-1.246,0.816-3.104-0.062-4.582
		c-1.187-1.994-2.479-3.93-3.812-5.832c-1.84-2.624-2.692-5.438-1.229-8.429c1.283-2.622,0.752-4.963-0.87-6.99
		C396.334,110.227,393.204,106.824,390.177,103.338z M520.815,280.949c2.661,0.254,4.526-0.614,6.263-2.016
		c2.697-2.182,5.262-4.603,8.208-6.383c4.533-2.741,9.208-5.356,14.092-7.369c2.604-1.073,5.865-1.385,8.662-0.954
		c4.895,0.751,9.669,2.304,14.476,3.588c5.289,1.414,9.66,4.04,12.399,9.062c1.818,3.334,3.935,6.511,6.021,9.691
		c0.988,1.506,2.037,3.066,3.387,4.223c2.05,1.762,4.411,0.84,4.658-1.84c0.163-1.769-0.187-3.654-0.642-5.401
		c-1.947-7.461-6.43-13.449-11.894-18.585c-3.088-2.902-6.726-5.52-10.57-7.254c-7.406-3.339-15.36-4.373-23.364-2.42
		c-8.626,2.104-16.729,5.333-22.559,12.59c-1.132,1.409-2.576,2.564-3.857,3.854C523.654,274.193,520.921,276.48,520.815,280.949z
		 M308.129,167.799c-2.672,3.187-2.975,5.021-1.619,6.968c1.685,2.417,4.076,3.067,7.027,1.784c1.053-0.457,2.08-1.062,2.977-1.779
		c4.9-3.904,9.795-7.817,14.607-11.828c1.925-1.605,1.261-4.127-1.156-4.906c-4.579-1.474-8.476,0.25-12.147,2.73
		c-2.465,1.663-4.831,3.47-7.236,5.219C309.518,166.759,308.47,167.546,308.129,167.799z M239.35,119.849
		c-1.479-3.815-2.225-6.923-3.799-9.531c-2.682-4.444-5.391-8.762-5.314-14.195c0.005-0.324-0.005-0.792-0.204-0.954
		c-1.197-0.979-2.379-2.528-3.701-2.674c-2.031-0.226-2.619,1.743-2.616,3.503c0.005,3.479-0.033,6.976,0.32,10.427
		c0.178,1.731,0.795,3.692,1.877,5.001C229.086,115.264,232.78,118.536,239.35,119.849z M245.435,40.095
		c-0.508-0.13-1.449-0.596-2.375-0.568c-3.466,0.102-6.931,0.328-10.391,0.58c-2.441,0.178-4.494,1.171-5.787,3.346
		c-1.616,2.719-0.015,6.175,2.923,5.561c5.455-1.142,10.78-3.007,16.043-4.897C247.401,43.557,247.192,41.534,245.435,40.095z
		 M395.668,33.015c-0.348-0.158-1.09-0.783-1.833-0.785c-4.415-0.009-8.479,1.442-12.243,3.594
		c-0.662,0.379-0.907,2.125-0.727,3.128c0.129,0.719,1.308,1.803,1.982,1.78c4.123-0.146,8.319-0.164,12.325-1.011
		C398.56,39.005,398.831,35.549,395.668,33.015z M569.458,282.206c-2.138-1.646-3.452-1.482-5.029,0.626
		c-2.223,2.972-1.563,9.955,1.147,12.547c1.27,1.214,2.428,1.316,3.94,0.254C572.38,293.626,573.259,284.318,569.458,282.206z
		 M371.714,281.276c-1.585,0.095-3.089-0.197-4.206,0.329c-2.6,1.229-4.001,3.601-4.002,6.442
		c-0.001,4.642,0.157,9.296,0.559,13.917c0.108,1.243,1.342,2.385,2.059,3.574c1.102-0.981,2.872-1.785,3.19-2.974
		c1.424-5.32,2.555-10.729,3.502-16.156C373.055,285.04,372.226,283.489,371.714,281.276z"/>
</g>
</svg>
