<?xml version="1.0" encoding="utf-8"?>
<!-- Generator: Adobe Illustrator 16.0.4, SVG Export Plug-In . SVG Version: 6.00 Build 0)  -->
<!DOCTYPE svg PUBLIC "-//W3C//DTD SVG 1.1//EN" "http://www.w3.org/Graphics/SVG/1.1/DTD/svg11.dtd">
<svg version="1.1" id="Layer_1" xmlns="http://www.w3.org/2000/svg" xmlns:xlink="http://www.w3.org/1999/xlink" x="0px" y="0px"
	 width="600px" height="600px" viewBox="-49.5 -249.5 600 600" enable-background="new -49.5 -249.5 600 600" xml:space="preserve">
<g>
	<path fill="#595958" d="M180.942-237.411c-0.006,6.746-5.107,11.845-11.921,11.913c-6.682,0.069-12.088-5.127-12.218-11.743
		c-0.132-6.74,5.482-12.351,12.263-12.258C175.72-249.404,180.946-244.084,180.942-237.411z"/>
	<path fill="#595958" d="M159.698-129.355c2.657-22.535,27.049-36.309,45.799-41.899c-16.875-27.944-22.5-37.26-45-72.656
		c0.249-0.217,58.125,67.067,60,68.929c24.375-3.725,35.625-3.725,60,0c1.875-1.862,60-68.929,60-68.929
		s-28.124,44.712-44.998,72.656c18.749,5.589,43.261,18.983,45.875,41.761c2.14,0,4.018-0.007,5.97-0.007
		c60.035,0,120.156,0,180.195,0c15.923,0,22.958,7.885,22.958,22.002C550.5,5.984,550.5,119.465,550.5,232.945
		c0,13.41-7.102,19.739-22.224,19.801c-4.638,0.02-112.352-0.08-116.193-0.076c-113.589,0.104-389.518,0.088-397.098,0.088
		c-3.492,0-4.692-0.132-10.465-0.082c-5.771,0.048-38.774-0.281-40.47-0.75c-8.116-2.225-13.034-7.777-13.482-15.249
		c-0.115-1.904-0.05-3.825-0.05-5.738c-0.002-112.891-0.002-225.782-0.001-338.672c0-13.798,7.429-21.599,22.999-21.599
		c60.039,0,119.941,0,179.976,0C155.465-129.336,157.614-129.355,159.698-129.355z M250.736-99.5c-74.487,0-148.939-0.056-223.426,0
		c-4.467,0.003-19.099-0.083-28.022,0c-8.924,0.083-18.789,6.493-18.789,19.534c0.66,82.401,0.075,204.491,0,286.898
		c-0.01,11.052,9.375,20.492,18.75,20.492s24.627,0,37.5,0c150.474,0.018,284.53,0.273,435.001,0c7.759-0.014,11.249,0,30.001,0
		c18.749,0,18.998-8.997,18.998-20.175c-0.188-82.701,0-278.071,0-289.25c0-13.041-8.75-17.506-19.999-17.506
		c-2.024,0-35.391-0.084-51.523-0.078C374.235-99.556,325.725-99.501,250.736-99.5z"/>
	<path fill="#595958" d="M343.938-237.411c-0.006,6.746-5.107,11.845-11.925,11.913c-6.681,0.07-12.09-5.126-12.218-11.743
		c-0.133-6.739,5.481-12.351,12.261-12.258C338.714-249.404,343.943-244.084,343.938-237.411z"/>
</g>
<g>
	<path fill="#595958" d="M447.997,340.015c0,2.58,0.028,4.721-0.009,6.859c-0.032,2.167-1.208,3.47-4.546,3.462
		c-14.263-0.04-28.521-0.028-42.787,0.016c-3.278,0.01-4.559-1.221-4.553-3.444c0.005-2.143,0.003-4.282,0.003-6.655
		c-97.035,0-193.861,0-291.204,0c0,2.097-0.056,4.211,0.012,6.326c0.078,2.494-1.218,3.801-4.915,3.789
		C86,350.299,72,350.285,58.004,350.354c-3.673,0.021-5.051-1.233-5.004-3.731c0.037-2.047,0.006-4.089,0.006-6.607
		c-1.719,0-3.252,0-4.786,0c-27.598,0.002-55.191,0.004-82.789,0c-10.189-0.005-14.922-3.465-14.926-10.923
		c-0.008-19.63-0.008-39.259,0-58.885c0.004-7.218,4.846-10.708,14.812-10.708c190.105,0,380.208,0,570.318,0
		c10.143,0,14.861,3.468,14.861,10.961c0.004,19.631,0.008,39.261-0.005,58.889c-0.007,7.07-4.87,10.661-14.471,10.661
		c-27.597,0.018-55.194,0.009-82.787,0.009C451.659,340.015,450.088,340.015,447.997,340.015z M204.461,281.884
		c0,0.008,0,0.01,0,0.014c-37.581,0-28.784-0.034-62.358,0c-2.639,0.004-6.347,0.109-8.866,0.62
		c-11.883,2.409-17.714,10.326-15.849,21.208c1.399,8.152,10.854,13.953,23.016,13.953c71.553,0.021,87.682,0.019,159.233,0.009
		c14.812-0.005,23.752-6.787,23.757-17.958c0.004-11.221-8.823-17.838-23.828-17.841
		C263.859,281.882,240.173,281.884,204.461,281.884z M8.132,307.459c4.929-0.062,8.861-3.705,8.782-8.13
		c-0.081-4.425-4.166-8.023-9.027-7.954c-4.909,0.071-8.823,3.728-8.76,8.179C-0.813,304.019,3.182,307.522,8.132,307.459z
		 M387.478,307.459c4.938-0.032,8.831-3.621,8.79-8.103c-0.036-4.436-4.088-8.039-8.965-7.981c-4.867,0.056-8.878,3.755-8.826,8.146
		C378.535,303.948,382.559,307.495,387.478,307.459z M499.125,299.343c-0.056-4.429-4.244-8.046-9.218-7.97
		c-5.026,0.079-9.065,3.742-9.004,8.164c0.066,4.461,4.153,7.974,9.226,7.92C495.194,307.404,499.186,303.806,499.125,299.343z
		 M448.136,299.491c0.032-4.438-3.93-8.082-8.845-8.118c-4.924-0.038-8.918,3.535-8.945,8c-0.023,4.507,3.841,8.054,8.818,8.086
		C444.116,307.488,448.102,303.954,448.136,299.491z"/>
	<path fill="#595958" d="M220.964,308.494c-26.168,0-74.875-0.019-79.217-0.009c-4.343,0.009-7.015-1.185-9.313-3.563
		c-2.528-2.624-2.339-7.737-0.043-10.674c1.841-2.353,4.861-3.617,9.511-3.617c4.651,0.002,105.141,0.032,157.572,0.006
		c4-0.002,7.607,0.689,9.588,3.638c2.259,3.369,2.266,7.029,0.131,10.432c-1.943,3.095-5.594,3.82-9.728,3.812
		C273.296,308.467,247.13,308.494,220.964,308.494z"/>
</g>
</svg>
