<?xml version="1.0" encoding="utf-8"?>
<!-- Generator: Adobe Illustrator 16.0.4, SVG Export Plug-In . SVG Version: 6.00 Build 0)  -->
<!DOCTYPE svg PUBLIC "-//W3C//DTD SVG 1.1//EN" "http://www.w3.org/Graphics/SVG/1.1/DTD/svg11.dtd">
<svg version="1.1" id="Layer_1" xmlns="http://www.w3.org/2000/svg" xmlns:xlink="http://www.w3.org/1999/xlink" x="0px" y="0px"
	 width="600px" height="600px" viewBox="-5.5 6.5 600 600" enable-background="new -5.5 6.5 600 600" xml:space="preserve">
<g>
	<path fill="#595958" d="M224.943,18.589c-0.006,6.746-5.107,11.845-11.921,11.913c-6.682,0.069-12.088-5.127-12.218-11.743
		c-0.132-6.74,5.482-12.351,12.263-12.258C219.721,6.596,224.947,11.916,224.943,18.589z"/>
	<path fill="#595958" d="M203.699,126.645c2.657-22.535,27.049-36.309,45.799-41.899c-16.875-27.944-22.5-37.26-45-72.656
		c0.249-0.217,58.125,67.067,60,68.929c24.375-3.725,35.625-3.725,60,0c1.875-1.862,60-68.929,60-68.929
		S356.374,56.802,339.5,84.746c18.749,5.589,43.261,18.983,45.875,41.761c2.14,0,4.018-0.007,5.97-0.007
		c60.035,0,120.156,0,180.195,0c15.923,0,22.958,7.885,22.958,22.002c0.003,113.482,0.003,226.963,0.003,340.443
		c0,13.41-7.102,19.74-22.224,19.801c-4.637,0.02-112.351-0.08-116.193-0.076c-113.589,0.104-389.518,0.088-397.098,0.088
		c-3.492,0-4.692-0.132-10.465-0.082c-5.771,0.048-38.774-0.281-40.47-0.75c-8.116-2.225-13.034-7.778-13.482-15.249
		c-0.115-1.905-0.05-3.825-0.05-5.739c-0.002-112.89-0.002-225.782-0.001-338.672c0-13.798,7.429-21.599,22.999-21.599
		c60.039,0,119.941,0,179.976,0C199.466,126.664,201.615,126.645,203.699,126.645z M294.737,156.5
		c-74.487,0-148.939-0.056-223.426,0c-4.467,0.003-19.099-0.083-28.022,0c-8.924,0.083-18.789,6.493-18.789,19.534
		c0.66,82.401,0.075,204.491,0,286.899c-0.01,11.051,9.375,20.492,18.75,20.492c9.375,0,24.627,0,37.5,0
		c150.474,0.017,284.53,0.273,435.001,0c7.759-0.014,11.249,0,30.001,0c18.749,0,18.998-8.997,18.998-20.175
		c-0.188-82.701,0-278.071,0-289.25c0-13.041-8.75-17.506-19.999-17.506c-2.024,0-35.391-0.084-51.523-0.078
		C418.236,156.444,369.726,156.499,294.737,156.5z"/>
	<path fill="#595958" d="M387.939,18.589c-0.005,6.746-5.107,11.845-11.924,11.913c-6.681,0.07-12.09-5.126-12.218-11.743
		c-0.133-6.739,5.481-12.351,12.261-12.258C382.715,6.596,387.944,11.916,387.939,18.589z"/>
</g>
<g>
	<path fill="#595958" d="M491.605,596.479c0,2.58,0.029,4.72-0.008,6.859c-0.033,2.167-1.207,3.47-4.542,3.462
		c-14.251-0.04-28.499-0.028-42.753,0.015c-3.276,0.01-4.555-1.22-4.549-3.444c0.005-2.142,0.003-4.282,0.003-6.655
		c-96.958,0-193.707,0-290.973,0c0,2.096-0.056,4.211,0.012,6.326c0.078,2.494-1.217,3.801-4.911,3.789
		c-13.988-0.068-27.976-0.082-41.961-0.014c-3.67,0.021-5.047-1.233-5-3.731c0.037-2.047,0.006-4.089,0.006-6.608
		c-1.717,0-3.25,0-4.782,0c-27.576,0.002-55.148,0.004-82.723,0c-10.181-0.004-14.91-3.464-14.914-10.922
		c-0.008-19.63-0.008-39.259,0-58.885c0.004-7.218,4.842-10.708,14.799-10.708c189.954,0,379.907,0,569.865,0
		c10.135,0,14.849,3.468,14.849,10.961c0.004,19.631,0.008,39.261-0.004,58.888c-0.007,7.071-4.867,10.662-14.459,10.662
		c-27.576,0.017-55.151,0.008-82.722,0.008C495.265,596.479,493.695,596.479,491.605,596.479z M243.255,538.348
		c0,0.007,0,0.009,0,0.013c-35.549,0-26.759-0.036-62.308,0c-2.637,0.004-16.35,0.11-18.867,0.62
		c-11.874,2.41-17.7,10.327-15.836,21.208c1.398,8.153,10.846,13.954,22.997,13.954c71.497,0.02,109.632,0.018,181.126,0.008
		c14.801-0.004,23.734-6.787,23.738-17.958c0.004-11.22-8.816-17.838-23.809-17.84C314.617,538.346,278.938,538.348,243.255,538.348
		z M52.091,563.923c4.925-0.062,8.854-3.705,8.774-8.13c-0.08-4.425-4.162-8.023-9.02-7.954c-4.905,0.071-8.815,3.727-8.753,8.179
		C43.152,560.482,47.144,563.986,52.091,563.923z M431.135,563.923c4.934-0.032,8.823-3.621,8.783-8.103
		c-0.036-4.435-4.085-8.039-8.958-7.981c-4.863,0.056-8.871,3.755-8.819,8.145C422.199,560.412,426.22,563.959,431.135,563.923z
		 M542.693,555.807c-0.055-4.429-4.241-8.046-9.211-7.97c-5.022,0.079-9.057,3.742-8.996,8.164c0.067,4.461,4.15,7.974,9.218,7.92
		C538.766,563.868,542.754,560.27,542.693,555.807z M491.744,555.955c0.032-4.438-3.926-8.082-8.837-8.118
		c-4.92-0.038-8.911,3.535-8.938,8c-0.024,4.507,3.838,8.054,8.811,8.086C487.729,563.952,491.71,560.418,491.744,555.955z"/>
	<path fill="#595958" d="M261.544,564.085c-29.086,0-83.225-0.017-88.052-0.008c-4.827,0.008-7.797-1.081-10.352-3.253
		c-2.81-2.394-2.6-7.062-0.048-9.743c2.047-2.147,5.403-3.302,10.572-3.302c5.17,0.002,116.867,0.03,175.146,0.006
		c4.444-0.002,8.454,0.629,10.657,3.32c2.512,3.076,2.519,6.416,0.146,9.523c-2.161,2.825-6.218,3.488-10.813,3.48
		C319.713,564.061,290.628,564.085,261.544,564.085z"/>
</g>
</svg>
